<svg width="647" height="281" viewBox="0 0 647 281" fill="none" xmlns="http://www.w3.org/2000/svg">
<path d="M106.1 10.8309L25.2324 67.9253C22.5783 69.7991 21 72.8455 21 76.0945V262C21 267.523 25.4771 272 31 272H541.973C543.57 272 545.145 271.617 546.564 270.884L619.591 233.146C622.913 231.429 625 228.002 625 224.262V70.9135V19C625 13.4772 620.523 9 615 9H111.868C109.803 9 107.788 9.63957 106.1 10.8309Z" fill="#0D0D0D" fill-opacity="0.71"/>
<path d="M91.9065 1.83103L5.04271 63.1627C2.38878 65.0366 0.810547 68.0829 0.810547 71.3317V271C0.810547 276.523 5.28769 281 10.8105 281H557.569C559.166 281 560.741 280.617 562.16 279.884L640.698 239.295C644.02 237.578 646.106 234.151 646.106 230.412V66.1509V10C646.106 4.47715 641.629 0 636.106 0H97.6744C95.6088 0 93.5939 0.63964 91.9065 1.83103Z" stroke="#C4C4C4" stroke-opacity="0.8"/>
</svg>
