<svg width="300" height="270" viewBox="0 0 300 270" fill="none" xmlns="http://www.w3.org/2000/svg">
<g opacity="0.8">
<path opacity="0.8" d="M224.457 202.365C265.778 165.111 265.778 104.709 224.457 67.455C183.136 30.2006 116.14 30.2006 74.819 67.455C33.4976 104.709 33.4976 165.111 74.819 202.365C116.14 239.619 183.136 239.619 224.457 202.365Z" stroke="#4A4A4A" stroke-width="0.35354" stroke-miterlimit="10"/>
<path opacity="0.8" d="M220.688 198.967C259.928 163.589 259.928 106.231 220.688 70.8527C181.448 35.4748 117.828 35.4748 78.5875 70.8527C39.3475 106.231 39.3475 163.589 78.5875 198.967C117.828 234.345 181.448 234.345 220.688 198.967Z" stroke="#4A4A4A" stroke-width="0.463986" stroke-miterlimit="10"/>
<path opacity="0.8" d="M149.638 220.692C202.185 220.692 244.783 182.287 244.783 134.912C244.783 87.5373 202.185 49.1323 149.638 49.1323C97.0917 49.1323 54.4941 87.5373 54.4941 134.912C54.4941 182.287 97.0917 220.692 149.638 220.692Z" stroke="#4A4A4A" stroke-width="0.574502" stroke-miterlimit="10"/>
<path opacity="0.8" d="M149.639 215.887C199.242 215.887 239.454 179.634 239.454 134.912C239.454 90.1912 199.242 53.9375 149.639 53.9375C100.036 53.9375 59.8242 90.1912 59.8242 134.912C59.8242 179.634 100.036 215.887 149.639 215.887Z" stroke="#4A4A4A" stroke-width="0.685019" stroke-miterlimit="10"/>
<path opacity="0.8" d="M209.379 188.77C242.372 159.024 242.372 110.796 209.379 81.0503C176.385 51.3044 122.893 51.3044 89.8996 81.0503C56.9064 110.796 56.9064 159.024 89.8996 188.77C122.893 218.516 176.385 218.516 209.379 188.77Z" stroke="#4A4A4A" stroke-width="0.795465" stroke-miterlimit="10"/>
<path opacity="0.8" d="M205.61 185.372C236.522 157.503 236.522 112.317 205.61 84.448C174.698 56.5786 124.58 56.5786 93.6682 84.448C62.7563 112.317 62.7563 157.503 93.6682 185.372C124.58 213.242 174.698 213.242 205.61 185.372Z" stroke="#4A4A4A" stroke-width="0.90591" stroke-miterlimit="10"/>
<path opacity="0.8" d="M201.84 181.974C230.67 155.982 230.67 113.839 201.84 87.8456C173.009 61.8527 126.265 61.8527 97.4348 87.8456C68.6042 113.839 68.6042 155.981 97.4348 181.974C126.265 207.967 173.009 207.967 201.84 181.974Z" stroke="#4A4A4A" stroke-width="1.01643" stroke-miterlimit="10"/>
<path opacity="0.8" d="M198.073 178.577C224.822 154.46 224.822 115.36 198.073 91.2433C171.324 67.1268 127.955 67.1267 101.205 91.2432C74.456 115.36 74.4561 154.46 101.205 178.577C127.955 202.693 171.324 202.693 198.073 178.577Z" stroke="#4A4A4A" stroke-width="1.12694" stroke-miterlimit="10"/>
<path opacity="0.8" d="M212.012 143.995C217.569 112.945 194.155 83.7127 159.716 78.7023C125.276 73.6919 92.8522 94.8011 87.2949 125.851C81.7375 156.901 105.151 186.133 139.591 191.144C174.03 196.154 206.454 175.045 212.012 143.995Z" stroke="#4A4A4A" stroke-width="1.23739" stroke-miterlimit="10"/>
<path opacity="0.8" d="M149.64 187.057C181.583 187.057 207.477 163.711 207.477 134.912C207.477 106.114 181.583 82.7676 149.64 82.7676C117.697 82.7676 91.8027 106.114 91.8027 134.912C91.8027 163.711 117.697 187.057 149.64 187.057Z" stroke="#4A4A4A" stroke-width="1.34784" stroke-miterlimit="10"/>
<path opacity="0.8" d="M186.767 168.384C207.273 149.897 207.273 119.923 186.767 101.436C166.262 82.949 133.016 82.949 112.511 101.436C92.0056 119.923 92.0057 149.897 112.511 168.384C133.016 186.871 166.262 186.871 186.767 168.384Z" stroke="#4A4A4A" stroke-width="1.45835" stroke-miterlimit="10"/>
<path opacity="0.8" d="M182.991 164.982C201.412 148.373 201.412 121.447 182.991 104.839C164.57 88.2305 134.703 88.2306 116.282 104.839C97.861 121.447 97.861 148.373 116.282 164.982C134.703 181.59 164.57 181.59 182.991 164.982Z" stroke="#4A4A4A" stroke-width="1.56887" stroke-miterlimit="10"/>
<path opacity="0.8" d="M179.224 161.584C195.564 146.852 195.564 122.968 179.224 108.236C162.884 93.5047 136.392 93.5047 120.053 108.236C103.713 122.968 103.713 146.852 120.053 161.584C136.392 176.315 162.884 176.315 179.224 161.584Z" stroke="#4A4A4A" stroke-width="1.67931" stroke-miterlimit="10"/>
<path opacity="0.8" d="M175.456 158.186C189.714 145.331 189.714 124.489 175.456 111.634C161.197 98.7787 138.08 98.7787 123.821 111.634C109.563 124.489 109.563 145.331 123.821 158.186C138.08 171.041 161.197 171.041 175.456 158.186Z" stroke="#4A4A4A" stroke-width="1.78976" stroke-miterlimit="10"/>
<path opacity="0.8" d="M180.596 138.2C182.614 122.781 170.386 108.806 153.284 106.986C136.181 105.167 120.681 116.191 118.662 131.61C116.644 147.03 128.872 161.004 145.974 162.824C163.077 164.644 178.577 153.619 180.596 138.2Z" stroke="#4A4A4A" stroke-width="1.90028" stroke-miterlimit="10"/>
<path opacity="0.8" d="M149.639 158.22C163.917 158.22 175.492 147.785 175.492 134.912C175.492 122.039 163.917 111.604 149.639 111.604C135.362 111.604 123.787 122.039 123.787 134.912C123.787 147.785 135.362 158.22 149.639 158.22Z" stroke="#4A4A4A" stroke-width="2.01079" stroke-miterlimit="10"/>
<path opacity="0.8" d="M170.112 136.396C171.012 126.21 162.582 117.295 151.284 116.484C139.986 115.672 130.098 123.272 129.198 133.458C128.298 143.644 136.727 152.559 148.025 153.371C159.323 154.182 169.212 146.583 170.112 136.396Z" stroke="#4A4A4A" stroke-width="2.12124" stroke-miterlimit="10"/>
</g>
</svg>
