<svg width="774" height="698" viewBox="0 0 774 698" fill="none" xmlns="http://www.w3.org/2000/svg">
<g opacity="0.8">
<path opacity="0.8" d="M580.5 523.365C687.367 427.016 687.367 270.804 580.5 174.455C473.633 78.1062 300.367 78.1062 193.5 174.455C86.6329 270.804 86.6329 427.016 193.5 523.365C300.367 619.714 473.633 619.714 580.5 523.365Z" stroke="#4A4A4A" stroke-width="0.35354" stroke-miterlimit="10"/>
<path opacity="0.8" d="M570.753 514.578C672.237 423.082 672.237 274.738 570.753 183.242C469.269 91.7465 304.73 91.7464 203.246 183.242C101.761 274.738 101.761 423.082 203.246 514.578C304.73 606.074 469.269 606.074 570.753 514.578Z" stroke="#4A4A4A" stroke-width="0.463986" stroke-miterlimit="10"/>
<path opacity="0.8" d="M387.002 570.764C522.901 570.764 633.068 471.44 633.068 348.916C633.068 226.393 522.901 127.069 387.002 127.069C251.103 127.069 140.936 226.393 140.936 348.916C140.936 471.44 251.103 570.764 387.002 570.764Z" stroke="#4A4A4A" stroke-width="0.574502" stroke-miterlimit="10"/>
<path opacity="0.8" d="M387.003 558.337C515.29 558.337 619.286 464.576 619.286 348.917C619.286 233.257 515.29 139.496 387.003 139.496C258.717 139.496 154.721 233.257 154.721 348.917C154.721 464.576 258.717 558.337 387.003 558.337Z" stroke="#4A4A4A" stroke-width="0.685019" stroke-miterlimit="10"/>
<path opacity="0.8" d="M541.5 488.204C626.829 411.274 626.829 286.546 541.5 209.616C456.172 132.686 317.827 132.686 232.499 209.616C147.17 286.546 147.17 411.274 232.499 488.204C317.827 565.134 456.172 565.134 541.5 488.204Z" stroke="#4A4A4A" stroke-width="0.795465" stroke-miterlimit="10"/>
<path opacity="0.8" d="M531.755 479.417C611.701 407.34 611.701 290.48 531.755 218.403C451.81 146.326 322.192 146.326 242.247 218.403C162.301 290.48 162.301 407.34 242.247 479.417C322.192 551.494 451.81 551.494 531.755 479.417Z" stroke="#4A4A4A" stroke-width="0.90591" stroke-miterlimit="10"/>
<path opacity="0.8" d="M522.008 470.63C596.571 403.406 596.571 294.414 522.008 227.19C447.445 159.966 326.555 159.966 251.992 227.19C177.429 294.414 177.43 403.406 251.992 470.63C326.555 537.854 447.445 537.854 522.008 470.63Z" stroke="#4A4A4A" stroke-width="1.01643" stroke-miterlimit="10"/>
<path opacity="0.8" d="M512.261 461.843C581.441 399.472 581.441 298.348 512.261 235.977C443.081 173.606 330.918 173.606 261.738 235.977C192.558 298.348 192.558 399.472 261.738 461.843C330.918 524.214 443.081 524.214 512.261 461.843Z" stroke="#4A4A4A" stroke-width="1.12694" stroke-miterlimit="10"/>
<path opacity="0.8" d="M548.312 372.407C562.684 292.105 502.131 216.502 413.062 203.544C323.993 190.586 240.137 245.179 225.764 325.482C211.392 405.784 271.945 481.387 361.014 494.345C450.083 507.303 533.939 452.71 548.312 372.407Z" stroke="#4A4A4A" stroke-width="1.23739" stroke-miterlimit="10"/>
<path opacity="0.8" d="M387.003 483.776C469.614 483.776 536.584 423.397 536.584 348.917C536.584 274.436 469.614 214.058 387.003 214.058C304.392 214.058 237.422 274.436 237.422 348.917C237.422 423.397 304.392 483.776 387.003 483.776Z" stroke="#4A4A4A" stroke-width="1.34784" stroke-miterlimit="10"/>
<path opacity="0.8" d="M483.022 435.482C536.054 387.669 536.054 310.151 483.022 262.338C429.991 214.526 344.009 214.526 290.977 262.338C237.946 310.151 237.946 387.669 290.977 435.482C344.009 483.294 429.991 483.294 483.022 435.482Z" stroke="#4A4A4A" stroke-width="1.45835" stroke-miterlimit="10"/>
<path opacity="0.8" d="M473.262 426.682C520.903 383.73 520.903 314.09 473.262 271.138C425.62 228.186 348.378 228.186 300.737 271.138C253.096 314.09 253.096 383.73 300.737 426.682C348.378 469.635 425.62 469.635 473.262 426.682Z" stroke="#4A4A4A" stroke-width="1.56887" stroke-miterlimit="10"/>
<path opacity="0.8" d="M463.517 417.895C505.775 379.796 505.775 318.025 463.517 279.925C421.258 241.826 352.743 241.826 310.485 279.925C268.226 318.025 268.226 379.796 310.485 417.895C352.743 455.994 421.258 455.994 463.517 417.895Z" stroke="#4A4A4A" stroke-width="1.67931" stroke-miterlimit="10"/>
<path opacity="0.8" d="M453.77 409.108C490.645 375.862 490.645 321.959 453.77 288.712C416.894 255.466 357.106 255.466 320.23 288.712C283.355 321.959 283.355 375.862 320.231 409.108C357.106 442.354 416.894 442.354 453.77 409.108Z" stroke="#4A4A4A" stroke-width="1.78976" stroke-miterlimit="10"/>
<path opacity="0.8" d="M467.066 357.419C472.285 317.542 440.661 281.399 396.43 276.693C352.199 271.987 312.111 300.499 306.891 340.377C301.671 380.254 333.296 416.397 377.527 421.103C421.758 425.809 461.846 397.297 467.066 357.419Z" stroke="#4A4A4A" stroke-width="1.90028" stroke-miterlimit="10"/>
<path opacity="0.8" d="M387.003 409.196C423.929 409.196 453.863 382.207 453.863 348.916C453.863 315.625 423.929 288.636 387.003 288.636C350.077 288.636 320.143 315.625 320.143 348.916C320.143 382.207 350.077 409.196 387.003 409.196Z" stroke="#4A4A4A" stroke-width="2.01079" stroke-miterlimit="10"/>
<path opacity="0.8" d="M439.952 352.754C442.279 326.411 420.479 303.354 391.259 301.255C362.04 299.157 336.466 318.812 334.138 345.155C331.811 371.499 353.611 394.556 382.831 396.654C412.05 398.753 437.624 379.098 439.952 352.754Z" stroke="#4A4A4A" stroke-width="2.12124" stroke-miterlimit="10"/>
</g>
</svg>
