<svg width="80" height="80" viewBox="0 0 80 80" fill="none" xmlns="http://www.w3.org/2000/svg">
<path d="M40 0C17.9427 0 0 17.9444 0 40C0 62.0556 17.9427 80 40 80C62.0573 80 80 62.0556 80 40C80 17.9444 62.0573 0 40 0ZM40 76.6667C19.7819 76.6667 3.33328 60.2181 3.33328 40C3.33328 19.7819 19.7819 3.33328 40 3.33328C60.2181 3.33328 76.6667 19.7819 76.6667 40C76.6667 60.2181 60.2181 76.6667 40 76.6667Z" fill="white"/>
<path d="M55.9017 38.5986L32.5684 23.5986C32.0573 23.265 31.3966 23.2471 30.8692 23.5368C30.332 23.8297 30 24.3897 30 25V55C30 55.6104 30.332 56.1704 30.8692 56.4633C31.1166 56.5985 31.3933 56.6668 31.6667 56.6668C31.9792 56.6668 32.295 56.5788 32.5684 56.4014L55.9017 41.4014C56.377 41.0955 56.6667 40.5664 56.6667 40C56.6667 39.4336 56.377 38.9047 55.9017 38.5986ZM33.3333 51.9466V28.0535L51.9173 40L33.3333 51.9466Z" fill="white"/>
</svg>
