<svg width="619" height="662" viewBox="0 0 619 662" fill="none" xmlns="http://www.w3.org/2000/svg">
<path d="M36.7571 2.27948L0.804917 57.7182C0.279562 58.5283 0 59.4732 0 60.4387V113.14V657C0 659.761 2.23858 662 5 662H197.597H576.746H614C616.761 662 619 659.761 619 657V214.741V139.545V64.3484V5C619 2.23859 616.761 0 614 0H197.597H40.9522C39.258 0 37.679 0.857971 36.7571 2.27948Z" fill="black"/>
<path d="M46.3603 13.8221L11.6449 67.3027C11.224 67.951 11 68.7075 11 69.4805V120.38V646C11 648.209 12.7909 650 15 650H201.212H568.111H604C606.209 650 608 648.209 608 646V218.605V145.907V73.21V16C608 13.7909 606.209 12 604 12H201.212H49.7154C48.3606 12 47.0979 12.6857 46.3603 13.8221Z" stroke="#B10E04" stroke-width="2"/>
</svg>
