<svg width="320" height="510" viewBox="0 0 320 510" fill="none" xmlns="http://www.w3.org/2000/svg">
<path d="M41.0376 1.56732L1.86452 43.0549C0.988187 43.983 0.5 45.2111 0.5 46.4875V105V505C0.5 507.761 2.73858 510 5.5 510H161.5H315C317.761 510 320 507.761 320 505V335.5V195.358V125.5V61.5V5C320 2.23859 317.761 0 315 0H190.551H44.6731C43.2973 0 41.9822 0.566956 41.0376 1.56732Z" fill="black"/>
<path d="M48.2517 13.716L10.1212 53.2415C9.40195 53.9871 9 54.9827 9 56.0186V119V493.5C9 495.709 10.7909 497.5 13 497.5H306.5C308.709 497.5 310.5 495.709 310.5 493.5V275V154V78V23V16C310.5 13.7909 308.709 12 306.5 12H204.215H204.212L51.1176 12.4932C50.0363 12.4966 49.0024 12.9378 48.2517 13.716Z" stroke="#B10E04" stroke-width="2"/>
</svg>
