<svg width="591" height="547" viewBox="0 0 591 547" fill="none" xmlns="http://www.w3.org/2000/svg">
<g opacity="0.8">
<g filter="url(#filter0_f)">
<ellipse cx="295.573" cy="273.553" rx="94.7308" ry="73.1638" fill="white" fill-opacity="0.6"/>
</g>
<path opacity="0.8" d="M400.952 368.757C459.302 316.15 459.302 230.859 400.952 178.252C342.603 125.646 248 125.646 189.651 178.252C131.301 230.859 131.301 316.15 189.651 368.757C248 421.363 342.603 421.363 400.952 368.757Z" stroke="#4A4A4A" stroke-width="0.35354" stroke-miterlimit="10"/>
<path opacity="0.8" d="M395.63 363.959C451.041 314.002 451.041 233.007 395.63 183.05C340.22 133.093 250.382 133.093 194.972 183.05C139.561 233.007 139.562 314.002 194.972 363.959C250.382 413.915 340.22 413.915 395.63 363.959Z" stroke="#4A4A4A" stroke-width="0.463986" stroke-miterlimit="10"/>
<path opacity="0.8" d="M295.303 394.636C369.504 394.636 429.655 340.405 429.655 273.508C429.655 206.61 369.504 152.379 295.303 152.379C221.103 152.379 160.951 206.61 160.951 273.508C160.951 340.405 221.103 394.636 295.303 394.636Z" stroke="#4A4A4A" stroke-width="0.574502" stroke-miterlimit="10"/>
<path opacity="0.8" d="M295.305 387.851C365.349 387.851 422.131 336.658 422.131 273.508C422.131 210.358 365.349 159.165 295.305 159.165C225.26 159.165 168.479 210.358 168.479 273.508C168.479 336.658 225.26 387.851 295.305 387.851Z" stroke="#4A4A4A" stroke-width="0.685019" stroke-miterlimit="10"/>
<path opacity="0.8" d="M379.657 349.559C426.247 307.555 426.247 239.454 379.658 197.45C333.068 155.446 257.532 155.446 210.943 197.45C164.354 239.454 164.354 307.555 210.943 349.559C257.532 391.563 333.068 391.563 379.657 349.559Z" stroke="#4A4A4A" stroke-width="0.795465" stroke-miterlimit="10"/>
<path opacity="0.8" d="M374.336 344.761C417.986 305.407 417.986 241.602 374.336 202.248C330.685 162.894 259.914 162.894 216.264 202.248C172.614 241.602 172.614 305.407 216.264 344.761C259.914 384.115 330.685 384.115 374.336 344.761Z" stroke="#4A4A4A" stroke-width="0.90591" stroke-miterlimit="10"/>
<path opacity="0.8" d="M369.017 339.963C409.729 303.259 409.729 243.75 369.018 207.045C328.306 170.341 262.3 170.341 221.589 207.045C180.878 243.75 180.878 303.259 221.589 339.963C262.3 376.668 328.306 376.668 369.017 339.963Z" stroke="#4A4A4A" stroke-width="1.01643" stroke-miterlimit="10"/>
<path opacity="0.8" d="M363.694 335.166C401.466 301.111 401.466 245.898 363.694 211.843C325.921 177.789 264.681 177.789 226.908 211.843C189.136 245.898 189.136 301.111 226.908 335.166C264.681 369.22 325.921 369.22 363.694 335.166Z" stroke="#4A4A4A" stroke-width="1.12694" stroke-miterlimit="10"/>
<path opacity="0.8" d="M383.378 286.334C391.226 242.489 358.163 201.21 309.532 194.135C260.9 187.06 215.115 216.868 207.268 260.713C199.42 304.558 232.482 345.837 281.114 352.912C329.745 359.987 375.531 330.179 383.378 286.334Z" stroke="#4A4A4A" stroke-width="1.23739" stroke-miterlimit="10"/>
<path opacity="0.8" d="M295.302 347.141C340.408 347.141 376.973 314.174 376.973 273.508C376.973 232.842 340.408 199.875 295.302 199.875C250.196 199.875 213.631 232.842 213.631 273.508C213.631 314.174 250.196 347.141 295.302 347.141Z" stroke="#4A4A4A" stroke-width="1.34784" stroke-miterlimit="10"/>
<path opacity="0.8" d="M347.73 320.772C376.685 294.667 376.685 252.342 347.73 226.236C318.774 200.131 271.829 200.131 242.873 226.236C213.918 252.342 213.918 294.667 242.873 320.772C271.829 346.878 318.774 346.878 347.73 320.772Z" stroke="#4A4A4A" stroke-width="1.45835" stroke-miterlimit="10"/>
<path opacity="0.8" d="M342.399 315.968C368.411 292.516 368.411 254.493 342.399 231.041C316.387 207.589 274.213 207.589 248.201 231.041C222.189 254.493 222.189 292.516 248.201 315.968C274.213 339.42 316.387 339.42 342.399 315.968Z" stroke="#4A4A4A" stroke-width="1.56887" stroke-miterlimit="10"/>
<path opacity="0.8" d="M337.077 311.17C360.15 290.368 360.15 256.641 337.077 235.839C314.004 215.037 276.595 215.037 253.522 235.839C230.449 256.641 230.449 290.368 253.522 311.17C276.595 331.972 314.004 331.972 337.077 311.17Z" stroke="#4A4A4A" stroke-width="1.67931" stroke-miterlimit="10"/>
<path opacity="0.8" d="M331.757 306.372C351.891 288.22 351.891 258.789 331.757 240.636C311.623 222.484 278.979 222.484 258.845 240.636C238.711 258.789 238.711 288.22 258.845 306.372C278.979 324.525 311.623 324.525 331.757 306.372Z" stroke="#4A4A4A" stroke-width="1.78976" stroke-miterlimit="10"/>
<path opacity="0.8" d="M339.016 278.15C341.866 256.377 324.599 236.644 300.449 234.074C276.299 231.505 254.411 247.072 251.561 268.845C248.711 290.618 265.978 310.352 290.128 312.922C314.278 315.491 336.166 299.924 339.016 278.15Z" stroke="#4A4A4A" stroke-width="1.90028" stroke-miterlimit="10"/>
<path opacity="0.8" d="M295.302 306.42C315.464 306.42 331.808 291.685 331.808 273.508C331.808 255.331 315.464 240.595 295.302 240.595C275.141 240.595 258.797 255.331 258.797 273.508C258.797 291.685 275.141 306.42 295.302 306.42Z" stroke="#4A4A4A" stroke-width="2.01079" stroke-miterlimit="10"/>
<path opacity="0.8" d="M324.214 275.604C325.484 261.22 313.581 248.631 297.628 247.485C281.674 246.34 267.71 257.071 266.44 271.455C265.169 285.838 277.072 298.427 293.026 299.573C308.98 300.719 322.943 289.987 324.214 275.604Z" stroke="#4A4A4A" stroke-width="2.12124" stroke-miterlimit="10"/>
</g>
<defs>
<filter id="filter0_f" x="0.841797" y="0.389648" width="589.462" height="546.328" filterUnits="userSpaceOnUse" color-interpolation-filters="sRGB">
<feFlood flood-opacity="0" result="BackgroundImageFix"/>
<feBlend mode="normal" in="SourceGraphic" in2="BackgroundImageFix" result="shape"/>
<feGaussianBlur stdDeviation="100" result="effect1_foregroundBlur"/>
</filter>
</defs>
</svg>
