<svg width="464" height="712" viewBox="0 0 464 712" fill="none" xmlns="http://www.w3.org/2000/svg">
<g opacity="0.8">
<path opacity="0.8" d="M270.5 523.365C377.367 427.016 377.367 270.804 270.5 174.455C163.633 78.1063 -9.63294 78.1063 -116.5 174.455C-223.367 270.804 -223.367 427.016 -116.5 523.365C-9.63292 619.714 163.633 619.714 270.5 523.365Z" stroke="#4A4A4A" stroke-width="0.35354" stroke-miterlimit="10"/>
<path opacity="0.8" d="M260.753 514.578C362.237 423.082 362.237 274.738 260.753 183.242C159.269 91.7464 -5.26991 91.7464 -106.754 183.242C-208.239 274.738 -208.239 423.082 -106.754 514.578C-5.26991 606.074 159.269 606.074 260.753 514.578Z" stroke="#4A4A4A" stroke-width="0.463986" stroke-miterlimit="10"/>
<path opacity="0.8" d="M77.0019 570.764C212.901 570.764 323.068 471.44 323.068 348.916C323.068 226.393 212.901 127.069 77.0019 127.069C-58.8968 127.069 -169.064 226.393 -169.064 348.916C-169.064 471.44 -58.8968 570.764 77.0019 570.764Z" stroke="#4A4A4A" stroke-width="0.574502" stroke-miterlimit="10"/>
<path opacity="0.8" d="M77.0034 558.337C205.29 558.337 309.286 464.576 309.286 348.917C309.286 233.257 205.29 139.496 77.0034 139.496C-51.2828 139.496 -155.279 233.257 -155.279 348.917C-155.279 464.576 -51.2828 558.337 77.0034 558.337Z" stroke="#4A4A4A" stroke-width="0.685019" stroke-miterlimit="10"/>
<path opacity="0.8" d="M231.5 488.204C316.829 411.274 316.829 286.546 231.5 209.616C146.172 132.686 7.82718 132.686 -77.5012 209.616C-162.83 286.546 -162.83 411.274 -77.5012 488.204C7.82718 565.134 146.172 565.134 231.5 488.204Z" stroke="#4A4A4A" stroke-width="0.795465" stroke-miterlimit="10"/>
<path opacity="0.8" d="M221.755 479.417C301.701 407.34 301.701 290.48 221.755 218.403C141.81 146.326 12.1921 146.326 -67.7535 218.403C-147.699 290.48 -147.699 407.34 -67.7535 479.417C12.1921 551.494 141.81 551.494 221.755 479.417Z" stroke="#4A4A4A" stroke-width="0.90591" stroke-miterlimit="10"/>
<path opacity="0.8" d="M212.008 470.63C286.571 403.406 286.571 294.414 212.008 227.19C137.445 159.966 16.5551 159.966 -58.0077 227.19C-132.571 294.414 -132.57 403.406 -58.0076 470.63C16.5552 537.854 137.445 537.854 212.008 470.63Z" stroke="#4A4A4A" stroke-width="1.01643" stroke-miterlimit="10"/>
<path opacity="0.8" d="M202.261 461.843C271.441 399.472 271.441 298.348 202.261 235.977C133.081 173.606 20.9183 173.606 -48.2618 235.977C-117.442 298.348 -117.442 399.472 -48.2618 461.843C20.9183 524.214 133.081 524.214 202.261 461.843Z" stroke="#4A4A4A" stroke-width="1.12694" stroke-miterlimit="10"/>
<path opacity="0.8" d="M238.312 372.407C252.684 292.105 192.131 216.502 103.062 203.544C13.9929 190.586 -69.8631 245.179 -84.2358 325.482C-98.6084 405.784 -38.0551 481.387 51.0139 494.345C140.083 507.303 223.939 452.71 238.312 372.407Z" stroke="#4A4A4A" stroke-width="1.23739" stroke-miterlimit="10"/>
<path opacity="0.8" d="M77.003 483.776C159.614 483.776 226.584 423.397 226.584 348.917C226.584 274.436 159.614 214.058 77.003 214.058C-5.60838 214.058 -72.5781 274.436 -72.5781 348.917C-72.5781 423.397 -5.60838 483.776 77.003 483.776Z" stroke="#4A4A4A" stroke-width="1.34784" stroke-miterlimit="10"/>
<path opacity="0.8" d="M173.022 435.482C226.054 387.67 226.054 310.151 173.022 262.339C119.991 214.526 34.0092 214.526 -19.0225 262.339C-72.0542 310.151 -72.0542 387.67 -19.0225 435.482C34.0092 483.294 119.991 483.294 173.022 435.482Z" stroke="#4A4A4A" stroke-width="1.45835" stroke-miterlimit="10"/>
<path opacity="0.8" d="M163.262 426.682C210.903 383.73 210.903 314.09 163.262 271.138C115.62 228.186 38.3783 228.186 -9.26306 271.138C-56.9044 314.09 -56.9044 383.73 -9.26304 426.682C38.3783 469.635 115.62 469.635 163.262 426.682Z" stroke="#4A4A4A" stroke-width="1.56887" stroke-miterlimit="10"/>
<path opacity="0.8" d="M153.517 417.895C195.775 379.796 195.775 318.025 153.517 279.925C111.258 241.826 42.7433 241.826 0.484689 279.925C-41.7739 318.025 -41.7739 379.796 0.484723 417.895C42.7433 455.994 111.258 455.994 153.517 417.895Z" stroke="#4A4A4A" stroke-width="1.67931" stroke-miterlimit="10"/>
<path opacity="0.8" d="M143.77 409.108C180.645 375.862 180.645 321.959 143.77 288.712C106.894 255.466 47.1063 255.466 10.2305 288.712C-26.6453 321.959 -26.6453 375.862 10.2305 409.108C47.1063 442.354 106.894 442.354 143.77 409.108Z" stroke="#4A4A4A" stroke-width="1.78976" stroke-miterlimit="10"/>
<path opacity="0.8" d="M157.066 357.419C162.285 317.542 130.661 281.399 86.4297 276.693C42.1987 271.987 2.11076 300.499 -3.10912 340.377C-8.329 380.254 23.2958 416.397 67.5268 421.103C111.758 425.809 151.846 397.297 157.066 357.419Z" stroke="#4A4A4A" stroke-width="1.90028" stroke-miterlimit="10"/>
<path opacity="0.8" d="M77.0027 409.196C113.929 409.196 143.863 382.207 143.863 348.916C143.863 315.625 113.929 288.636 77.0027 288.636C40.0769 288.636 10.1426 315.625 10.1426 348.916C10.1426 382.207 40.0769 409.196 77.0027 409.196Z" stroke="#4A4A4A" stroke-width="2.01079" stroke-miterlimit="10"/>
<path opacity="0.8" d="M129.952 352.755C132.279 326.411 110.479 303.354 81.2591 301.256C52.0395 299.157 26.4656 318.812 24.1381 345.156C21.8106 371.499 43.611 394.556 72.8305 396.654C102.05 398.753 127.624 379.098 129.952 352.755Z" stroke="#4A4A4A" stroke-width="2.12124" stroke-miterlimit="10"/>
</g>
<g filter="url(#filter0_f)">
<ellipse cx="47.5" cy="378" rx="173.5" ry="134" fill="white" fill-opacity="0.6"/>
</g>
<defs>
<filter id="filter0_f" x="-326" y="44" width="747" height="668" filterUnits="userSpaceOnUse" color-interpolation-filters="sRGB">
<feFlood flood-opacity="0" result="BackgroundImageFix"/>
<feBlend mode="normal" in="SourceGraphic" in2="BackgroundImageFix" result="shape"/>
<feGaussianBlur stdDeviation="100" result="effect1_foregroundBlur"/>
</filter>
</defs>
</svg>
