<svg width="1330" height="312" viewBox="0 0 1330 312" fill="none" xmlns="http://www.w3.org/2000/svg">
<g filter="url(#filter0_bd)">
<path d="M156.109 207.995L71.6413 113.265C70.9062 112.44 70.5 111.374 70.5 110.27V43C70.5 40.5147 72.5147 38.5 75 38.5H449.541H623.389H1259.5C1261.99 38.5 1264 40.5147 1264 43V112.175V205C1264 207.485 1261.99 209.5 1259.5 209.5H687.614H159.468C158.185 209.5 156.963 208.952 156.109 207.995Z" stroke="#3F3D3D"/>
</g>
<path d="M223.064 118L223.028 102.916L215.612 115.336H213.02L205.604 103.204V118H200.132V92.8H204.956L214.388 108.46L223.676 92.8H228.5L228.536 118H223.064ZM253.192 108.388C253.192 108.46 253.156 108.964 253.084 109.9H238.432C238.696 111.1 239.32 112.048 240.304 112.744C241.288 113.44 242.512 113.788 243.976 113.788C244.984 113.788 245.872 113.644 246.64 113.356C247.432 113.044 248.164 112.564 248.836 111.916L251.824 115.156C250 117.244 247.336 118.288 243.832 118.288C241.648 118.288 239.716 117.868 238.036 117.028C236.356 116.164 235.06 114.976 234.148 113.464C233.236 111.952 232.78 110.236 232.78 108.316C232.78 106.42 233.224 104.716 234.112 103.204C235.024 101.668 236.26 100.48 237.82 99.64C239.404 98.776 241.168 98.344 243.112 98.344C245.008 98.344 246.724 98.752 248.26 99.568C249.796 100.384 250.996 101.56 251.86 103.096C252.748 104.608 253.192 106.372 253.192 108.388ZM243.148 102.592C241.876 102.592 240.808 102.952 239.944 103.672C239.08 104.392 238.552 105.376 238.36 106.624H247.9C247.708 105.4 247.18 104.428 246.316 103.708C245.452 102.964 244.396 102.592 243.148 102.592ZM274.921 98.632V118H269.305V110.8C267.673 111.616 265.873 112.024 263.905 112.024C261.289 112.024 259.309 111.436 257.965 110.26C256.645 109.06 255.985 107.212 255.985 104.716V98.632H261.601V104.356C261.601 105.532 261.901 106.384 262.501 106.912C263.125 107.44 264.013 107.704 265.165 107.704C266.629 107.704 268.009 107.392 269.305 106.768V98.632H274.921ZM296.585 103.24H290.033V118H284.453V103.24H277.901V98.632H296.585V103.24ZM307.103 98.344C310.103 98.344 312.407 99.064 314.015 100.504C315.623 101.92 316.427 104.068 316.427 106.948V118H311.171V115.588C310.115 117.388 308.147 118.288 305.267 118.288C303.779 118.288 302.483 118.036 301.379 117.532C300.299 117.028 299.471 116.332 298.895 115.444C298.319 114.556 298.031 113.548 298.031 112.42C298.031 110.62 298.703 109.204 300.047 108.172C301.415 107.14 303.515 106.624 306.347 106.624H310.811C310.811 105.4 310.439 104.464 309.695 103.816C308.951 103.144 307.835 102.808 306.347 102.808C305.315 102.808 304.295 102.976 303.287 103.312C302.303 103.624 301.463 104.056 300.767 104.608L298.751 100.684C299.807 99.94 301.067 99.364 302.531 98.956C304.019 98.548 305.543 98.344 307.103 98.344ZM306.671 114.508C307.631 114.508 308.483 114.292 309.227 113.86C309.971 113.404 310.499 112.744 310.811 111.88V109.9H306.959C304.655 109.9 303.503 110.656 303.503 112.168C303.503 112.888 303.779 113.464 304.331 113.896C304.907 114.304 305.687 114.508 306.671 114.508ZM340.133 108.388C340.133 108.46 340.097 108.964 340.025 109.9H325.373C325.637 111.1 326.261 112.048 327.245 112.744C328.229 113.44 329.453 113.788 330.917 113.788C331.925 113.788 332.813 113.644 333.581 113.356C334.373 113.044 335.105 112.564 335.777 111.916L338.765 115.156C336.941 117.244 334.277 118.288 330.773 118.288C328.589 118.288 326.657 117.868 324.977 117.028C323.297 116.164 322.001 114.976 321.089 113.464C320.177 111.952 319.721 110.236 319.721 108.316C319.721 106.42 320.165 104.716 321.053 103.204C321.965 101.668 323.201 100.48 324.761 99.64C326.345 98.776 328.109 98.344 330.053 98.344C331.949 98.344 333.665 98.752 335.201 99.568C336.737 100.384 337.937 101.56 338.801 103.096C339.689 104.608 340.133 106.372 340.133 108.388ZM330.089 102.592C328.817 102.592 327.749 102.952 326.885 103.672C326.021 104.392 325.493 105.376 325.301 106.624H334.841C334.649 105.4 334.121 104.428 333.257 103.708C332.393 102.964 331.337 102.592 330.089 102.592ZM373.994 98.632V118H344.438V98.632H350.018V113.392H356.462V98.632H362.042V113.392H368.414V98.632H373.994ZM389.86 104.824C392.38 104.848 394.312 105.424 395.656 106.552C397 107.656 397.672 109.228 397.672 111.268C397.672 113.404 396.916 115.072 395.404 116.272C393.916 117.448 391.816 118.036 389.104 118.036L379.384 118V98.632H384.964V104.824H389.86ZM388.6 114.04C389.68 114.064 390.508 113.836 391.084 113.356C391.66 112.876 391.948 112.156 391.948 111.196C391.948 110.26 391.66 109.576 391.084 109.144C390.532 108.712 389.704 108.484 388.6 108.46L384.964 108.424V114.04H388.6ZM420.448 118.288C418.408 118.288 416.572 117.868 414.94 117.028C413.332 116.164 412.072 114.976 411.16 113.464C410.248 111.952 409.792 110.236 409.792 108.316C409.792 106.396 410.248 104.68 411.16 103.168C412.072 101.656 413.332 100.48 414.94 99.64C416.572 98.776 418.408 98.344 420.448 98.344C422.488 98.344 424.312 98.776 425.92 99.64C427.528 100.48 428.788 101.656 429.7 103.168C430.612 104.68 431.068 106.396 431.068 108.316C431.068 110.236 430.612 111.952 429.7 113.464C428.788 114.976 427.528 116.164 425.92 117.028C424.312 117.868 422.488 118.288 420.448 118.288ZM420.448 113.68C421.888 113.68 423.064 113.2 423.976 112.24C424.912 111.256 425.38 109.948 425.38 108.316C425.38 106.684 424.912 105.388 423.976 104.428C423.064 103.444 421.888 102.952 420.448 102.952C419.008 102.952 417.82 103.444 416.884 104.428C415.948 105.388 415.48 106.684 415.48 108.316C415.48 109.948 415.948 111.256 416.884 112.24C417.82 113.2 419.008 113.68 420.448 113.68ZM446.126 99.964C447.974 99.964 449.594 100.348 450.986 101.116C452.378 101.86 453.446 102.916 454.19 104.284C454.958 105.652 455.342 107.236 455.342 109.036C455.342 110.884 454.886 112.528 453.974 113.968C453.086 115.384 451.838 116.488 450.23 117.28C448.622 118.048 446.798 118.432 444.758 118.432C441.374 118.432 438.71 117.352 436.766 115.192C434.846 113.008 433.886 109.816 433.886 105.616C433.886 101.728 434.726 98.632 436.406 96.328C438.11 94 440.714 92.476 444.218 91.756L453.434 89.92L454.19 94.744L446.054 96.364C443.846 96.796 442.202 97.516 441.122 98.524C440.066 99.532 439.442 100.96 439.25 102.808C440.09 101.896 441.098 101.2 442.274 100.72C443.45 100.216 444.734 99.964 446.126 99.964ZM444.794 114.076C446.234 114.076 447.386 113.608 448.25 112.672C449.138 111.736 449.582 110.548 449.582 109.108C449.582 107.644 449.138 106.48 448.25 105.616C447.386 104.752 446.234 104.32 444.794 104.32C443.33 104.32 442.154 104.752 441.266 105.616C440.378 106.48 439.934 107.644 439.934 109.108C439.934 110.572 440.39 111.772 441.302 112.708C442.214 113.62 443.378 114.076 444.794 114.076ZM469.348 98.632H474.928V110.152L484.36 98.632H489.508V118H483.928V106.48L474.532 118H469.348V98.632ZM510.423 103.24H500.487V118H494.907V98.632H510.423V103.24ZM524.811 98.344C526.611 98.344 528.243 98.764 529.707 99.604C531.195 100.42 532.359 101.584 533.199 103.096C534.039 104.584 534.459 106.324 534.459 108.316C534.459 110.308 534.039 112.06 533.199 113.572C532.359 115.06 531.195 116.224 529.707 117.064C528.243 117.88 526.611 118.288 524.811 118.288C522.339 118.288 520.395 117.508 518.979 115.948V124.984H513.363V98.632H518.727V100.864C520.119 99.184 522.147 98.344 524.811 98.344ZM523.839 113.68C525.279 113.68 526.455 113.2 527.367 112.24C528.303 111.256 528.771 109.948 528.771 108.316C528.771 106.684 528.303 105.388 527.367 104.428C526.455 103.444 525.279 102.952 523.839 102.952C522.399 102.952 521.211 103.444 520.275 104.428C519.363 105.388 518.907 106.684 518.907 108.316C518.907 109.948 519.363 111.256 520.275 112.24C521.211 113.2 522.399 113.68 523.839 113.68ZM545.603 98.344C548.603 98.344 550.907 99.064 552.515 100.504C554.123 101.92 554.927 104.068 554.927 106.948V118H549.671V115.588C548.615 117.388 546.647 118.288 543.767 118.288C542.279 118.288 540.983 118.036 539.879 117.532C538.799 117.028 537.971 116.332 537.395 115.444C536.819 114.556 536.531 113.548 536.531 112.42C536.531 110.62 537.203 109.204 538.547 108.172C539.915 107.14 542.015 106.624 544.847 106.624H549.311C549.311 105.4 548.939 104.464 548.195 103.816C547.451 103.144 546.335 102.808 544.847 102.808C543.815 102.808 542.795 102.976 541.787 103.312C540.803 103.624 539.963 104.056 539.267 104.608L537.251 100.684C538.307 99.94 539.567 99.364 541.031 98.956C542.519 98.548 544.043 98.344 545.603 98.344ZM545.171 114.508C546.131 114.508 546.983 114.292 547.727 113.86C548.471 113.404 548.999 112.744 549.311 111.88V109.9H545.459C543.155 109.9 542.003 110.656 542.003 112.168C542.003 112.888 542.279 113.464 542.831 113.896C543.407 114.304 544.187 114.508 545.171 114.508ZM571.973 118L567.725 112.06L563.333 118H557.213L564.665 108.244L557.465 98.632H563.765L567.869 104.284L572.081 98.632H578.057L570.857 108.1L578.345 118H571.973ZM586.925 109.252C586.925 108.004 587.201 106.972 587.753 106.156C588.329 105.34 589.157 104.44 590.237 103.456C591.029 102.736 591.605 102.136 591.965 101.656C592.349 101.152 592.541 100.588 592.541 99.964C592.541 99.076 592.181 98.38 591.461 97.876C590.765 97.348 589.829 97.084 588.653 97.084C587.525 97.084 586.517 97.324 585.629 97.804C584.765 98.26 584.033 98.908 583.433 99.748L579.077 97.192C580.085 95.656 581.441 94.468 583.145 93.628C584.873 92.788 586.913 92.368 589.265 92.368C592.025 92.368 594.233 92.956 595.889 94.132C597.569 95.308 598.409 96.94 598.409 99.028C598.409 100.012 598.241 100.876 597.905 101.62C597.593 102.364 597.197 103 596.717 103.528C596.261 104.032 595.661 104.62 594.917 105.292C594.029 106.084 593.381 106.756 592.973 107.308C592.565 107.836 592.361 108.484 592.361 109.252H586.925ZM589.661 118.288C588.677 118.288 587.849 117.976 587.177 117.352C586.529 116.704 586.205 115.924 586.205 115.012C586.205 114.1 586.529 113.344 587.177 112.744C587.825 112.12 588.653 111.808 589.661 111.808C590.669 111.808 591.497 112.12 592.145 112.744C592.793 113.344 593.117 114.1 593.117 115.012C593.117 115.924 592.781 116.704 592.109 117.352C591.461 117.976 590.645 118.288 589.661 118.288ZM212.048 155.432C209.48 155.432 207.152 154.88 205.064 153.776C203 152.648 201.368 151.1 200.168 149.132C198.992 147.14 198.404 144.896 198.404 142.4C198.404 139.904 198.992 137.672 200.168 135.704C201.368 133.712 203 132.164 205.064 131.06C207.152 129.932 209.492 129.368 212.084 129.368C214.268 129.368 216.236 129.752 217.988 130.52C219.764 131.288 221.252 132.392 222.452 133.832L218.708 137.288C217.004 135.32 214.892 134.336 212.372 134.336C210.812 134.336 209.42 134.684 208.196 135.38C206.972 136.052 206.012 137 205.316 138.224C204.644 139.448 204.308 140.84 204.308 142.4C204.308 143.96 204.644 145.352 205.316 146.576C206.012 147.8 206.972 148.76 208.196 149.456C209.42 150.128 210.812 150.464 212.372 150.464C214.892 150.464 217.004 149.468 218.708 147.476L222.452 150.932C221.252 152.396 219.764 153.512 217.988 154.28C216.212 155.048 214.232 155.432 212.048 155.432ZM234.225 155.288C232.185 155.288 230.349 154.868 228.717 154.028C227.109 153.164 225.849 151.976 224.937 150.464C224.025 148.952 223.569 147.236 223.569 145.316C223.569 143.396 224.025 141.68 224.937 140.168C225.849 138.656 227.109 137.48 228.717 136.64C230.349 135.776 232.185 135.344 234.225 135.344C236.265 135.344 238.089 135.776 239.697 136.64C241.305 137.48 242.565 138.656 243.477 140.168C244.389 141.68 244.845 143.396 244.845 145.316C244.845 147.236 244.389 148.952 243.477 150.464C242.565 151.976 241.305 153.164 239.697 154.028C238.089 154.868 236.265 155.288 234.225 155.288ZM234.225 150.68C235.665 150.68 236.841 150.2 237.753 149.24C238.689 148.256 239.157 146.948 239.157 145.316C239.157 143.684 238.689 142.388 237.753 141.428C236.841 140.444 235.665 139.952 234.225 139.952C232.785 139.952 231.597 140.444 230.661 141.428C229.725 142.388 229.257 143.684 229.257 145.316C229.257 146.948 229.725 148.256 230.661 149.24C231.597 150.2 232.785 150.68 234.225 150.68ZM260.92 144.92C262.072 145.28 262.96 145.832 263.584 146.576C264.232 147.32 264.556 148.208 264.556 149.24C264.556 150.464 264.136 151.544 263.296 152.48C262.456 153.392 261.304 154.1 259.84 154.604C258.376 155.108 256.72 155.36 254.872 155.36C253.36 155.36 251.872 155.204 250.408 154.892C248.944 154.58 247.588 154.112 246.34 153.488L247.852 149.564C249.892 150.548 252.148 151.04 254.62 151.04C255.94 151.04 256.972 150.848 257.716 150.464C258.484 150.056 258.868 149.492 258.868 148.772C258.868 148.148 258.604 147.68 258.076 147.368C257.548 147.032 256.78 146.864 255.772 146.864H251.812V143.372H255.268C256.252 143.372 257.008 143.216 257.536 142.904C258.064 142.592 258.328 142.136 258.328 141.536C258.328 140.912 257.992 140.432 257.32 140.096C256.672 139.76 255.736 139.592 254.512 139.592C252.64 139.592 250.6 140.036 248.392 140.924L247.024 137.036C249.712 135.86 252.328 135.272 254.872 135.272C256.624 135.272 258.184 135.488 259.552 135.92C260.944 136.352 262.036 136.988 262.828 137.828C263.62 138.644 264.016 139.604 264.016 140.708C264.016 141.62 263.74 142.448 263.188 143.192C262.636 143.912 261.88 144.488 260.92 144.92ZM290.349 150.392V159.176H285.129V155H271.521V159.176H266.301V150.392H267.093C268.293 150.368 269.121 149.66 269.577 148.268C270.033 146.876 270.321 144.896 270.441 142.328L270.693 135.632H287.577V150.392H290.349ZM275.517 142.724C275.445 144.692 275.289 146.3 275.049 147.548C274.833 148.796 274.413 149.744 273.789 150.392H281.961V140.24H275.625L275.517 142.724ZM301.408 135.344C304.408 135.344 306.712 136.064 308.32 137.504C309.928 138.92 310.732 141.068 310.732 143.948V155H305.476V152.588C304.42 154.388 302.452 155.288 299.572 155.288C298.084 155.288 296.788 155.036 295.684 154.532C294.604 154.028 293.776 153.332 293.2 152.444C292.624 151.556 292.336 150.548 292.336 149.42C292.336 147.62 293.008 146.204 294.352 145.172C295.72 144.14 297.82 143.624 300.652 143.624H305.116C305.116 142.4 304.744 141.464 304 140.816C303.256 140.144 302.14 139.808 300.652 139.808C299.62 139.808 298.6 139.976 297.592 140.312C296.608 140.624 295.768 141.056 295.072 141.608L293.056 137.684C294.112 136.94 295.372 136.364 296.836 135.956C298.324 135.548 299.848 135.344 301.408 135.344ZM300.976 151.508C301.936 151.508 302.788 151.292 303.532 150.86C304.276 150.404 304.804 149.744 305.116 148.88V146.9H301.264C298.96 146.9 297.808 147.656 297.808 149.168C297.808 149.888 298.084 150.464 298.636 150.896C299.212 151.304 299.992 151.508 300.976 151.508ZM330.406 144.884C332.686 145.652 333.826 147.188 333.826 149.492C333.826 151.244 333.166 152.6 331.846 153.56C330.526 154.52 328.558 155 325.942 155H315.61V135.632H325.51C327.934 135.632 329.83 136.076 331.198 136.964C332.566 137.828 333.25 139.052 333.25 140.636C333.25 141.596 332.998 142.448 332.494 143.192C332.014 143.912 331.318 144.476 330.406 144.884ZM320.758 143.588H325.006C326.974 143.588 327.958 142.892 327.958 141.5C327.958 140.132 326.974 139.448 325.006 139.448H320.758V143.588ZM325.474 151.184C327.538 151.184 328.57 150.476 328.57 149.06C328.57 148.316 328.33 147.776 327.85 147.44C327.37 147.08 326.614 146.9 325.582 146.9H320.758V151.184H325.474ZM345.529 135.344C348.529 135.344 350.833 136.064 352.441 137.504C354.049 138.92 354.853 141.068 354.853 143.948V155H349.597V152.588C348.541 154.388 346.573 155.288 343.693 155.288C342.205 155.288 340.909 155.036 339.805 154.532C338.725 154.028 337.897 153.332 337.321 152.444C336.745 151.556 336.457 150.548 336.457 149.42C336.457 147.62 337.129 146.204 338.473 145.172C339.841 144.14 341.941 143.624 344.773 143.624H349.237C349.237 142.4 348.865 141.464 348.121 140.816C347.377 140.144 346.261 139.808 344.773 139.808C343.741 139.808 342.721 139.976 341.713 140.312C340.729 140.624 339.889 141.056 339.193 141.608L337.177 137.684C338.233 136.94 339.493 136.364 340.957 135.956C342.445 135.548 343.969 135.344 345.529 135.344ZM345.097 151.508C346.057 151.508 346.909 151.292 347.653 150.86C348.397 150.404 348.925 149.744 349.237 148.88V146.9H345.385C343.081 146.9 341.929 147.656 341.929 149.168C341.929 149.888 342.205 150.464 342.757 150.896C343.333 151.304 344.113 151.508 345.097 151.508ZM359.731 135.632H365.311V147.152L374.743 135.632H379.891V155H374.311V143.48L364.915 155H359.731V135.632ZM369.451 133.544C365.227 133.544 363.103 131.684 363.079 127.964H366.751C366.775 128.804 367.003 129.464 367.435 129.944C367.891 130.4 368.551 130.628 369.415 130.628C370.279 130.628 370.939 130.4 371.395 129.944C371.875 129.464 372.115 128.804 372.115 127.964H375.859C375.835 131.684 373.699 133.544 369.451 133.544ZM395.485 135.632H401.065V147.152L410.497 135.632H415.645V155H410.065V143.48L400.669 155H395.485V135.632ZM433.212 155L428.964 149.06L424.572 155H418.452L425.904 145.244L418.704 135.632H425.004L429.108 141.284L433.32 135.632H439.296L432.096 145.1L439.584 155H433.212ZM441.52 129.8H448.216L447.1 146.252H442.636L441.52 129.8ZM444.868 155.288C443.884 155.288 443.056 154.976 442.384 154.352C441.736 153.704 441.412 152.924 441.412 152.012C441.412 151.1 441.736 150.344 442.384 149.744C443.032 149.12 443.86 148.808 444.868 148.808C445.876 148.808 446.704 149.12 447.352 149.744C448 150.344 448.324 151.1 448.324 152.012C448.324 152.924 447.988 153.704 447.316 154.352C446.668 154.976 445.852 155.288 444.868 155.288Z" fill="white"/>
<path d="M726.872 71.2V88H725.12V80.248H714.608V88H712.832V71.2H714.608V78.688H725.12V71.2H726.872ZM736.479 75.28C738.127 75.28 739.391 75.696 740.271 76.528C741.151 77.344 741.591 78.56 741.591 80.176V88H739.959V86.032C739.575 86.688 739.007 87.2 738.255 87.568C737.519 87.936 736.639 88.12 735.615 88.12C734.207 88.12 733.087 87.784 732.255 87.112C731.423 86.44 731.007 85.552 731.007 84.448C731.007 83.376 731.391 82.512 732.159 81.856C732.943 81.2 734.183 80.872 735.879 80.872H739.887V80.104C739.887 79.016 739.583 78.192 738.975 77.632C738.367 77.056 737.479 76.768 736.311 76.768C735.511 76.768 734.743 76.904 734.007 77.176C733.271 77.432 732.639 77.792 732.111 78.256L731.343 76.984C731.983 76.44 732.751 76.024 733.647 75.736C734.543 75.432 735.487 75.28 736.479 75.28ZM735.879 86.776C736.839 86.776 737.663 86.56 738.351 86.128C739.039 85.68 739.551 85.04 739.887 84.208V82.144H735.927C733.767 82.144 732.687 82.896 732.687 84.4C732.687 85.136 732.967 85.72 733.527 86.152C734.087 86.568 734.871 86.776 735.879 86.776ZM763.736 75.376V88H762.032V76.888H754.112V88H752.408V75.376H763.736ZM775.084 75.28C776.268 75.28 777.34 75.552 778.3 76.096C779.26 76.624 780.012 77.376 780.556 78.352C781.1 79.328 781.372 80.44 781.372 81.688C781.372 82.952 781.1 84.072 780.556 85.048C780.012 86.024 779.26 86.784 778.3 87.328C777.356 87.856 776.284 88.12 775.084 88.12C774.06 88.12 773.132 87.912 772.3 87.496C771.484 87.064 770.812 86.44 770.284 85.624V92.656H768.58V75.376H770.212V77.872C770.724 77.04 771.396 76.4 772.228 75.952C773.076 75.504 774.028 75.28 775.084 75.28ZM774.964 86.608C775.844 86.608 776.644 86.408 777.364 86.008C778.084 85.592 778.644 85.008 779.044 84.256C779.46 83.504 779.668 82.648 779.668 81.688C779.668 80.728 779.46 79.88 779.044 79.144C778.644 78.392 778.084 77.808 777.364 77.392C776.644 76.976 775.844 76.768 774.964 76.768C774.068 76.768 773.26 76.976 772.54 77.392C771.836 77.808 771.276 78.392 770.86 79.144C770.46 79.88 770.26 80.728 770.26 81.688C770.26 82.648 770.46 83.504 770.86 84.256C771.276 85.008 771.836 85.592 772.54 86.008C773.26 86.408 774.068 86.608 774.964 86.608ZM790.241 88.12C789.025 88.12 787.929 87.848 786.953 87.304C785.977 86.744 785.209 85.976 784.649 85C784.089 84.024 783.809 82.92 783.809 81.688C783.809 80.456 784.089 79.352 784.649 78.376C785.209 77.4 785.977 76.64 786.953 76.096C787.929 75.552 789.025 75.28 790.241 75.28C791.457 75.28 792.553 75.552 793.529 76.096C794.505 76.64 795.265 77.4 795.809 78.376C796.369 79.352 796.649 80.456 796.649 81.688C796.649 82.92 796.369 84.024 795.809 85C795.265 85.976 794.505 86.744 793.529 87.304C792.553 87.848 791.457 88.12 790.241 88.12ZM790.241 86.608C791.137 86.608 791.937 86.408 792.641 86.008C793.361 85.592 793.921 85.008 794.321 84.256C794.721 83.504 794.921 82.648 794.921 81.688C794.921 80.728 794.721 79.872 794.321 79.12C793.921 78.368 793.361 77.792 792.641 77.392C791.937 76.976 791.137 76.768 790.241 76.768C789.345 76.768 788.537 76.976 787.817 77.392C787.113 77.792 786.553 78.368 786.137 79.12C785.737 79.872 785.537 80.728 785.537 81.688C785.537 82.648 785.737 83.504 786.137 84.256C786.553 85.008 787.113 85.592 787.817 86.008C788.537 86.408 789.345 86.608 790.241 86.608ZM809.219 76.888H801.995V88H800.291V75.376H809.219V76.888ZM818.186 75.28C819.37 75.28 820.442 75.552 821.402 76.096C822.362 76.624 823.114 77.376 823.658 78.352C824.202 79.328 824.474 80.44 824.474 81.688C824.474 82.952 824.202 84.072 823.658 85.048C823.114 86.024 822.362 86.784 821.402 87.328C820.458 87.856 819.386 88.12 818.186 88.12C817.162 88.12 816.234 87.912 815.402 87.496C814.586 87.064 813.914 86.44 813.386 85.624V92.656H811.682V75.376H813.314V77.872C813.826 77.04 814.498 76.4 815.33 75.952C816.178 75.504 817.13 75.28 818.186 75.28ZM818.066 86.608C818.946 86.608 819.746 86.408 820.466 86.008C821.186 85.592 821.746 85.008 822.146 84.256C822.562 83.504 822.77 82.648 822.77 81.688C822.77 80.728 822.562 79.88 822.146 79.144C821.746 78.392 821.186 77.808 820.466 77.392C819.746 76.976 818.946 76.768 818.066 76.768C817.17 76.768 816.362 76.976 815.642 77.392C814.938 77.808 814.378 78.392 813.962 79.144C813.562 79.88 813.362 80.728 813.362 81.688C813.362 82.648 813.562 83.504 813.962 84.256C814.378 85.008 814.938 85.592 815.642 86.008C816.362 86.408 817.17 86.608 818.066 86.608ZM832.409 75.28C834.057 75.28 835.321 75.696 836.201 76.528C837.081 77.344 837.521 78.56 837.521 80.176V88H835.889V86.032C835.505 86.688 834.937 87.2 834.185 87.568C833.449 87.936 832.569 88.12 831.545 88.12C830.137 88.12 829.017 87.784 828.185 87.112C827.353 86.44 826.937 85.552 826.937 84.448C826.937 83.376 827.321 82.512 828.089 81.856C828.873 81.2 830.113 80.872 831.809 80.872H835.817V80.104C835.817 79.016 835.513 78.192 834.905 77.632C834.297 77.056 833.409 76.768 832.241 76.768C831.441 76.768 830.673 76.904 829.937 77.176C829.201 77.432 828.569 77.792 828.041 78.256L827.273 76.984C827.913 76.44 828.681 76.024 829.577 75.736C830.473 75.432 831.417 75.28 832.409 75.28ZM831.809 86.776C832.769 86.776 833.593 86.56 834.281 86.128C834.969 85.68 835.481 85.04 835.817 84.208V82.144H831.857C829.697 82.144 828.617 82.896 828.617 84.4C828.617 85.136 828.897 85.72 829.457 86.152C830.017 86.568 830.801 86.776 831.809 86.776ZM856.169 75.376V88H854.609V78.016L849.497 86.464H848.729L843.617 77.992V88H842.057V75.376H843.785L849.137 84.472L854.585 75.376H856.169ZM875.13 75.376V88H873.57V78.016L868.458 86.464H867.69L862.578 77.992V88H861.018V75.376H862.746L868.098 84.472L873.546 75.376H875.13ZM891.019 82.216H880.459C880.555 83.528 881.059 84.592 881.971 85.408C882.883 86.208 884.035 86.608 885.427 86.608C886.211 86.608 886.931 86.472 887.587 86.2C888.243 85.912 888.811 85.496 889.291 84.952L890.251 86.056C889.691 86.728 888.987 87.24 888.139 87.592C887.307 87.944 886.387 88.12 885.379 88.12C884.083 88.12 882.931 87.848 881.923 87.304C880.931 86.744 880.155 85.976 879.595 85C879.035 84.024 878.755 82.92 878.755 81.688C878.755 80.456 879.019 79.352 879.547 78.376C880.091 77.4 880.827 76.64 881.755 76.096C882.699 75.552 883.755 75.28 884.923 75.28C886.091 75.28 887.139 75.552 888.067 76.096C888.995 76.64 889.723 77.4 890.251 78.376C890.779 79.336 891.043 80.44 891.043 81.688L891.019 82.216ZM884.923 76.744C883.707 76.744 882.683 77.136 881.851 77.92C881.035 78.688 880.571 79.696 880.459 80.944H889.411C889.299 79.696 888.827 78.688 887.995 77.92C887.179 77.136 886.155 76.744 884.923 76.744ZM906.376 88.12C905.128 88.12 904.008 87.848 903.016 87.304C902.04 86.76 901.272 86 900.712 85.024C900.152 84.032 899.872 82.92 899.872 81.688C899.872 80.456 900.152 79.352 900.712 78.376C901.272 77.4 902.04 76.64 903.016 76.096C904.008 75.552 905.128 75.28 906.376 75.28C907.464 75.28 908.432 75.496 909.28 75.928C910.144 76.344 910.824 76.96 911.32 77.776L910.048 78.64C909.632 78.016 909.104 77.552 908.464 77.248C907.824 76.928 907.128 76.768 906.376 76.768C905.464 76.768 904.64 76.976 903.904 77.392C903.184 77.792 902.616 78.368 902.2 79.12C901.8 79.872 901.6 80.728 901.6 81.688C901.6 82.664 901.8 83.528 902.2 84.28C902.616 85.016 903.184 85.592 903.904 86.008C904.64 86.408 905.464 86.608 906.376 86.608C907.128 86.608 907.824 86.456 908.464 86.152C909.104 85.848 909.632 85.384 910.048 84.76L911.32 85.624C910.824 86.44 910.144 87.064 909.28 87.496C908.416 87.912 907.448 88.12 906.376 88.12ZM919.616 88.12C918.4 88.12 917.304 87.848 916.328 87.304C915.352 86.744 914.584 85.976 914.024 85C913.464 84.024 913.184 82.92 913.184 81.688C913.184 80.456 913.464 79.352 914.024 78.376C914.584 77.4 915.352 76.64 916.328 76.096C917.304 75.552 918.4 75.28 919.616 75.28C920.832 75.28 921.928 75.552 922.904 76.096C923.88 76.64 924.64 77.4 925.184 78.376C925.744 79.352 926.024 80.456 926.024 81.688C926.024 82.92 925.744 84.024 925.184 85C924.64 85.976 923.88 86.744 922.904 87.304C921.928 87.848 920.832 88.12 919.616 88.12ZM919.616 86.608C920.512 86.608 921.312 86.408 922.016 86.008C922.736 85.592 923.296 85.008 923.696 84.256C924.096 83.504 924.296 82.648 924.296 81.688C924.296 80.728 924.096 79.872 923.696 79.12C923.296 78.368 922.736 77.792 922.016 77.392C921.312 76.976 920.512 76.768 919.616 76.768C918.72 76.768 917.912 76.976 917.192 77.392C916.488 77.792 915.928 78.368 915.512 79.12C915.112 79.872 914.912 80.728 914.912 81.688C914.912 82.648 915.112 83.504 915.512 84.256C915.928 85.008 916.488 85.592 917.192 86.008C917.912 86.408 918.72 86.608 919.616 86.608ZM935.716 81.424C936.612 81.632 937.3 81.992 937.78 82.504C938.276 83.016 938.524 83.64 938.524 84.376C938.524 85.112 938.268 85.768 937.756 86.344C937.26 86.92 936.58 87.368 935.716 87.688C934.852 87.992 933.9 88.144 932.86 88.144C931.948 88.144 931.052 88.016 930.172 87.76C929.292 87.488 928.524 87.096 927.868 86.584L928.444 85.312C929.02 85.744 929.692 86.08 930.46 86.32C931.228 86.56 932.004 86.68 932.788 86.68C933.956 86.68 934.908 86.464 935.644 86.032C936.396 85.584 936.772 84.984 936.772 84.232C936.772 83.56 936.468 83.04 935.86 82.672C935.252 82.288 934.42 82.096 933.364 82.096H931.204V80.848H933.268C934.212 80.848 934.972 80.672 935.548 80.32C936.124 79.952 936.412 79.464 936.412 78.856C936.412 78.184 936.084 77.656 935.428 77.272C934.788 76.888 933.948 76.696 932.908 76.696C931.548 76.696 930.204 77.04 928.876 77.728L928.396 76.408C929.9 75.624 931.46 75.232 933.076 75.232C934.036 75.232 934.9 75.376 935.668 75.664C936.452 75.936 937.06 76.328 937.492 76.84C937.94 77.352 938.164 77.944 938.164 78.616C938.164 79.256 937.94 79.824 937.492 80.32C937.06 80.816 936.468 81.184 935.716 81.424ZM954.705 86.512V91.048H953.097V88H941.793V91.048H940.185V86.512H940.905C941.753 86.464 942.329 85.84 942.633 84.64C942.937 83.44 943.145 81.76 943.257 79.6L943.425 75.376H952.737V86.512H954.705ZM944.817 79.696C944.737 81.488 944.585 82.968 944.361 84.136C944.137 85.288 943.737 86.08 943.161 86.512H951.033V76.888H944.961L944.817 79.696ZM962.37 75.28C964.018 75.28 965.282 75.696 966.162 76.528C967.042 77.344 967.482 78.56 967.482 80.176V88H965.85V86.032C965.466 86.688 964.898 87.2 964.146 87.568C963.41 87.936 962.53 88.12 961.506 88.12C960.098 88.12 958.978 87.784 958.146 87.112C957.314 86.44 956.898 85.552 956.898 84.448C956.898 83.376 957.282 82.512 958.05 81.856C958.834 81.2 960.074 80.872 961.77 80.872H965.778V80.104C965.778 79.016 965.474 78.192 964.866 77.632C964.258 77.056 963.37 76.768 962.202 76.768C961.402 76.768 960.634 76.904 959.898 77.176C959.162 77.432 958.53 77.792 958.002 78.256L957.234 76.984C957.874 76.44 958.642 76.024 959.538 75.736C960.434 75.432 961.378 75.28 962.37 75.28ZM961.77 86.776C962.73 86.776 963.554 86.56 964.242 86.128C964.93 85.68 965.442 85.04 965.778 84.208V82.144H961.818C959.658 82.144 958.578 82.896 958.578 84.4C958.578 85.136 958.858 85.72 959.418 86.152C959.978 86.568 960.762 86.776 961.77 86.776ZM972.018 75.376H973.722V85.408L982.146 75.376H983.658V88H981.954V77.968L973.554 88H972.018V75.376ZM977.754 73.552C976.666 73.552 975.802 73.28 975.162 72.736C974.522 72.192 974.194 71.424 974.178 70.432H975.402C975.418 71.056 975.642 71.56 976.074 71.944C976.506 72.312 977.066 72.496 977.754 72.496C978.442 72.496 979.002 72.312 979.434 71.944C979.882 71.56 980.114 71.056 980.13 70.432H981.354C981.338 71.424 981.002 72.192 980.346 72.736C979.706 73.28 978.842 73.552 977.754 73.552ZM997.421 76.888H992.645V88H990.941V76.888H986.165V75.376H997.421V76.888ZM1010.34 82.216H999.779C999.875 83.528 1000.38 84.592 1001.29 85.408C1002.2 86.208 1003.36 86.608 1004.75 86.608C1005.53 86.608 1006.25 86.472 1006.91 86.2C1007.56 85.912 1008.13 85.496 1008.61 84.952L1009.57 86.056C1009.01 86.728 1008.31 87.24 1007.46 87.592C1006.63 87.944 1005.71 88.12 1004.7 88.12C1003.4 88.12 1002.25 87.848 1001.24 87.304C1000.25 86.744 999.475 85.976 998.915 85C998.355 84.024 998.075 82.92 998.075 81.688C998.075 80.456 998.339 79.352 998.867 78.376C999.411 77.4 1000.15 76.64 1001.08 76.096C1002.02 75.552 1003.08 75.28 1004.24 75.28C1005.41 75.28 1006.46 75.552 1007.39 76.096C1008.32 76.64 1009.04 77.4 1009.57 78.376C1010.1 79.336 1010.36 80.44 1010.36 81.688L1010.34 82.216ZM1004.24 76.744C1003.03 76.744 1002 77.136 1001.17 77.92C1000.36 78.688 999.891 79.696 999.779 80.944H1008.73C1008.62 79.696 1008.15 78.688 1007.32 77.92C1006.5 77.136 1005.48 76.744 1004.24 76.744ZM1025.7 88.12C1024.45 88.12 1023.33 87.848 1022.34 87.304C1021.36 86.76 1020.59 86 1020.03 85.024C1019.47 84.032 1019.19 82.92 1019.19 81.688C1019.19 80.456 1019.47 79.352 1020.03 78.376C1020.59 77.4 1021.36 76.64 1022.34 76.096C1023.33 75.552 1024.45 75.28 1025.7 75.28C1026.78 75.28 1027.75 75.496 1028.6 75.928C1029.46 76.344 1030.14 76.96 1030.64 77.776L1029.37 78.64C1028.95 78.016 1028.42 77.552 1027.78 77.248C1027.14 76.928 1026.45 76.768 1025.7 76.768C1024.78 76.768 1023.96 76.976 1023.22 77.392C1022.5 77.792 1021.94 78.368 1021.52 79.12C1021.12 79.872 1020.92 80.728 1020.92 81.688C1020.92 82.664 1021.12 83.528 1021.52 84.28C1021.94 85.016 1022.5 85.592 1023.22 86.008C1023.96 86.408 1024.78 86.608 1025.7 86.608C1026.45 86.608 1027.14 86.456 1027.78 86.152C1028.42 85.848 1028.95 85.384 1029.37 84.76L1030.64 85.624C1030.14 86.44 1029.46 87.064 1028.6 87.496C1027.74 87.912 1026.77 88.12 1025.7 88.12ZM1044.77 82.216H1034.21C1034.3 83.528 1034.81 84.592 1035.72 85.408C1036.63 86.208 1037.78 86.608 1039.18 86.608C1039.96 86.608 1040.68 86.472 1041.34 86.2C1041.99 85.912 1042.56 85.496 1043.04 84.952L1044 86.056C1043.44 86.728 1042.74 87.24 1041.89 87.592C1041.06 87.944 1040.14 88.12 1039.13 88.12C1037.83 88.12 1036.68 87.848 1035.67 87.304C1034.68 86.744 1033.9 85.976 1033.34 85C1032.78 84.024 1032.5 82.92 1032.5 81.688C1032.5 80.456 1032.77 79.352 1033.3 78.376C1033.84 77.4 1034.58 76.64 1035.5 76.096C1036.45 75.552 1037.5 75.28 1038.67 75.28C1039.84 75.28 1040.89 75.552 1041.82 76.096C1042.74 76.64 1043.47 77.4 1044 78.376C1044.53 79.336 1044.79 80.44 1044.79 81.688L1044.77 82.216ZM1038.67 76.744C1037.46 76.744 1036.43 77.136 1035.6 77.92C1034.78 78.688 1034.32 79.696 1034.21 80.944H1043.16C1043.05 79.696 1042.58 78.688 1041.74 77.92C1040.93 77.136 1039.9 76.744 1038.67 76.744ZM1055.07 75.28C1056.25 75.28 1057.32 75.552 1058.28 76.096C1059.24 76.624 1060 77.376 1060.54 78.352C1061.08 79.328 1061.36 80.44 1061.36 81.688C1061.36 82.952 1061.08 84.072 1060.54 85.048C1060 86.024 1059.24 86.784 1058.28 87.328C1057.34 87.856 1056.27 88.12 1055.07 88.12C1054.04 88.12 1053.12 87.912 1052.28 87.496C1051.47 87.064 1050.8 86.44 1050.27 85.624V92.656H1048.56V75.376H1050.2V77.872C1050.71 77.04 1051.38 76.4 1052.21 75.952C1053.06 75.504 1054.01 75.28 1055.07 75.28ZM1054.95 86.608C1055.83 86.608 1056.63 86.408 1057.35 86.008C1058.07 85.592 1058.63 85.008 1059.03 84.256C1059.44 83.504 1059.65 82.648 1059.65 81.688C1059.65 80.728 1059.44 79.88 1059.03 79.144C1058.63 78.392 1058.07 77.808 1057.35 77.392C1056.63 76.976 1055.83 76.768 1054.95 76.768C1054.05 76.768 1053.24 76.976 1052.52 77.392C1051.82 77.808 1051.26 78.392 1050.84 79.144C1050.44 79.88 1050.24 80.728 1050.24 81.688C1050.24 82.648 1050.44 83.504 1050.84 84.256C1051.26 85.008 1051.82 85.592 1052.52 86.008C1053.24 86.408 1054.05 86.608 1054.95 86.608ZM1065.02 75.376H1066.72V85.408L1075.15 75.376H1076.66V88H1074.95V77.968L1066.55 88H1065.02V75.376ZM1092.39 75.28C1093.57 75.28 1094.64 75.552 1095.58 76.096C1096.54 76.64 1097.29 77.4 1097.84 78.376C1098.38 79.352 1098.65 80.456 1098.65 81.688C1098.65 82.92 1098.38 84.024 1097.84 85C1097.29 85.976 1096.54 86.744 1095.58 87.304C1094.64 87.848 1093.57 88.12 1092.39 88.12C1091.27 88.12 1090.25 87.88 1089.34 87.4C1088.43 86.904 1087.69 86.224 1087.11 85.36C1086.55 84.496 1086.22 83.504 1086.13 82.384H1083.25V88H1081.54V75.376H1083.25V80.824H1086.15C1086.28 79.736 1086.62 78.776 1087.18 77.944C1087.76 77.096 1088.49 76.44 1089.39 75.976C1090.29 75.512 1091.29 75.28 1092.39 75.28ZM1092.39 86.632C1093.25 86.632 1094.03 86.424 1094.72 86.008C1095.42 85.592 1095.97 85.008 1096.37 84.256C1096.77 83.504 1096.97 82.648 1096.97 81.688C1096.97 80.728 1096.77 79.872 1096.37 79.12C1095.97 78.368 1095.42 77.792 1094.72 77.392C1094.03 76.976 1093.25 76.768 1092.39 76.768C1091.53 76.768 1090.74 76.976 1090.04 77.392C1089.35 77.792 1088.81 78.368 1088.41 79.12C1088.01 79.872 1087.81 80.728 1087.81 81.688C1087.81 82.648 1088.01 83.504 1088.41 84.256C1088.81 85.008 1089.35 85.592 1090.04 86.008C1090.74 86.424 1091.53 86.632 1092.39 86.632ZM717.704 118.12C716.456 118.12 715.336 117.848 714.344 117.304C713.368 116.76 712.6 116 712.04 115.024C711.48 114.032 711.2 112.92 711.2 111.688C711.2 110.456 711.48 109.352 712.04 108.376C712.6 107.4 713.368 106.64 714.344 106.096C715.336 105.552 716.456 105.28 717.704 105.28C718.792 105.28 719.76 105.496 720.608 105.928C721.472 106.344 722.152 106.96 722.648 107.776L721.376 108.64C720.96 108.016 720.432 107.552 719.792 107.248C719.152 106.928 718.456 106.768 717.704 106.768C716.792 106.768 715.968 106.976 715.232 107.392C714.512 107.792 713.944 108.368 713.528 109.12C713.128 109.872 712.928 110.728 712.928 111.688C712.928 112.664 713.128 113.528 713.528 114.28C713.944 115.016 714.512 115.592 715.232 116.008C715.968 116.408 716.792 116.608 717.704 116.608C718.456 116.608 719.152 116.456 719.792 116.152C720.432 115.848 720.96 115.384 721.376 114.76L722.648 115.624C722.152 116.44 721.472 117.064 720.608 117.496C719.744 117.912 718.776 118.12 717.704 118.12ZM730.945 118.12C729.729 118.12 728.633 117.848 727.657 117.304C726.681 116.744 725.913 115.976 725.353 115C724.793 114.024 724.513 112.92 724.513 111.688C724.513 110.456 724.793 109.352 725.353 108.376C725.913 107.4 726.681 106.64 727.657 106.096C728.633 105.552 729.729 105.28 730.945 105.28C732.161 105.28 733.257 105.552 734.233 106.096C735.209 106.64 735.969 107.4 736.513 108.376C737.073 109.352 737.353 110.456 737.353 111.688C737.353 112.92 737.073 114.024 736.513 115C735.969 115.976 735.209 116.744 734.233 117.304C733.257 117.848 732.161 118.12 730.945 118.12ZM730.945 116.608C731.841 116.608 732.641 116.408 733.345 116.008C734.065 115.592 734.625 115.008 735.025 114.256C735.425 113.504 735.625 112.648 735.625 111.688C735.625 110.728 735.425 109.872 735.025 109.12C734.625 108.368 734.065 107.792 733.345 107.392C732.641 106.976 731.841 106.768 730.945 106.768C730.049 106.768 729.241 106.976 728.521 107.392C727.817 107.792 727.257 108.368 726.84 109.12C726.441 109.872 726.241 110.728 726.241 111.688C726.241 112.648 726.441 113.504 726.84 114.256C727.257 115.008 727.817 115.592 728.521 116.008C729.241 116.408 730.049 116.608 730.945 116.608ZM747.114 105.688C748.282 105.688 749.322 105.952 750.234 106.48C751.162 106.992 751.882 107.72 752.394 108.664C752.906 109.592 753.162 110.656 753.162 111.856C753.162 113.088 752.89 114.184 752.346 115.144C751.818 116.088 751.074 116.824 750.114 117.352C749.154 117.88 748.05 118.144 746.802 118.144C744.706 118.144 743.082 117.408 741.93 115.936C740.778 114.464 740.202 112.432 740.202 109.84C740.202 107.136 740.714 105.064 741.738 103.624C742.778 102.184 744.394 101.208 746.586 100.696L752.25 99.4L752.538 100.96L747.21 102.184C745.402 102.584 744.074 103.296 743.226 104.32C742.378 105.328 741.914 106.824 741.834 108.808C742.346 107.832 743.058 107.072 743.97 106.528C744.882 105.968 745.93 105.688 747.114 105.688ZM746.85 116.728C747.73 116.728 748.514 116.528 749.202 116.128C749.906 115.712 750.45 115.136 750.834 114.4C751.234 113.664 751.434 112.832 751.434 111.904C751.434 110.976 751.242 110.16 750.858 109.456C750.474 108.752 749.93 108.208 749.226 107.824C748.538 107.424 747.746 107.224 746.85 107.224C745.954 107.224 745.154 107.424 744.45 107.824C743.762 108.208 743.218 108.752 742.818 109.456C742.434 110.16 742.242 110.976 742.242 111.904C742.242 112.832 742.434 113.664 742.818 114.4C743.218 115.136 743.77 115.712 744.474 116.128C745.178 116.528 745.97 116.728 746.85 116.728ZM762.095 118.12C760.847 118.12 759.727 117.848 758.735 117.304C757.759 116.76 756.991 116 756.431 115.024C755.871 114.032 755.591 112.92 755.591 111.688C755.591 110.456 755.871 109.352 756.431 108.376C756.991 107.4 757.759 106.64 758.735 106.096C759.727 105.552 760.847 105.28 762.095 105.28C763.183 105.28 764.151 105.496 764.999 105.928C765.863 106.344 766.543 106.96 767.039 107.776L765.767 108.64C765.351 108.016 764.823 107.552 764.183 107.248C763.543 106.928 762.847 106.768 762.095 106.768C761.183 106.768 760.359 106.976 759.623 107.392C758.903 107.792 758.335 108.368 757.919 109.12C757.519 109.872 757.319 110.728 757.319 111.688C757.319 112.664 757.519 113.528 757.919 114.28C758.335 115.016 758.903 115.592 759.623 116.008C760.359 116.408 761.183 116.608 762.095 116.608C762.847 116.608 763.543 116.456 764.183 116.152C764.823 115.848 765.351 115.384 765.767 114.76L767.039 115.624C766.543 116.44 765.863 117.064 764.999 117.496C764.135 117.912 763.167 118.12 762.095 118.12ZM778.984 106.888H774.208V118H772.504V106.888H767.728V105.376H778.984V106.888ZM789.487 111.472C791.199 111.872 792.055 112.904 792.055 114.568C792.055 115.672 791.647 116.52 790.831 117.112C790.015 117.704 788.799 118 787.183 118H781.447V105.376H787.015C788.455 105.376 789.583 105.656 790.399 106.216C791.215 106.776 791.623 107.576 791.623 108.616C791.623 109.304 791.431 109.896 791.047 110.392C790.679 110.872 790.159 111.232 789.487 111.472ZM783.103 110.992H786.895C787.871 110.992 788.615 110.808 789.127 110.44C789.655 110.072 789.919 109.536 789.919 108.832C789.919 108.128 789.655 107.6 789.127 107.248C788.615 106.896 787.871 106.72 786.895 106.72H783.103V110.992ZM787.111 116.656C788.199 116.656 789.015 116.48 789.559 116.128C790.103 115.776 790.375 115.224 790.375 114.472C790.375 113.72 790.127 113.168 789.631 112.816C789.135 112.448 788.351 112.264 787.279 112.264H783.103V116.656H787.111ZM807.089 112.216H796.529C796.625 113.528 797.129 114.592 798.041 115.408C798.953 116.208 800.105 116.608 801.497 116.608C802.281 116.608 803.001 116.472 803.657 116.2C804.313 115.912 804.881 115.496 805.361 114.952L806.321 116.056C805.761 116.728 805.057 117.24 804.209 117.592C803.377 117.944 802.457 118.12 801.449 118.12C800.153 118.12 799.001 117.848 797.993 117.304C797.001 116.744 796.225 115.976 795.665 115C795.105 114.024 794.825 112.92 794.825 111.688C794.825 110.456 795.089 109.352 795.617 108.376C796.161 107.4 796.897 106.64 797.825 106.096C798.769 105.552 799.825 105.28 800.993 105.28C802.161 105.28 803.209 105.552 804.137 106.096C805.065 106.64 805.793 107.4 806.321 108.376C806.849 109.336 807.113 110.44 807.113 111.688L807.089 112.216ZM800.993 106.744C799.777 106.744 798.753 107.136 797.921 107.92C797.105 108.688 796.641 109.696 796.529 110.944H805.481C805.369 109.696 804.897 108.688 804.065 107.92C803.249 107.136 802.225 106.744 800.993 106.744ZM810.885 105.376H812.589V110.968H820.533V105.376H822.237V118H820.533V112.432H812.589V118H810.885V105.376ZM827.08 105.376H828.784V110.968H836.728V105.376H838.432V118H836.728V112.432H828.784V118H827.08V105.376ZM848.58 109.84C850.164 109.856 851.372 110.208 852.204 110.896C853.036 111.584 853.452 112.576 853.452 113.872C853.452 115.216 853.004 116.248 852.108 116.968C851.212 117.688 849.932 118.04 848.268 118.024L843.276 118V105.376H844.98V109.792L848.58 109.84ZM855.564 105.376H857.268V118H855.564V105.376ZM848.172 116.728C849.34 116.744 850.22 116.512 850.812 116.032C851.42 115.536 851.724 114.816 851.724 113.872C851.724 112.944 851.428 112.256 850.836 111.808C850.244 111.36 849.356 111.128 848.172 111.112L844.98 111.064V116.68L848.172 116.728ZM870.015 118L866.007 112.72L861.975 118H860.055L865.047 111.52L860.295 105.376H862.215L866.007 110.32L869.799 105.376H871.671L866.919 111.52L871.959 118H870.015ZM881.033 105.376H882.737V115.408L891.161 105.376H892.673V118H890.969V107.968L882.569 118H881.033V105.376ZM906.485 106.888H899.261V118H897.557V105.376H906.485V106.888ZM915.451 105.28C916.635 105.28 917.707 105.552 918.667 106.096C919.627 106.624 920.379 107.376 920.923 108.352C921.467 109.328 921.739 110.44 921.739 111.688C921.739 112.952 921.467 114.072 920.923 115.048C920.379 116.024 919.627 116.784 918.667 117.328C917.723 117.856 916.651 118.12 915.451 118.12C914.427 118.12 913.499 117.912 912.667 117.496C911.851 117.064 911.179 116.44 910.651 115.624V122.656H908.947V105.376H910.579V107.872C911.091 107.04 911.763 106.4 912.595 105.952C913.443 105.504 914.395 105.28 915.451 105.28ZM915.331 116.608C916.211 116.608 917.011 116.408 917.731 116.008C918.451 115.592 919.011 115.008 919.411 114.256C919.827 113.504 920.035 112.648 920.035 111.688C920.035 110.728 919.827 109.88 919.411 109.144C919.011 108.392 918.451 107.808 917.731 107.392C917.011 106.976 916.211 106.768 915.331 106.768C914.435 106.768 913.627 106.976 912.907 107.392C912.203 107.808 911.643 108.392 911.227 109.144C910.827 109.88 910.627 110.728 910.627 111.688C910.627 112.648 910.827 113.504 911.227 114.256C911.643 115.008 912.203 115.592 912.907 116.008C913.627 116.408 914.435 116.608 915.331 116.608ZM938.186 105.28C939.37 105.28 940.442 105.552 941.402 106.096C942.362 106.624 943.114 107.376 943.658 108.352C944.202 109.328 944.474 110.44 944.474 111.688C944.474 112.952 944.202 114.072 943.658 115.048C943.114 116.024 942.362 116.784 941.402 117.328C940.458 117.856 939.386 118.12 938.186 118.12C937.162 118.12 936.234 117.912 935.402 117.496C934.586 117.064 933.914 116.44 933.386 115.624V122.656H931.682V105.376H933.314V107.872C933.826 107.04 934.498 106.4 935.33 105.952C936.178 105.504 937.13 105.28 938.186 105.28ZM938.066 116.608C938.946 116.608 939.746 116.408 940.466 116.008C941.186 115.592 941.746 115.008 942.146 114.256C942.562 113.504 942.77 112.648 942.77 111.688C942.77 110.728 942.562 109.88 942.146 109.144C941.746 108.392 941.186 107.808 940.466 107.392C939.746 106.976 938.946 106.768 938.066 106.768C937.17 106.768 936.362 106.976 935.642 107.392C934.938 107.808 934.378 108.392 933.962 109.144C933.562 109.88 933.362 110.728 933.362 111.688C933.362 112.648 933.562 113.504 933.962 114.256C934.378 115.008 934.938 115.592 935.642 116.008C936.362 116.408 937.17 116.608 938.066 116.608ZM952.409 105.28C954.057 105.28 955.321 105.696 956.201 106.528C957.081 107.344 957.521 108.56 957.521 110.176V118H955.889V116.032C955.505 116.688 954.937 117.2 954.185 117.568C953.449 117.936 952.569 118.12 951.545 118.12C950.137 118.12 949.017 117.784 948.185 117.112C947.353 116.44 946.937 115.552 946.937 114.448C946.937 113.376 947.321 112.512 948.089 111.856C948.873 111.2 950.113 110.872 951.809 110.872H955.817V110.104C955.817 109.016 955.513 108.192 954.905 107.632C954.297 107.056 953.409 106.768 952.241 106.768C951.441 106.768 950.673 106.904 949.937 107.176C949.201 107.432 948.569 107.792 948.041 108.256L947.273 106.984C947.913 106.44 948.681 106.024 949.577 105.736C950.473 105.432 951.417 105.28 952.409 105.28ZM951.809 116.776C952.769 116.776 953.593 116.56 954.281 116.128C954.969 115.68 955.481 115.04 955.817 114.208V112.144H951.857C949.697 112.144 948.617 112.896 948.617 114.4C948.617 115.136 948.897 115.72 949.457 116.152C950.017 116.568 950.801 116.776 951.809 116.776ZM967.943 111.424C968.839 111.632 969.527 111.992 970.007 112.504C970.503 113.016 970.751 113.64 970.751 114.376C970.751 115.112 970.495 115.768 969.983 116.344C969.487 116.92 968.807 117.368 967.943 117.688C967.079 117.992 966.127 118.144 965.087 118.144C964.175 118.144 963.279 118.016 962.399 117.76C961.519 117.488 960.751 117.096 960.095 116.584L960.671 115.312C961.247 115.744 961.919 116.08 962.687 116.32C963.455 116.56 964.231 116.68 965.015 116.68C966.183 116.68 967.135 116.464 967.871 116.032C968.623 115.584 968.999 114.984 968.999 114.232C968.999 113.56 968.695 113.04 968.087 112.672C967.479 112.288 966.647 112.096 965.591 112.096H963.431V110.848H965.495C966.439 110.848 967.199 110.672 967.775 110.32C968.351 109.952 968.639 109.464 968.639 108.856C968.639 108.184 968.311 107.656 967.655 107.272C967.015 106.888 966.175 106.696 965.135 106.696C963.775 106.696 962.431 107.04 961.103 107.728L960.623 106.408C962.127 105.624 963.687 105.232 965.303 105.232C966.263 105.232 967.127 105.376 967.895 105.664C968.679 105.936 969.287 106.328 969.719 106.84C970.167 107.352 970.391 107.944 970.391 108.616C970.391 109.256 970.167 109.824 969.719 110.32C969.287 110.816 968.695 111.184 967.943 111.424ZM974.619 105.376H976.323V110.968H984.267V105.376H985.971V118H984.267V112.432H976.323V118H974.619V105.376ZM996.023 118.12C994.807 118.12 993.711 117.848 992.735 117.304C991.759 116.744 990.991 115.976 990.431 115C989.871 114.024 989.591 112.92 989.591 111.688C989.591 110.456 989.871 109.352 990.431 108.376C990.991 107.4 991.759 106.64 992.735 106.096C993.711 105.552 994.807 105.28 996.023 105.28C997.239 105.28 998.335 105.552 999.311 106.096C1000.29 106.64 1001.05 107.4 1001.59 108.376C1002.15 109.352 1002.43 110.456 1002.43 111.688C1002.43 112.92 1002.15 114.024 1001.59 115C1001.05 115.976 1000.29 116.744 999.311 117.304C998.335 117.848 997.239 118.12 996.023 118.12ZM996.023 116.608C996.919 116.608 997.719 116.408 998.423 116.008C999.143 115.592 999.703 115.008 1000.1 114.256C1000.5 113.504 1000.7 112.648 1000.7 111.688C1000.7 110.728 1000.5 109.872 1000.1 109.12C999.703 108.368 999.143 107.792 998.423 107.392C997.719 106.976 996.919 106.768 996.023 106.768C995.127 106.768 994.319 106.976 993.599 107.392C992.895 107.792 992.335 108.368 991.919 109.12C991.519 109.872 991.319 110.728 991.319 111.688C991.319 112.648 991.519 113.504 991.919 114.256C992.335 115.008 992.895 115.592 993.599 116.008C994.319 116.408 995.127 116.608 996.023 116.608ZM1015 106.888H1007.78V118H1006.07V105.376H1015V106.888ZM1022.09 118.12C1020.87 118.12 1019.77 117.848 1018.8 117.304C1017.82 116.744 1017.05 115.976 1016.49 115C1015.93 114.024 1015.65 112.92 1015.65 111.688C1015.65 110.456 1015.93 109.352 1016.49 108.376C1017.05 107.4 1017.82 106.64 1018.8 106.096C1019.77 105.552 1020.87 105.28 1022.09 105.28C1023.3 105.28 1024.4 105.552 1025.37 106.096C1026.35 106.64 1027.11 107.4 1027.65 108.376C1028.21 109.352 1028.49 110.456 1028.49 111.688C1028.49 112.92 1028.21 114.024 1027.65 115C1027.11 115.976 1026.35 116.744 1025.37 117.304C1024.4 117.848 1023.3 118.12 1022.09 118.12ZM1022.09 116.608C1022.98 116.608 1023.78 116.408 1024.49 116.008C1025.21 115.592 1025.77 115.008 1026.17 114.256C1026.57 113.504 1026.77 112.648 1026.77 111.688C1026.77 110.728 1026.57 109.872 1026.17 109.12C1025.77 108.368 1025.21 107.792 1024.49 107.392C1023.78 106.976 1022.98 106.768 1022.09 106.768C1021.19 106.768 1020.38 106.976 1019.66 107.392C1018.96 107.792 1018.4 108.368 1017.98 109.12C1017.58 109.872 1017.38 110.728 1017.38 111.688C1017.38 112.648 1017.58 113.504 1017.98 114.256C1018.4 115.008 1018.96 115.592 1019.66 116.008C1020.38 116.408 1021.19 116.608 1022.09 116.608ZM1049.48 112.384H1046.74V118H1045.04V112.384H1042.3L1038.44 118H1036.4L1040.94 111.496L1036.76 105.376H1038.61L1042.3 110.92H1045.04V105.376H1046.74V110.92H1049.48L1053.2 105.376H1055.05L1050.87 111.52L1055.41 118H1053.37L1049.48 112.384ZM1062.35 105.28C1064 105.28 1065.27 105.696 1066.15 106.528C1067.03 107.344 1067.47 108.56 1067.47 110.176V118H1065.83V116.032C1065.45 116.688 1064.88 117.2 1064.13 117.568C1063.39 117.936 1062.51 118.12 1061.49 118.12C1060.08 118.12 1058.96 117.784 1058.13 117.112C1057.3 116.44 1056.88 115.552 1056.88 114.448C1056.88 113.376 1057.27 112.512 1058.03 111.856C1058.82 111.2 1060.06 110.872 1061.75 110.872H1065.76V110.104C1065.76 109.016 1065.46 108.192 1064.85 107.632C1064.24 107.056 1063.35 106.768 1062.19 106.768C1061.39 106.768 1060.62 106.904 1059.88 107.176C1059.15 107.432 1058.51 107.792 1057.99 108.256L1057.22 106.984C1057.86 106.44 1058.63 106.024 1059.52 105.736C1060.42 105.432 1061.36 105.28 1062.35 105.28ZM1061.75 116.776C1062.71 116.776 1063.54 116.56 1064.23 116.128C1064.91 115.68 1065.43 115.04 1065.76 114.208V112.144H1061.8C1059.64 112.144 1058.56 112.896 1058.56 114.4C1058.56 115.136 1058.84 115.72 1059.4 116.152C1059.96 116.568 1060.75 116.776 1061.75 116.776ZM1072 105.376H1073.71V110.968H1081.65V105.376H1083.35V118H1081.65V112.432H1073.71V118H1072V105.376ZM1094.7 105.28C1095.89 105.28 1096.96 105.552 1097.92 106.096C1098.88 106.624 1099.63 107.376 1100.17 108.352C1100.72 109.328 1100.99 110.44 1100.99 111.688C1100.99 112.952 1100.72 114.072 1100.17 115.048C1099.63 116.024 1098.88 116.784 1097.92 117.328C1096.97 117.856 1095.9 118.12 1094.7 118.12C1093.68 118.12 1092.75 117.912 1091.92 117.496C1091.1 117.064 1090.43 116.44 1089.9 115.624V122.656H1088.2V105.376H1089.83V107.872C1090.34 107.04 1091.01 106.4 1091.85 105.952C1092.69 105.504 1093.65 105.28 1094.7 105.28ZM1094.58 116.608C1095.46 116.608 1096.26 116.408 1096.98 116.008C1097.7 115.592 1098.26 115.008 1098.66 114.256C1099.08 113.504 1099.29 112.648 1099.29 111.688C1099.29 110.728 1099.08 109.88 1098.66 109.144C1098.26 108.392 1097.7 107.808 1096.98 107.392C1096.26 106.976 1095.46 106.768 1094.58 106.768C1093.69 106.768 1092.88 106.976 1092.16 107.392C1091.45 107.808 1090.89 108.392 1090.48 109.144C1090.08 109.88 1089.88 110.728 1089.88 111.688C1089.88 112.648 1090.08 113.504 1090.48 114.256C1090.89 115.008 1091.45 115.592 1092.16 116.008C1092.88 116.408 1093.69 116.608 1094.58 116.608ZM1108.92 105.28C1110.57 105.28 1111.84 105.696 1112.72 106.528C1113.6 107.344 1114.04 108.56 1114.04 110.176V118H1112.4V116.032C1112.02 116.688 1111.45 117.2 1110.7 117.568C1109.96 117.936 1109.08 118.12 1108.06 118.12C1106.65 118.12 1105.53 117.784 1104.7 117.112C1103.87 116.44 1103.45 115.552 1103.45 114.448C1103.45 113.376 1103.84 112.512 1104.6 111.856C1105.39 111.2 1106.63 110.872 1108.32 110.872H1112.33V110.104C1112.33 109.016 1112.03 108.192 1111.42 107.632C1110.81 107.056 1109.92 106.768 1108.76 106.768C1107.96 106.768 1107.19 106.904 1106.45 107.176C1105.72 107.432 1105.08 107.792 1104.56 108.256L1103.79 106.984C1104.43 106.44 1105.2 106.024 1106.09 105.736C1106.99 105.432 1107.93 105.28 1108.92 105.28ZM1108.32 116.776C1109.28 116.776 1110.11 116.56 1110.8 116.128C1111.48 115.68 1112 115.04 1112.33 114.208V112.144H1108.37C1106.21 112.144 1105.13 112.896 1105.13 114.4C1105.13 115.136 1105.41 115.72 1105.97 116.152C1106.53 116.568 1107.32 116.776 1108.32 116.776ZM1118.69 107.896C1118.34 107.896 1118.04 107.768 1117.78 107.512C1117.54 107.256 1117.42 106.944 1117.42 106.576C1117.42 106.208 1117.54 105.904 1117.78 105.664C1118.04 105.408 1118.34 105.28 1118.69 105.28C1119.04 105.28 1119.35 105.408 1119.6 105.664C1119.86 105.904 1119.99 106.208 1119.99 106.576C1119.99 106.944 1119.86 107.256 1119.6 107.512C1119.35 107.768 1119.04 107.896 1118.69 107.896ZM1118.69 118.12C1118.34 118.12 1118.04 117.992 1117.78 117.736C1117.54 117.48 1117.42 117.168 1117.42 116.8C1117.42 116.432 1117.54 116.128 1117.78 115.888C1118.04 115.632 1118.34 115.504 1118.69 115.504C1119.04 115.504 1119.35 115.632 1119.6 115.888C1119.86 116.128 1119.99 116.432 1119.99 116.8C1119.99 117.168 1119.86 117.48 1119.6 117.736C1119.35 117.992 1119.04 118.12 1118.69 118.12ZM1135.15 118.12C1133.93 118.12 1132.84 117.848 1131.86 117.304C1130.88 116.744 1130.12 115.976 1129.56 115C1129 114.024 1128.72 112.92 1128.72 111.688C1128.72 110.456 1129 109.352 1129.56 108.376C1130.12 107.4 1130.88 106.64 1131.86 106.096C1132.84 105.552 1133.93 105.28 1135.15 105.28C1136.36 105.28 1137.46 105.552 1138.44 106.096C1139.41 106.64 1140.17 107.4 1140.72 108.376C1141.28 109.352 1141.56 110.456 1141.56 111.688C1141.56 112.92 1141.28 114.024 1140.72 115C1140.17 115.976 1139.41 116.744 1138.44 117.304C1137.46 117.848 1136.36 118.12 1135.15 118.12ZM1135.15 116.608C1136.04 116.608 1136.84 116.408 1137.55 116.008C1138.27 115.592 1138.83 115.008 1139.23 114.256C1139.63 113.504 1139.83 112.648 1139.83 111.688C1139.83 110.728 1139.63 109.872 1139.23 109.12C1138.83 108.368 1138.27 107.792 1137.55 107.392C1136.84 106.976 1136.04 106.768 1135.15 106.768C1134.25 106.768 1133.44 106.976 1132.72 107.392C1132.02 107.792 1131.46 108.368 1131.04 109.12C1130.64 109.872 1130.44 110.728 1130.44 111.688C1130.44 112.648 1130.64 113.504 1131.04 114.256C1131.46 115.008 1132.02 115.592 1132.72 116.008C1133.44 116.408 1134.25 116.608 1135.15 116.608ZM1153.61 106.888H1148.83V118H1147.13V106.888H1142.35V105.376H1153.61V106.888ZM717.368 148.144C716.12 148.144 714.92 147.944 713.768 147.544C712.632 147.144 711.752 146.616 711.128 145.96L711.824 144.592C712.432 145.2 713.24 145.696 714.248 146.08C715.256 146.448 716.296 146.632 717.368 146.632C718.872 146.632 720 146.36 720.752 145.816C721.504 145.256 721.88 144.536 721.88 143.656C721.88 142.984 721.672 142.448 721.256 142.048C720.856 141.648 720.36 141.344 719.768 141.136C719.176 140.912 718.352 140.672 717.296 140.416C716.032 140.096 715.024 139.792 714.272 139.504C713.52 139.2 712.872 138.744 712.328 138.136C711.8 137.528 711.536 136.704 711.536 135.664C711.536 134.816 711.76 134.048 712.208 133.36C712.656 132.656 713.344 132.096 714.272 131.68C715.2 131.264 716.352 131.056 717.728 131.056C718.688 131.056 719.624 131.192 720.536 131.464C721.464 131.72 722.264 132.08 722.936 132.544L722.336 133.96C721.632 133.496 720.88 133.152 720.08 132.928C719.28 132.688 718.496 132.568 717.728 132.568C716.256 132.568 715.144 132.856 714.392 133.432C713.656 133.992 713.288 134.72 713.288 135.616C713.288 136.288 713.488 136.832 713.888 137.248C714.304 137.648 714.816 137.96 715.424 138.184C716.048 138.392 716.88 138.624 717.92 138.88C719.152 139.184 720.144 139.488 720.896 139.792C721.664 140.08 722.312 140.528 722.84 141.136C723.368 141.728 723.632 142.536 723.632 143.56C723.632 144.408 723.4 145.184 722.936 145.888C722.488 146.576 721.792 147.128 720.848 147.544C719.904 147.944 718.744 148.144 717.368 148.144ZM738.518 135.376V148H736.886V145.696C736.438 146.464 735.822 147.064 735.038 147.496C734.254 147.912 733.358 148.12 732.35 148.12C730.702 148.12 729.398 147.664 728.438 146.752C727.494 145.824 727.022 144.472 727.022 142.696V135.376H728.726V142.528C728.726 143.856 729.054 144.864 729.71 145.552C730.366 146.24 731.302 146.584 732.518 146.584C733.846 146.584 734.894 146.184 735.662 145.384C736.43 144.568 736.814 143.44 736.814 142V135.376H738.518ZM744.922 137.848C745.322 137 745.914 136.36 746.698 135.928C747.498 135.496 748.482 135.28 749.65 135.28V136.936L749.242 136.912C747.914 136.912 746.874 137.32 746.122 138.136C745.37 138.952 744.994 140.096 744.994 141.568V148H743.29V135.376H744.922V137.848ZM763.882 135.376L758.266 148H756.514L750.922 135.376H752.698L757.426 146.128L762.202 135.376H763.882ZM766.282 135.376H767.986V148H766.282V135.376ZM767.146 132.616C766.794 132.616 766.498 132.496 766.258 132.256C766.018 132.016 765.898 131.728 765.898 131.392C765.898 131.072 766.018 130.792 766.258 130.552C766.498 130.312 766.794 130.192 767.146 130.192C767.498 130.192 767.794 130.312 768.034 130.552C768.274 130.776 768.394 131.048 768.394 131.368C768.394 131.72 768.274 132.016 768.034 132.256C767.794 132.496 767.498 132.616 767.146 132.616ZM783.336 135.376L777.72 148H775.968L770.376 135.376H772.152L776.88 146.128L781.656 135.376H783.336ZM789.776 135.28C791.424 135.28 792.688 135.696 793.568 136.528C794.448 137.344 794.888 138.56 794.888 140.176V148H793.256V146.032C792.872 146.688 792.304 147.2 791.552 147.568C790.816 147.936 789.936 148.12 788.912 148.12C787.504 148.12 786.384 147.784 785.552 147.112C784.72 146.44 784.304 145.552 784.304 144.448C784.304 143.376 784.688 142.512 785.456 141.856C786.24 141.2 787.48 140.872 789.176 140.872H793.184V140.104C793.184 139.016 792.88 138.192 792.272 137.632C791.664 137.056 790.776 136.768 789.608 136.768C788.808 136.768 788.04 136.904 787.304 137.176C786.568 137.432 785.936 137.792 785.408 138.256L784.64 136.984C785.28 136.44 786.048 136.024 786.944 135.736C787.84 135.432 788.784 135.28 789.776 135.28ZM789.176 146.776C790.136 146.776 790.96 146.56 791.648 146.128C792.336 145.68 792.848 145.04 793.184 144.208V142.144H789.224C787.064 142.144 785.984 142.896 785.984 144.4C785.984 145.136 786.264 145.72 786.824 146.152C787.384 146.568 788.168 146.776 789.176 146.776ZM799.517 130.192H801.221V148H799.517V130.192ZM823.139 143.512H813.779L811.763 148H809.915L817.595 131.2H819.347L827.027 148H825.155L823.139 143.512ZM822.491 142.072L818.459 133.048L814.427 142.072H822.491ZM834.561 148.12C833.313 148.12 832.193 147.848 831.201 147.304C830.225 146.76 829.457 146 828.897 145.024C828.337 144.032 828.057 142.92 828.057 141.688C828.057 140.456 828.337 139.352 828.897 138.376C829.457 137.4 830.225 136.64 831.201 136.096C832.193 135.552 833.313 135.28 834.561 135.28C835.649 135.28 836.617 135.496 837.465 135.928C838.329 136.344 839.009 136.96 839.505 137.776L838.233 138.64C837.817 138.016 837.289 137.552 836.649 137.248C836.009 136.928 835.313 136.768 834.561 136.768C833.649 136.768 832.825 136.976 832.089 137.392C831.369 137.792 830.801 138.368 830.385 139.12C829.985 139.872 829.785 140.728 829.785 141.688C829.785 142.664 829.985 143.528 830.385 144.28C830.801 145.016 831.369 145.592 832.089 146.008C832.825 146.408 833.649 146.608 834.561 146.608C835.313 146.608 836.009 146.456 836.649 146.152C837.289 145.848 837.817 145.384 838.233 144.76L839.505 145.624C839.009 146.44 838.329 147.064 837.465 147.496C836.601 147.912 835.633 148.12 834.561 148.12ZM849.641 147.232C849.321 147.52 848.921 147.744 848.441 147.904C847.977 148.048 847.489 148.12 846.977 148.12C845.793 148.12 844.881 147.8 844.241 147.16C843.601 146.52 843.281 145.616 843.281 144.448V136.816H841.025V135.376H843.281V132.616H844.985V135.376H848.825V136.816H844.985V144.352C844.985 145.104 845.169 145.68 845.537 146.08C845.921 146.464 846.465 146.656 847.169 146.656C847.521 146.656 847.857 146.6 848.177 146.488C848.513 146.376 848.801 146.216 849.041 146.008L849.641 147.232ZM852.743 135.376H854.447V148H852.743V135.376ZM853.607 132.616C853.255 132.616 852.959 132.496 852.719 132.256C852.479 132.016 852.359 131.728 852.359 131.392C852.359 131.072 852.479 130.792 852.719 130.552C852.959 130.312 853.255 130.192 853.607 130.192C853.959 130.192 854.255 130.312 854.495 130.552C854.735 130.776 854.855 131.048 854.855 131.368C854.855 131.72 854.735 132.016 854.495 132.256C854.255 132.496 853.959 132.616 853.607 132.616ZM864.349 148.12C863.133 148.12 862.037 147.848 861.061 147.304C860.085 146.744 859.317 145.976 858.757 145C858.197 144.024 857.917 142.92 857.917 141.688C857.917 140.456 858.197 139.352 858.757 138.376C859.317 137.4 860.085 136.64 861.061 136.096C862.037 135.552 863.133 135.28 864.349 135.28C865.565 135.28 866.661 135.552 867.637 136.096C868.613 136.64 869.373 137.4 869.917 138.376C870.477 139.352 870.757 140.456 870.757 141.688C870.757 142.92 870.477 144.024 869.917 145C869.373 145.976 868.613 146.744 867.637 147.304C866.661 147.848 865.565 148.12 864.349 148.12ZM864.349 146.608C865.245 146.608 866.045 146.408 866.749 146.008C867.469 145.592 868.029 145.008 868.429 144.256C868.829 143.504 869.029 142.648 869.029 141.688C869.029 140.728 868.829 139.872 868.429 139.12C868.029 138.368 867.469 137.792 866.749 137.392C866.045 136.976 865.245 136.768 864.349 136.768C863.453 136.768 862.645 136.976 861.925 137.392C861.221 137.792 860.661 138.368 860.245 139.12C859.845 139.872 859.645 140.728 859.645 141.688C859.645 142.648 859.845 143.504 860.245 144.256C860.661 145.008 861.221 145.592 861.925 146.008C862.645 146.408 863.453 146.608 864.349 146.608ZM880.667 135.28C882.251 135.28 883.507 135.744 884.435 136.672C885.379 137.584 885.851 138.92 885.851 140.68V148H884.147V140.848C884.147 139.536 883.819 138.536 883.163 137.848C882.507 137.16 881.571 136.816 880.355 136.816C878.995 136.816 877.915 137.224 877.115 138.04C876.331 138.84 875.939 139.952 875.939 141.376V148H874.235V135.376H875.867V137.704C876.331 136.936 876.971 136.344 877.787 135.928C878.619 135.496 879.579 135.28 880.667 135.28ZM909.119 146.512V151.048H907.511V148H896.207V151.048H894.599V146.512H895.319C896.167 146.464 896.743 145.84 897.047 144.64C897.351 143.44 897.559 141.76 897.671 139.6L897.839 135.376H907.151V146.512H909.119ZM899.231 139.696C899.151 141.488 898.999 142.968 898.775 144.136C898.551 145.288 898.151 146.08 897.575 146.512H905.447V136.888H899.375L899.231 139.696ZM917.648 148.12C916.432 148.12 915.336 147.848 914.36 147.304C913.384 146.744 912.616 145.976 912.056 145C911.496 144.024 911.216 142.92 911.216 141.688C911.216 140.456 911.496 139.352 912.056 138.376C912.616 137.4 913.384 136.64 914.36 136.096C915.336 135.552 916.432 135.28 917.648 135.28C918.864 135.28 919.96 135.552 920.936 136.096C921.912 136.64 922.672 137.4 923.216 138.376C923.776 139.352 924.056 140.456 924.056 141.688C924.056 142.92 923.776 144.024 923.216 145C922.672 145.976 921.912 146.744 920.936 147.304C919.96 147.848 918.864 148.12 917.648 148.12ZM917.648 146.608C918.544 146.608 919.344 146.408 920.048 146.008C920.768 145.592 921.328 145.008 921.728 144.256C922.128 143.504 922.328 142.648 922.328 141.688C922.328 140.728 922.128 139.872 921.728 139.12C921.328 138.368 920.768 137.792 920.048 137.392C919.344 136.976 918.544 136.768 917.648 136.768C916.752 136.768 915.944 136.976 915.224 137.392C914.52 137.792 913.96 138.368 913.544 139.12C913.144 139.872 912.944 140.728 912.944 141.688C912.944 142.648 913.144 143.504 913.544 144.256C913.96 145.008 914.52 145.592 915.224 146.008C915.944 146.408 916.752 146.608 917.648 146.608ZM938.923 148.144C937.675 148.144 936.475 147.944 935.323 147.544C934.187 147.144 933.307 146.616 932.683 145.96L933.379 144.592C933.987 145.2 934.795 145.696 935.803 146.08C936.811 146.448 937.851 146.632 938.923 146.632C940.427 146.632 941.555 146.36 942.307 145.816C943.059 145.256 943.435 144.536 943.435 143.656C943.435 142.984 943.227 142.448 942.811 142.048C942.411 141.648 941.915 141.344 941.323 141.136C940.731 140.912 939.907 140.672 938.851 140.416C937.587 140.096 936.579 139.792 935.827 139.504C935.075 139.2 934.427 138.744 933.883 138.136C933.355 137.528 933.091 136.704 933.091 135.664C933.091 134.816 933.315 134.048 933.763 133.36C934.211 132.656 934.899 132.096 935.827 131.68C936.755 131.264 937.907 131.056 939.283 131.056C940.243 131.056 941.179 131.192 942.091 131.464C943.019 131.72 943.819 132.08 944.491 132.544L943.891 133.96C943.187 133.496 942.435 133.152 941.635 132.928C940.835 132.688 940.051 132.568 939.283 132.568C937.811 132.568 936.699 132.856 935.947 133.432C935.211 133.992 934.843 134.72 934.843 135.616C934.843 136.288 935.043 136.832 935.443 137.248C935.859 137.648 936.371 137.96 936.979 138.184C937.603 138.392 938.435 138.624 939.475 138.88C940.707 139.184 941.699 139.488 942.451 139.792C943.219 140.08 943.867 140.528 944.395 141.136C944.923 141.728 945.187 142.536 945.187 143.56C945.187 144.408 944.955 145.184 944.491 145.888C944.043 146.576 943.347 147.128 942.403 147.544C941.459 147.944 940.299 148.144 938.923 148.144ZM955.344 147.232C955.024 147.52 954.624 147.744 954.144 147.904C953.68 148.048 953.192 148.12 952.68 148.12C951.496 148.12 950.584 147.8 949.944 147.16C949.304 146.52 948.984 145.616 948.984 144.448V136.816H946.728V135.376H948.984V132.616H950.688V135.376H954.528V136.816H950.688V144.352C950.688 145.104 950.872 145.68 951.24 146.08C951.624 146.464 952.168 146.656 952.872 146.656C953.224 146.656 953.56 146.6 953.88 146.488C954.216 146.376 954.504 146.216 954.744 146.008L955.344 147.232ZM960.078 137.848C960.478 137 961.07 136.36 961.854 135.928C962.654 135.496 963.638 135.28 964.806 135.28V136.936L964.398 136.912C963.07 136.912 962.03 137.32 961.278 138.136C960.526 138.952 960.15 140.096 960.15 141.568V148H958.446V135.376H960.078V137.848ZM972.284 135.28C973.932 135.28 975.196 135.696 976.076 136.528C976.956 137.344 977.396 138.56 977.396 140.176V148H975.764V146.032C975.38 146.688 974.812 147.2 974.06 147.568C973.324 147.936 972.444 148.12 971.42 148.12C970.012 148.12 968.892 147.784 968.06 147.112C967.228 146.44 966.812 145.552 966.812 144.448C966.812 143.376 967.196 142.512 967.964 141.856C968.748 141.2 969.988 140.872 971.684 140.872H975.692V140.104C975.692 139.016 975.388 138.192 974.78 137.632C974.172 137.056 973.284 136.768 972.116 136.768C971.316 136.768 970.548 136.904 969.812 137.176C969.076 137.432 968.444 137.792 967.916 138.256L967.148 136.984C967.788 136.44 968.556 136.024 969.452 135.736C970.348 135.432 971.292 135.28 972.284 135.28ZM971.684 146.776C972.644 146.776 973.468 146.56 974.156 146.128C974.844 145.68 975.356 145.04 975.692 144.208V142.144H971.732C969.572 142.144 968.492 142.896 968.492 144.4C968.492 145.136 968.772 145.72 969.332 146.152C969.892 146.568 970.676 146.776 971.684 146.776ZM988.672 147.232C988.352 147.52 987.952 147.744 987.472 147.904C987.008 148.048 986.52 148.12 986.008 148.12C984.824 148.12 983.912 147.8 983.272 147.16C982.632 146.52 982.312 145.616 982.312 144.448V136.816H980.056V135.376H982.312V132.616H984.016V135.376H987.856V136.816H984.016V144.352C984.016 145.104 984.2 145.68 984.568 146.08C984.952 146.464 985.496 146.656 986.2 146.656C986.552 146.656 986.888 146.6 987.208 146.488C987.544 146.376 987.832 146.216 988.072 146.008L988.672 147.232ZM1002.32 142.216H991.761C991.857 143.528 992.361 144.592 993.273 145.408C994.185 146.208 995.337 146.608 996.729 146.608C997.513 146.608 998.233 146.472 998.889 146.2C999.545 145.912 1000.11 145.496 1000.59 144.952L1001.55 146.056C1000.99 146.728 1000.29 147.24 999.441 147.592C998.609 147.944 997.689 148.12 996.681 148.12C995.385 148.12 994.233 147.848 993.225 147.304C992.233 146.744 991.457 145.976 990.897 145C990.337 144.024 990.057 142.92 990.057 141.688C990.057 140.456 990.321 139.352 990.849 138.376C991.393 137.4 992.129 136.64 993.057 136.096C994.001 135.552 995.057 135.28 996.225 135.28C997.393 135.28 998.441 135.552 999.369 136.096C1000.3 136.64 1001.03 137.4 1001.55 138.376C1002.08 139.336 1002.35 140.44 1002.35 141.688L1002.32 142.216ZM996.225 136.744C995.009 136.744 993.985 137.136 993.153 137.92C992.337 138.688 991.873 139.696 991.761 140.944H1000.71C1000.6 139.696 1000.13 138.688 999.297 137.92C998.481 137.136 997.457 136.744 996.225 136.744ZM1017.5 135.376V146.464C1017.5 148.608 1016.97 150.192 1015.92 151.216C1014.88 152.256 1013.3 152.776 1011.19 152.776C1010.02 152.776 1008.91 152.6 1007.85 152.248C1006.81 151.912 1005.97 151.44 1005.31 150.832L1006.17 149.536C1006.78 150.08 1007.52 150.504 1008.38 150.808C1009.26 151.112 1010.18 151.264 1011.14 151.264C1012.74 151.264 1013.92 150.888 1014.67 150.136C1015.42 149.4 1015.8 148.248 1015.8 146.68V145.072C1015.27 145.872 1014.57 146.48 1013.71 146.896C1012.86 147.312 1011.92 147.52 1010.88 147.52C1009.69 147.52 1008.61 147.264 1007.64 146.752C1006.68 146.224 1005.92 145.496 1005.36 144.568C1004.81 143.624 1004.54 142.56 1004.54 141.376C1004.54 140.192 1004.81 139.136 1005.36 138.208C1005.92 137.28 1006.68 136.56 1007.64 136.048C1008.6 135.536 1009.68 135.28 1010.88 135.28C1011.95 135.28 1012.92 135.496 1013.78 135.928C1014.65 136.36 1015.34 136.984 1015.87 137.8V135.376H1017.5ZM1011.05 146.008C1011.96 146.008 1012.78 145.816 1013.52 145.432C1014.25 145.032 1014.82 144.48 1015.22 143.776C1015.64 143.072 1015.85 142.272 1015.85 141.376C1015.85 140.48 1015.64 139.688 1015.22 139C1014.82 138.296 1014.25 137.752 1013.52 137.368C1012.8 136.968 1011.97 136.768 1011.05 136.768C1010.13 136.768 1009.31 136.96 1008.57 137.344C1007.85 137.728 1007.29 138.272 1006.87 138.976C1006.47 139.68 1006.27 140.48 1006.27 141.376C1006.27 142.272 1006.47 143.072 1006.87 143.776C1007.29 144.48 1007.85 145.032 1008.57 145.432C1009.31 145.816 1010.13 146.008 1011.05 146.008ZM1032.87 135.376L1026.56 149.512C1026.05 150.696 1025.46 151.536 1024.79 152.032C1024.11 152.528 1023.31 152.776 1022.36 152.776C1021.75 152.776 1021.19 152.68 1020.66 152.488C1020.13 152.296 1019.67 152.008 1019.29 151.624L1020.08 150.352C1020.72 150.992 1021.49 151.312 1022.39 151.312C1022.96 151.312 1023.45 151.152 1023.85 150.832C1024.27 150.512 1024.65 149.968 1025 149.2L1025.55 147.976L1019.91 135.376H1021.69L1026.44 146.104L1031.19 135.376H1032.87ZM1041.6 135.376H1043.31V140.968H1051.25V135.376H1052.96V148H1051.25V142.432H1043.31V148H1041.6V135.376ZM1062.14 135.28C1063.79 135.28 1065.06 135.696 1065.94 136.528C1066.82 137.344 1067.26 138.56 1067.26 140.176V148H1065.62V146.032C1065.24 146.688 1064.67 147.2 1063.92 147.568C1063.18 147.936 1062.3 148.12 1061.28 148.12C1059.87 148.12 1058.75 147.784 1057.92 147.112C1057.09 146.44 1056.67 145.552 1056.67 144.448C1056.67 143.376 1057.06 142.512 1057.82 141.856C1058.61 141.2 1059.85 140.872 1061.54 140.872H1065.55V140.104C1065.55 139.016 1065.25 138.192 1064.64 137.632C1064.03 137.056 1063.14 136.768 1061.98 136.768C1061.18 136.768 1060.41 136.904 1059.67 137.176C1058.94 137.432 1058.3 137.792 1057.78 138.256L1057.01 136.984C1057.65 136.44 1058.42 136.024 1059.31 135.736C1060.21 135.432 1061.15 135.28 1062.14 135.28ZM1061.54 146.776C1062.5 146.776 1063.33 146.56 1064.02 146.128C1064.7 145.68 1065.22 145.04 1065.55 144.208V142.144H1061.59C1059.43 142.144 1058.35 142.896 1058.35 144.4C1058.35 145.136 1058.63 145.72 1059.19 146.152C1059.75 146.568 1060.54 146.776 1061.54 146.776ZM1084.58 135.28C1085.76 135.28 1086.83 135.552 1087.79 136.096C1088.75 136.624 1089.5 137.376 1090.05 138.352C1090.59 139.328 1090.86 140.44 1090.86 141.688C1090.86 142.952 1090.59 144.072 1090.05 145.048C1089.5 146.024 1088.75 146.784 1087.79 147.328C1086.85 147.856 1085.78 148.12 1084.58 148.12C1083.55 148.12 1082.62 147.912 1081.79 147.496C1080.98 147.064 1080.3 146.44 1079.78 145.624V152.656H1078.07V135.376H1079.7V137.872C1080.22 137.04 1080.89 136.4 1081.72 135.952C1082.57 135.504 1083.52 135.28 1084.58 135.28ZM1084.46 146.608C1085.34 146.608 1086.14 146.408 1086.86 146.008C1087.58 145.592 1088.14 145.008 1088.54 144.256C1088.95 143.504 1089.16 142.648 1089.16 141.688C1089.16 140.728 1088.95 139.88 1088.54 139.144C1088.14 138.392 1087.58 137.808 1086.86 137.392C1086.14 136.976 1085.34 136.768 1084.46 136.768C1083.56 136.768 1082.75 136.976 1082.03 137.392C1081.33 137.808 1080.77 138.392 1080.35 139.144C1079.95 139.88 1079.75 140.728 1079.75 141.688C1079.75 142.648 1079.95 143.504 1080.35 144.256C1080.77 145.008 1081.33 145.592 1082.03 146.008C1082.75 146.408 1083.56 146.608 1084.46 146.608ZM1098.8 135.28C1100.45 135.28 1101.71 135.696 1102.59 136.528C1103.47 137.344 1103.91 138.56 1103.91 140.176V148H1102.28V146.032C1101.9 146.688 1101.33 147.2 1100.58 147.568C1099.84 147.936 1098.96 148.12 1097.94 148.12C1096.53 148.12 1095.41 147.784 1094.58 147.112C1093.74 146.44 1093.33 145.552 1093.33 144.448C1093.33 143.376 1093.71 142.512 1094.48 141.856C1095.26 141.2 1096.5 140.872 1098.2 140.872H1102.21V140.104C1102.21 139.016 1101.9 138.192 1101.3 137.632C1100.69 137.056 1099.8 136.768 1098.63 136.768C1097.83 136.768 1097.06 136.904 1096.33 137.176C1095.59 137.432 1094.96 137.792 1094.43 138.256L1093.66 136.984C1094.3 136.44 1095.07 136.024 1095.97 135.736C1096.86 135.432 1097.81 135.28 1098.8 135.28ZM1098.2 146.776C1099.16 146.776 1099.98 146.56 1100.67 146.128C1101.36 145.68 1101.87 145.04 1102.21 144.208V142.144H1098.25C1096.09 142.144 1095.01 142.896 1095.01 144.4C1095.01 145.136 1095.29 145.72 1095.85 146.152C1096.41 146.568 1097.19 146.776 1098.2 146.776ZM1114.33 141.424C1115.23 141.632 1115.92 141.992 1116.4 142.504C1116.89 143.016 1117.14 143.64 1117.14 144.376C1117.14 145.112 1116.89 145.768 1116.37 146.344C1115.88 146.92 1115.2 147.368 1114.33 147.688C1113.47 147.992 1112.52 148.144 1111.48 148.144C1110.57 148.144 1109.67 148.016 1108.79 147.76C1107.91 147.488 1107.14 147.096 1106.49 146.584L1107.06 145.312C1107.64 145.744 1108.31 146.08 1109.08 146.32C1109.85 146.56 1110.62 146.68 1111.41 146.68C1112.57 146.68 1113.53 146.464 1114.26 146.032C1115.01 145.584 1115.39 144.984 1115.39 144.232C1115.39 143.56 1115.09 143.04 1114.48 142.672C1113.87 142.288 1113.04 142.096 1111.98 142.096H1109.82V140.848H1111.89C1112.83 140.848 1113.59 140.672 1114.17 140.32C1114.74 139.952 1115.03 139.464 1115.03 138.856C1115.03 138.184 1114.7 137.656 1114.05 137.272C1113.41 136.888 1112.57 136.696 1111.53 136.696C1110.17 136.696 1108.82 137.04 1107.49 137.728L1107.01 136.408C1108.52 135.624 1110.08 135.232 1111.69 135.232C1112.65 135.232 1113.52 135.376 1114.29 135.664C1115.07 135.936 1115.68 136.328 1116.11 136.84C1116.56 137.352 1116.78 137.944 1116.78 138.616C1116.78 139.256 1116.56 139.824 1116.11 140.32C1115.68 140.816 1115.09 141.184 1114.33 141.424ZM1121.01 135.376H1122.71V140.968H1130.66V135.376H1132.36V148H1130.66V142.432H1122.71V148H1121.01V135.376ZM1142.51 139.84C1144.09 139.856 1145.3 140.208 1146.13 140.896C1146.97 141.584 1147.38 142.576 1147.38 143.872C1147.38 145.216 1146.93 146.248 1146.04 146.968C1145.14 147.688 1143.86 148.04 1142.2 148.024L1137.21 148V135.376H1138.91V139.792L1142.51 139.84ZM1149.49 135.376H1151.2V148H1149.49V135.376ZM1142.1 146.728C1143.27 146.744 1144.15 146.512 1144.74 146.032C1145.35 145.536 1145.65 144.816 1145.65 143.872C1145.65 142.944 1145.36 142.256 1144.77 141.808C1144.17 141.36 1143.29 141.128 1142.1 141.112L1138.91 141.064V146.68L1142.1 146.728ZM1163.95 148L1159.94 142.72L1155.91 148H1153.99L1158.98 141.52L1154.23 135.376H1156.15L1159.94 140.32L1163.73 135.376H1165.6L1160.85 141.52L1165.89 148H1163.95ZM724.736 176.512V181.048H723.128V178H711.824V181.048H710.216V176.512H710.936C711.784 176.464 712.36 175.84 712.664 174.64C712.968 173.44 713.176 171.76 713.288 169.6L713.456 165.376H722.768V176.512H724.736ZM714.848 169.696C714.768 171.488 714.616 172.968 714.392 174.136C714.168 175.288 713.768 176.08 713.192 176.512H721.064V166.888H714.992L714.848 169.696ZM736.097 171.472C737.809 171.872 738.665 172.904 738.665 174.568C738.665 175.672 738.257 176.52 737.441 177.112C736.625 177.704 735.409 178 733.793 178H728.057V165.376H733.625C735.065 165.376 736.193 165.656 737.009 166.216C737.825 166.776 738.233 167.576 738.233 168.616C738.233 169.304 738.041 169.896 737.657 170.392C737.289 170.872 736.769 171.232 736.097 171.472ZM729.713 170.992H733.505C734.481 170.992 735.225 170.808 735.737 170.44C736.265 170.072 736.529 169.536 736.529 168.832C736.529 168.128 736.265 167.6 735.737 167.248C735.225 166.896 734.481 166.72 733.505 166.72H729.713V170.992ZM733.721 176.656C734.809 176.656 735.625 176.48 736.169 176.128C736.713 175.776 736.985 175.224 736.985 174.472C736.985 173.72 736.737 173.168 736.241 172.816C735.745 172.448 734.961 172.264 733.889 172.264H729.713V176.656H733.721ZM742.658 165.376H744.362V175.408L752.786 165.376H754.298V178H752.594V167.968L744.194 178H742.658V165.376ZM770.246 172.384H767.51V178H765.806V172.384H763.07L759.206 178H757.166L761.702 171.496L757.526 165.376H759.374L763.07 170.92H765.806V165.376H767.51V170.92H770.246L773.966 165.376H775.814L771.638 171.52L776.174 178H774.134L770.246 172.384ZM783.594 172.384H780.714V178H779.01V165.376H780.714V170.92H783.618L788.058 165.376H789.906L784.938 171.496L790.266 178H788.25L783.594 172.384ZM797.065 165.28C798.713 165.28 799.977 165.696 800.857 166.528C801.737 167.344 802.177 168.56 802.177 170.176V178H800.545V176.032C800.161 176.688 799.593 177.2 798.841 177.568C798.105 177.936 797.225 178.12 796.201 178.12C794.793 178.12 793.673 177.784 792.841 177.112C792.009 176.44 791.593 175.552 791.593 174.448C791.593 173.376 791.977 172.512 792.745 171.856C793.529 171.2 794.769 170.872 796.465 170.872H800.473V170.104C800.473 169.016 800.169 168.192 799.561 167.632C798.953 167.056 798.065 166.768 796.897 166.768C796.097 166.768 795.329 166.904 794.593 167.176C793.857 167.432 793.225 167.792 792.697 168.256L791.929 166.984C792.569 166.44 793.337 166.024 794.233 165.736C795.129 165.432 796.073 165.28 797.065 165.28ZM796.465 176.776C797.425 176.776 798.249 176.56 798.937 176.128C799.625 175.68 800.137 175.04 800.473 174.208V172.144H796.513C794.353 172.144 793.273 172.896 793.273 174.4C793.273 175.136 793.553 175.72 794.113 176.152C794.673 176.568 795.457 176.776 796.465 176.776ZM814.609 178L810.601 172.72L806.569 178H804.649L809.641 171.52L804.889 165.376H806.809L810.601 170.32L814.393 165.376H816.265L811.513 171.52L816.553 178H814.609ZM819.466 178.12C819.114 178.12 818.81 177.992 818.554 177.736C818.314 177.48 818.194 177.168 818.194 176.8C818.194 176.432 818.314 176.128 818.554 175.888C818.81 175.632 819.114 175.504 819.466 175.504C819.818 175.504 820.122 175.632 820.378 175.888C820.634 176.128 820.762 176.432 820.762 176.8C820.762 177.168 820.634 177.48 820.378 177.736C820.122 177.992 819.818 178.12 819.466 178.12Z" fill="white"/>
<defs>
<filter id="filter0_bd" x="0" y="-12" width="1334.5" height="324" filterUnits="userSpaceOnUse" color-interpolation-filters="sRGB">
<feFlood flood-opacity="0" result="BackgroundImageFix"/>
<feGaussianBlur in="BackgroundImage" stdDeviation="25"/>
<feComposite in2="SourceAlpha" operator="in" result="effect1_backgroundBlur"/>
<feColorMatrix in="SourceAlpha" type="matrix" values="0 0 0 0 0 0 0 0 0 0 0 0 0 0 0 0 0 0 127 0" result="hardAlpha"/>
<feOffset dy="32"/>
<feGaussianBlur stdDeviation="35"/>
<feColorMatrix type="matrix" values="0 0 0 0 0.235294 0 0 0 0 0.235294 0 0 0 0 0.235294 0 0 0 0.5 0"/>
<feBlend mode="normal" in2="effect1_backgroundBlur" result="effect2_dropShadow"/>
<feBlend mode="normal" in="SourceGraphic" in2="effect2_dropShadow" result="shape"/>
</filter>
</defs>
</svg>
