<svg width="537" height="296" viewBox="0 0 537 296" fill="none" xmlns="http://www.w3.org/2000/svg">
<path d="M149.032 77L149.014 69.458L145.306 75.668H144.01L140.302 69.602V77H137.566V64.4H139.978L144.694 72.23L149.338 64.4H151.75L151.768 77H149.032ZM164.096 72.194C164.096 72.23 164.078 72.482 164.042 72.95H156.716C156.848 73.55 157.16 74.024 157.652 74.372C158.144 74.72 158.756 74.894 159.488 74.894C159.992 74.894 160.436 74.822 160.82 74.678C161.216 74.522 161.582 74.282 161.918 73.958L163.412 75.578C162.5 76.622 161.168 77.144 159.416 77.144C158.324 77.144 157.358 76.934 156.518 76.514C155.678 76.082 155.03 75.488 154.574 74.732C154.118 73.976 153.89 73.118 153.89 72.158C153.89 71.21 154.112 70.358 154.556 69.602C155.012 68.834 155.63 68.24 156.41 67.82C157.202 67.388 158.084 67.172 159.056 67.172C160.004 67.172 160.862 67.376 161.63 67.784C162.398 68.192 162.998 68.78 163.43 69.548C163.874 70.304 164.096 71.186 164.096 72.194ZM159.074 69.296C158.438 69.296 157.904 69.476 157.472 69.836C157.04 70.196 156.776 70.688 156.68 71.312H161.45C161.354 70.7 161.09 70.214 160.658 69.854C160.226 69.482 159.698 69.296 159.074 69.296ZM174.96 67.316V77H172.152V73.4C171.336 73.808 170.436 74.012 169.452 74.012C168.144 74.012 167.154 73.718 166.482 73.13C165.822 72.53 165.492 71.606 165.492 70.358V67.316H168.3V70.178C168.3 70.766 168.45 71.192 168.75 71.456C169.062 71.72 169.506 71.852 170.082 71.852C170.814 71.852 171.504 71.696 172.152 71.384V67.316H174.96ZM185.793 69.62H182.517V77H179.727V69.62H176.451V67.316H185.793V69.62ZM191.051 67.172C192.551 67.172 193.703 67.532 194.507 68.252C195.311 68.96 195.713 70.034 195.713 71.474V77H193.085V75.794C192.557 76.694 191.573 77.144 190.133 77.144C189.389 77.144 188.741 77.018 188.189 76.766C187.649 76.514 187.235 76.166 186.947 75.722C186.659 75.278 186.515 74.774 186.515 74.21C186.515 73.31 186.851 72.602 187.523 72.086C188.207 71.57 189.257 71.312 190.673 71.312H192.905C192.905 70.7 192.719 70.232 192.347 69.908C191.975 69.572 191.417 69.404 190.673 69.404C190.157 69.404 189.647 69.488 189.143 69.656C188.651 69.812 188.231 70.028 187.883 70.304L186.875 68.342C187.403 67.97 188.033 67.682 188.765 67.478C189.509 67.274 190.271 67.172 191.051 67.172ZM190.835 75.254C191.315 75.254 191.741 75.146 192.113 74.93C192.485 74.702 192.749 74.372 192.905 73.94V72.95H190.979C189.827 72.95 189.251 73.328 189.251 74.084C189.251 74.444 189.389 74.732 189.665 74.948C189.953 75.152 190.343 75.254 190.835 75.254ZM207.567 72.194C207.567 72.23 207.549 72.482 207.513 72.95H200.187C200.319 73.55 200.631 74.024 201.123 74.372C201.615 74.72 202.227 74.894 202.959 74.894C203.463 74.894 203.907 74.822 204.291 74.678C204.687 74.522 205.053 74.282 205.389 73.958L206.883 75.578C205.971 76.622 204.639 77.144 202.887 77.144C201.795 77.144 200.829 76.934 199.989 76.514C199.149 76.082 198.501 75.488 198.045 74.732C197.589 73.976 197.361 73.118 197.361 72.158C197.361 71.21 197.583 70.358 198.027 69.602C198.483 68.834 199.101 68.24 199.881 67.82C200.673 67.388 201.555 67.172 202.527 67.172C203.475 67.172 204.333 67.376 205.101 67.784C205.869 68.192 206.469 68.78 206.901 69.548C207.345 70.304 207.567 71.186 207.567 72.194ZM202.545 69.296C201.909 69.296 201.375 69.476 200.943 69.836C200.511 70.196 200.247 70.688 200.151 71.312H204.921C204.825 70.7 204.561 70.214 204.129 69.854C203.697 69.482 203.169 69.296 202.545 69.296ZM224.497 67.316V77H209.719V67.316H212.509V74.696H215.731V67.316H218.521V74.696H221.707V67.316H224.497ZM232.43 70.412C233.69 70.424 234.656 70.712 235.328 71.276C236 71.828 236.336 72.614 236.336 73.634C236.336 74.702 235.958 75.536 235.202 76.136C234.458 76.724 233.408 77.018 232.052 77.018L227.192 77V67.316H229.982V70.412H232.43ZM231.8 75.02C232.34 75.032 232.754 74.918 233.042 74.678C233.33 74.438 233.474 74.078 233.474 73.598C233.474 73.13 233.33 72.788 233.042 72.572C232.766 72.356 232.352 72.242 231.8 72.23L229.982 72.212V75.02H231.8ZM247.724 77.144C246.704 77.144 245.786 76.934 244.97 76.514C244.166 76.082 243.536 75.488 243.08 74.732C242.624 73.976 242.396 73.118 242.396 72.158C242.396 71.198 242.624 70.34 243.08 69.584C243.536 68.828 244.166 68.24 244.97 67.82C245.786 67.388 246.704 67.172 247.724 67.172C248.744 67.172 249.656 67.388 250.46 67.82C251.264 68.24 251.894 68.828 252.35 69.584C252.806 70.34 253.034 71.198 253.034 72.158C253.034 73.118 252.806 73.976 252.35 74.732C251.894 75.488 251.264 76.082 250.46 76.514C249.656 76.934 248.744 77.144 247.724 77.144ZM247.724 74.84C248.444 74.84 249.032 74.6 249.488 74.12C249.956 73.628 250.19 72.974 250.19 72.158C250.19 71.342 249.956 70.694 249.488 70.214C249.032 69.722 248.444 69.476 247.724 69.476C247.004 69.476 246.41 69.722 245.942 70.214C245.474 70.694 245.24 71.342 245.24 72.158C245.24 72.974 245.474 73.628 245.942 74.12C246.41 74.6 247.004 74.84 247.724 74.84ZM260.563 67.982C261.487 67.982 262.297 68.174 262.993 68.558C263.689 68.93 264.223 69.458 264.595 70.142C264.979 70.826 265.171 71.618 265.171 72.518C265.171 73.442 264.943 74.264 264.487 74.984C264.043 75.692 263.419 76.244 262.615 76.64C261.811 77.024 260.899 77.216 259.879 77.216C258.187 77.216 256.855 76.676 255.883 75.596C254.923 74.504 254.443 72.908 254.443 70.808C254.443 68.864 254.863 67.316 255.703 66.164C256.555 65 257.857 64.238 259.609 63.878L264.217 62.96L264.595 65.372L260.527 66.182C259.423 66.398 258.601 66.758 258.061 67.262C257.533 67.766 257.221 68.48 257.125 69.404C257.545 68.948 258.049 68.6 258.637 68.36C259.225 68.108 259.867 67.982 260.563 67.982ZM259.897 75.038C260.617 75.038 261.193 74.804 261.625 74.336C262.069 73.868 262.291 73.274 262.291 72.554C262.291 71.822 262.069 71.24 261.625 70.808C261.193 70.376 260.617 70.16 259.897 70.16C259.165 70.16 258.577 70.376 258.133 70.808C257.689 71.24 257.467 71.822 257.467 72.554C257.467 73.286 257.695 73.886 258.151 74.354C258.607 74.81 259.189 75.038 259.897 75.038ZM272.174 67.316H274.964V73.076L279.68 67.316H282.254V77H279.464V71.24L274.766 77H272.174V67.316ZM292.712 69.62H287.744V77H284.954V67.316H292.712V69.62ZM299.906 67.172C300.806 67.172 301.622 67.382 302.354 67.802C303.098 68.21 303.68 68.792 304.1 69.548C304.52 70.292 304.73 71.162 304.73 72.158C304.73 73.154 304.52 74.03 304.1 74.786C303.68 75.53 303.098 76.112 302.354 76.532C301.622 76.94 300.806 77.144 299.906 77.144C298.67 77.144 297.698 76.754 296.99 75.974V80.492H294.182V67.316H296.864V68.432C297.56 67.592 298.574 67.172 299.906 67.172ZM299.42 74.84C300.14 74.84 300.728 74.6 301.184 74.12C301.652 73.628 301.886 72.974 301.886 72.158C301.886 71.342 301.652 70.694 301.184 70.214C300.728 69.722 300.14 69.476 299.42 69.476C298.7 69.476 298.106 69.722 297.638 70.214C297.182 70.694 296.954 71.342 296.954 72.158C296.954 72.974 297.182 73.628 297.638 74.12C298.106 74.6 298.7 74.84 299.42 74.84ZM310.301 67.172C311.801 67.172 312.953 67.532 313.757 68.252C314.561 68.96 314.963 70.034 314.963 71.474V77H312.335V75.794C311.807 76.694 310.823 77.144 309.383 77.144C308.639 77.144 307.991 77.018 307.439 76.766C306.899 76.514 306.485 76.166 306.197 75.722C305.909 75.278 305.765 74.774 305.765 74.21C305.765 73.31 306.101 72.602 306.773 72.086C307.457 71.57 308.507 71.312 309.923 71.312H312.155C312.155 70.7 311.969 70.232 311.597 69.908C311.225 69.572 310.667 69.404 309.923 69.404C309.407 69.404 308.897 69.488 308.393 69.656C307.901 69.812 307.481 70.028 307.133 70.304L306.125 68.342C306.653 67.97 307.283 67.682 308.015 67.478C308.759 67.274 309.521 67.172 310.301 67.172ZM310.085 75.254C310.565 75.254 310.991 75.146 311.363 74.93C311.735 74.702 311.999 74.372 312.155 73.94V72.95H310.229C309.077 72.95 308.501 73.328 308.501 74.084C308.501 74.444 308.639 74.732 308.915 74.948C309.203 75.152 309.593 75.254 310.085 75.254ZM323.487 77L321.363 74.03L319.167 77H316.107L319.833 72.122L316.233 67.316H319.383L321.435 70.142L323.541 67.316H326.529L322.929 72.05L326.673 77H323.487ZM330.963 72.626C330.963 72.002 331.101 71.486 331.377 71.078C331.665 70.67 332.079 70.22 332.619 69.728C333.015 69.368 333.303 69.068 333.483 68.828C333.675 68.576 333.771 68.294 333.771 67.982C333.771 67.538 333.591 67.19 333.231 66.938C332.883 66.674 332.415 66.542 331.827 66.542C331.263 66.542 330.759 66.662 330.315 66.902C329.883 67.13 329.517 67.454 329.217 67.874L327.039 66.596C327.543 65.828 328.221 65.234 329.073 64.814C329.937 64.394 330.957 64.184 332.133 64.184C333.513 64.184 334.617 64.478 335.445 65.066C336.285 65.654 336.705 66.47 336.705 67.514C336.705 68.006 336.621 68.438 336.453 68.81C336.297 69.182 336.099 69.5 335.859 69.764C335.631 70.016 335.331 70.31 334.959 70.646C334.515 71.042 334.191 71.378 333.987 71.654C333.783 71.918 333.681 72.242 333.681 72.626H330.963ZM332.331 77.144C331.839 77.144 331.425 76.988 331.089 76.676C330.765 76.352 330.603 75.962 330.603 75.506C330.603 75.05 330.765 74.672 331.089 74.372C331.413 74.06 331.827 73.904 332.331 73.904C332.835 73.904 333.249 74.06 333.573 74.372C333.897 74.672 334.059 75.05 334.059 75.506C334.059 75.962 333.891 76.352 333.555 76.676C333.231 76.988 332.823 77.144 332.331 77.144ZM143.524 97.216C142.24 97.216 141.076 96.94 140.032 96.388C139 95.824 138.184 95.05 137.584 94.066C136.996 93.07 136.702 91.948 136.702 90.7C136.702 89.452 136.996 88.336 137.584 87.352C138.184 86.356 139 85.582 140.032 85.03C141.076 84.466 142.246 84.184 143.542 84.184C144.634 84.184 145.618 84.376 146.494 84.76C147.382 85.144 148.126 85.696 148.726 86.416L146.854 88.144C146.002 87.16 144.946 86.668 143.686 86.668C142.906 86.668 142.21 86.842 141.598 87.19C140.986 87.526 140.506 88 140.158 88.612C139.822 89.224 139.654 89.92 139.654 90.7C139.654 91.48 139.822 92.176 140.158 92.788C140.506 93.4 140.986 93.88 141.598 94.228C142.21 94.564 142.906 94.732 143.686 94.732C144.946 94.732 146.002 94.234 146.854 93.238L148.726 94.966C148.126 95.698 147.382 96.256 146.494 96.64C145.606 97.024 144.616 97.216 143.524 97.216ZM154.613 97.144C153.593 97.144 152.675 96.934 151.859 96.514C151.055 96.082 150.425 95.488 149.969 94.732C149.513 93.976 149.285 93.118 149.285 92.158C149.285 91.198 149.513 90.34 149.969 89.584C150.425 88.828 151.055 88.24 151.859 87.82C152.675 87.388 153.593 87.172 154.613 87.172C155.633 87.172 156.545 87.388 157.349 87.82C158.153 88.24 158.783 88.828 159.239 89.584C159.695 90.34 159.923 91.198 159.923 92.158C159.923 93.118 159.695 93.976 159.239 94.732C158.783 95.488 158.153 96.082 157.349 96.514C156.545 96.934 155.633 97.144 154.613 97.144ZM154.613 94.84C155.333 94.84 155.921 94.6 156.377 94.12C156.845 93.628 157.079 92.974 157.079 92.158C157.079 91.342 156.845 90.694 156.377 90.214C155.921 89.722 155.333 89.476 154.613 89.476C153.893 89.476 153.299 89.722 152.831 90.214C152.363 90.694 152.129 91.342 152.129 92.158C152.129 92.974 152.363 93.628 152.831 94.12C153.299 94.6 153.893 94.84 154.613 94.84ZM167.96 91.96C168.536 92.14 168.98 92.416 169.292 92.788C169.616 93.16 169.778 93.604 169.778 94.12C169.778 94.732 169.568 95.272 169.148 95.74C168.728 96.196 168.152 96.55 167.42 96.802C166.688 97.054 165.86 97.18 164.936 97.18C164.18 97.18 163.436 97.102 162.704 96.946C161.972 96.79 161.294 96.556 160.67 96.244L161.426 94.282C162.446 94.774 163.574 95.02 164.81 95.02C165.47 95.02 165.986 94.924 166.358 94.732C166.742 94.528 166.934 94.246 166.934 93.886C166.934 93.574 166.802 93.34 166.538 93.184C166.274 93.016 165.89 92.932 165.386 92.932H163.406V91.186H165.134C165.626 91.186 166.004 91.108 166.268 90.952C166.532 90.796 166.664 90.568 166.664 90.268C166.664 89.956 166.496 89.716 166.16 89.548C165.836 89.38 165.368 89.296 164.756 89.296C163.82 89.296 162.8 89.518 161.696 89.962L161.012 88.018C162.356 87.43 163.664 87.136 164.936 87.136C165.812 87.136 166.592 87.244 167.276 87.46C167.972 87.676 168.518 87.994 168.914 88.414C169.31 88.822 169.508 89.302 169.508 89.854C169.508 90.31 169.37 90.724 169.094 91.096C168.818 91.456 168.44 91.744 167.96 91.96ZM182.675 94.696V99.088H180.065V97H173.261V99.088H170.651V94.696H171.047C171.647 94.684 172.061 94.33 172.289 93.634C172.517 92.938 172.661 91.948 172.721 90.664L172.847 87.316H181.289V94.696H182.675ZM175.259 90.862C175.223 91.846 175.145 92.65 175.025 93.274C174.917 93.898 174.707 94.372 174.395 94.696H178.481V89.62H175.313L175.259 90.862ZM188.204 87.172C189.704 87.172 190.856 87.532 191.66 88.252C192.464 88.96 192.866 90.034 192.866 91.474V97H190.238V95.794C189.71 96.694 188.726 97.144 187.286 97.144C186.542 97.144 185.894 97.018 185.342 96.766C184.802 96.514 184.388 96.166 184.1 95.722C183.812 95.278 183.668 94.774 183.668 94.21C183.668 93.31 184.004 92.602 184.676 92.086C185.36 91.57 186.41 91.312 187.826 91.312H190.058C190.058 90.7 189.872 90.232 189.5 89.908C189.128 89.572 188.57 89.404 187.826 89.404C187.31 89.404 186.8 89.488 186.296 89.656C185.804 89.812 185.384 90.028 185.036 90.304L184.028 88.342C184.556 87.97 185.186 87.682 185.918 87.478C186.662 87.274 187.424 87.172 188.204 87.172ZM187.988 95.254C188.468 95.254 188.894 95.146 189.266 94.93C189.638 94.702 189.902 94.372 190.058 93.94V92.95H188.132C186.98 92.95 186.404 93.328 186.404 94.084C186.404 94.444 186.542 94.732 186.818 94.948C187.106 95.152 187.496 95.254 187.988 95.254ZM202.703 91.942C203.843 92.326 204.413 93.094 204.413 94.246C204.413 95.122 204.083 95.8 203.423 96.28C202.763 96.76 201.779 97 200.471 97H195.305V87.316H200.255C201.467 87.316 202.415 87.538 203.099 87.982C203.783 88.414 204.125 89.026 204.125 89.818C204.125 90.298 203.999 90.724 203.747 91.096C203.507 91.456 203.159 91.738 202.703 91.942ZM197.879 91.294H200.003C200.987 91.294 201.479 90.946 201.479 90.25C201.479 89.566 200.987 89.224 200.003 89.224H197.879V91.294ZM200.237 95.092C201.269 95.092 201.785 94.738 201.785 94.03C201.785 93.658 201.665 93.388 201.425 93.22C201.185 93.04 200.807 92.95 200.291 92.95H197.879V95.092H200.237ZM210.264 87.172C211.764 87.172 212.916 87.532 213.72 88.252C214.524 88.96 214.926 90.034 214.926 91.474V97H212.298V95.794C211.77 96.694 210.786 97.144 209.346 97.144C208.602 97.144 207.954 97.018 207.402 96.766C206.862 96.514 206.448 96.166 206.16 95.722C205.872 95.278 205.728 94.774 205.728 94.21C205.728 93.31 206.064 92.602 206.736 92.086C207.42 91.57 208.47 91.312 209.886 91.312H212.118C212.118 90.7 211.932 90.232 211.56 89.908C211.188 89.572 210.63 89.404 209.886 89.404C209.37 89.404 208.86 89.488 208.356 89.656C207.864 89.812 207.444 90.028 207.096 90.304L206.088 88.342C206.616 87.97 207.246 87.682 207.978 87.478C208.722 87.274 209.484 87.172 210.264 87.172ZM210.048 95.254C210.528 95.254 210.954 95.146 211.326 94.93C211.698 94.702 211.962 94.372 212.118 93.94V92.95H210.192C209.04 92.95 208.464 93.328 208.464 94.084C208.464 94.444 208.602 94.732 208.878 94.948C209.166 95.152 209.556 95.254 210.048 95.254ZM217.366 87.316H220.156V93.076L224.872 87.316H227.446V97H224.656V91.24L219.958 97H217.366V87.316ZM222.226 86.272C220.114 86.272 219.052 85.342 219.04 83.482H220.876C220.888 83.902 221.002 84.232 221.218 84.472C221.446 84.7 221.776 84.814 222.208 84.814C222.64 84.814 222.97 84.7 223.198 84.472C223.438 84.232 223.558 83.902 223.558 83.482H225.43C225.418 85.342 224.35 86.272 222.226 86.272ZM235.243 87.316H238.033V93.076L242.749 87.316H245.323V97H242.533V91.24L237.835 97H235.243V87.316ZM254.106 97L251.982 94.03L249.786 97H246.726L250.452 92.122L246.852 87.316H250.002L252.054 90.142L254.16 87.316H257.148L253.548 92.05L257.292 97H254.106ZM258.26 84.4H261.608L261.05 92.626H258.818L258.26 84.4ZM259.934 97.144C259.442 97.144 259.028 96.988 258.692 96.676C258.368 96.352 258.206 95.962 258.206 95.506C258.206 95.05 258.368 94.672 258.692 94.372C259.016 94.06 259.43 93.904 259.934 93.904C260.438 93.904 260.852 94.06 261.176 94.372C261.5 94.672 261.662 95.05 261.662 95.506C261.662 95.962 261.494 96.352 261.158 96.676C260.834 96.988 260.426 97.144 259.934 97.144Z" fill="white"/>
<g filter="url(#filter0_bd)">
<path d="M147.882 191.997L71.6429 106.59C70.9068 105.765 70.5 104.698 70.5 103.593V43C70.5 40.5147 72.5147 38.5 75 38.5H449.541H462C464.485 38.5 466.5 40.5147 466.5 43V66.5V105.5V133.5V189C466.5 191.485 464.485 193.5 462 193.5H151.239C149.957 193.5 148.736 192.953 147.882 191.997Z" stroke="#3F3D3D"/>
</g>
<path d="M144.436 112.6V121H143.56V117.124H138.304V121H137.416V112.6H138.304V116.344H143.56V112.6H144.436ZM149.239 114.64C150.063 114.64 150.695 114.848 151.135 115.264C151.575 115.672 151.795 116.28 151.795 117.088V121H150.979V120.016C150.787 120.344 150.503 120.6 150.127 120.784C149.759 120.968 149.319 121.06 148.807 121.06C148.103 121.06 147.543 120.892 147.127 120.556C146.711 120.22 146.503 119.776 146.503 119.224C146.503 118.688 146.695 118.256 147.079 117.928C147.471 117.6 148.091 117.436 148.939 117.436H150.943V117.052C150.943 116.508 150.791 116.096 150.487 115.816C150.183 115.528 149.739 115.384 149.155 115.384C148.755 115.384 148.371 115.452 148.003 115.588C147.635 115.716 147.319 115.896 147.055 116.128L146.671 115.492C146.991 115.22 147.375 115.012 147.823 114.868C148.271 114.716 148.743 114.64 149.239 114.64ZM148.939 120.388C149.419 120.388 149.831 120.28 150.175 120.064C150.519 119.84 150.775 119.52 150.943 119.104V118.072H148.963C147.883 118.072 147.343 118.448 147.343 119.2C147.343 119.568 147.483 119.86 147.763 120.076C148.043 120.284 148.435 120.388 148.939 120.388ZM162.868 114.688V121H162.016V115.444H158.056V121H157.204V114.688H162.868ZM168.542 114.64C169.134 114.64 169.67 114.776 170.15 115.048C170.63 115.312 171.006 115.688 171.278 116.176C171.55 116.664 171.686 117.22 171.686 117.844C171.686 118.476 171.55 119.036 171.278 119.524C171.006 120.012 170.63 120.392 170.15 120.664C169.678 120.928 169.142 121.06 168.542 121.06C168.03 121.06 167.566 120.956 167.15 120.748C166.742 120.532 166.406 120.22 166.142 119.812V123.328H165.29V114.688H166.106V115.936C166.362 115.52 166.698 115.2 167.114 114.976C167.538 114.752 168.014 114.64 168.542 114.64ZM168.482 120.304C168.922 120.304 169.322 120.204 169.682 120.004C170.042 119.796 170.322 119.504 170.522 119.128C170.73 118.752 170.834 118.324 170.834 117.844C170.834 117.364 170.73 116.94 170.522 116.572C170.322 116.196 170.042 115.904 169.682 115.696C169.322 115.488 168.922 115.384 168.482 115.384C168.034 115.384 167.63 115.488 167.27 115.696C166.918 115.904 166.638 116.196 166.43 116.572C166.23 116.94 166.13 117.364 166.13 117.844C166.13 118.324 166.23 118.752 166.43 119.128C166.638 119.504 166.918 119.796 167.27 120.004C167.63 120.204 168.034 120.304 168.482 120.304ZM176.121 121.06C175.513 121.06 174.965 120.924 174.477 120.652C173.989 120.372 173.605 119.988 173.325 119.5C173.045 119.012 172.905 118.46 172.905 117.844C172.905 117.228 173.045 116.676 173.325 116.188C173.605 115.7 173.989 115.32 174.477 115.048C174.965 114.776 175.513 114.64 176.121 114.64C176.729 114.64 177.277 114.776 177.765 115.048C178.253 115.32 178.633 115.7 178.905 116.188C179.185 116.676 179.325 117.228 179.325 117.844C179.325 118.46 179.185 119.012 178.905 119.5C178.633 119.988 178.253 120.372 177.765 120.652C177.277 120.924 176.729 121.06 176.121 121.06ZM176.121 120.304C176.569 120.304 176.969 120.204 177.321 120.004C177.681 119.796 177.961 119.504 178.161 119.128C178.361 118.752 178.461 118.324 178.461 117.844C178.461 117.364 178.361 116.936 178.161 116.56C177.961 116.184 177.681 115.896 177.321 115.696C176.969 115.488 176.569 115.384 176.121 115.384C175.673 115.384 175.269 115.488 174.909 115.696C174.557 115.896 174.277 116.184 174.069 116.56C173.869 116.936 173.769 117.364 173.769 117.844C173.769 118.324 173.869 118.752 174.069 119.128C174.277 119.504 174.557 119.796 174.909 120.004C175.269 120.204 175.673 120.304 176.121 120.304ZM185.61 115.444H181.998V121H181.146V114.688H185.61V115.444ZM190.093 114.64C190.685 114.64 191.221 114.776 191.701 115.048C192.181 115.312 192.557 115.688 192.829 116.176C193.101 116.664 193.237 117.22 193.237 117.844C193.237 118.476 193.101 119.036 192.829 119.524C192.557 120.012 192.181 120.392 191.701 120.664C191.229 120.928 190.693 121.06 190.093 121.06C189.581 121.06 189.117 120.956 188.701 120.748C188.293 120.532 187.957 120.22 187.693 119.812V123.328H186.841V114.688H187.657V115.936C187.913 115.52 188.249 115.2 188.665 114.976C189.089 114.752 189.565 114.64 190.093 114.64ZM190.033 120.304C190.473 120.304 190.873 120.204 191.233 120.004C191.593 119.796 191.873 119.504 192.073 119.128C192.281 118.752 192.385 118.324 192.385 117.844C192.385 117.364 192.281 116.94 192.073 116.572C191.873 116.196 191.593 115.904 191.233 115.696C190.873 115.488 190.473 115.384 190.033 115.384C189.585 115.384 189.181 115.488 188.821 115.696C188.469 115.904 188.189 116.196 187.981 116.572C187.781 116.94 187.681 117.364 187.681 117.844C187.681 118.324 187.781 118.752 187.981 119.128C188.189 119.504 188.469 119.796 188.821 120.004C189.181 120.204 189.585 120.304 190.033 120.304ZM197.204 114.64C198.028 114.64 198.66 114.848 199.1 115.264C199.54 115.672 199.76 116.28 199.76 117.088V121H198.944V120.016C198.752 120.344 198.468 120.6 198.092 120.784C197.724 120.968 197.284 121.06 196.772 121.06C196.068 121.06 195.508 120.892 195.092 120.556C194.676 120.22 194.468 119.776 194.468 119.224C194.468 118.688 194.66 118.256 195.044 117.928C195.436 117.6 196.056 117.436 196.904 117.436H198.908V117.052C198.908 116.508 198.756 116.096 198.452 115.816C198.148 115.528 197.704 115.384 197.12 115.384C196.72 115.384 196.336 115.452 195.968 115.588C195.6 115.716 195.284 115.896 195.02 116.128L194.636 115.492C194.956 115.22 195.34 115.012 195.788 114.868C196.236 114.716 196.708 114.64 197.204 114.64ZM196.904 120.388C197.384 120.388 197.796 120.28 198.14 120.064C198.484 119.84 198.74 119.52 198.908 119.104V118.072H196.928C195.848 118.072 195.308 118.448 195.308 119.2C195.308 119.568 195.448 119.86 195.728 120.076C196.008 120.284 196.4 120.388 196.904 120.388ZM209.084 114.688V121H208.304V116.008L205.748 120.232H205.364L202.808 115.996V121H202.028V114.688H202.892L205.568 119.236L208.292 114.688H209.084ZM218.565 114.688V121H217.785V116.008L215.229 120.232H214.845L212.289 115.996V121H211.509V114.688H212.373L215.049 119.236L217.773 114.688H218.565ZM226.509 118.108H221.229C221.277 118.764 221.529 119.296 221.985 119.704C222.441 120.104 223.017 120.304 223.713 120.304C224.105 120.304 224.465 120.236 224.793 120.1C225.121 119.956 225.405 119.748 225.645 119.476L226.125 120.028C225.845 120.364 225.493 120.62 225.069 120.796C224.653 120.972 224.193 121.06 223.689 121.06C223.041 121.06 222.465 120.924 221.961 120.652C221.465 120.372 221.077 119.988 220.797 119.5C220.517 119.012 220.377 118.46 220.377 117.844C220.377 117.228 220.509 116.676 220.773 116.188C221.045 115.7 221.413 115.32 221.877 115.048C222.349 114.776 222.877 114.64 223.461 114.64C224.045 114.64 224.569 114.776 225.033 115.048C225.497 115.32 225.861 115.7 226.125 116.188C226.389 116.668 226.521 117.22 226.521 117.844L226.509 118.108ZM223.461 115.372C222.853 115.372 222.341 115.568 221.925 115.96C221.517 116.344 221.285 116.848 221.229 117.472H225.705C225.649 116.848 225.413 116.344 224.997 115.96C224.589 115.568 224.077 115.372 223.461 115.372ZM234.188 121.06C233.564 121.06 233.004 120.924 232.508 120.652C232.02 120.38 231.636 120 231.356 119.512C231.076 119.016 230.936 118.46 230.936 117.844C230.936 117.228 231.076 116.676 231.356 116.188C231.636 115.7 232.02 115.32 232.508 115.048C233.004 114.776 233.564 114.64 234.188 114.64C234.732 114.64 235.216 114.748 235.64 114.964C236.072 115.172 236.412 115.48 236.66 115.888L236.024 116.32C235.816 116.008 235.552 115.776 235.232 115.624C234.912 115.464 234.564 115.384 234.188 115.384C233.732 115.384 233.32 115.488 232.952 115.696C232.592 115.896 232.308 116.184 232.1 116.56C231.9 116.936 231.8 117.364 231.8 117.844C231.8 118.332 231.9 118.764 232.1 119.14C232.308 119.508 232.592 119.796 232.952 120.004C233.32 120.204 233.732 120.304 234.188 120.304C234.564 120.304 234.912 120.228 235.232 120.076C235.552 119.924 235.816 119.692 236.024 119.38L236.66 119.812C236.412 120.22 236.072 120.532 235.64 120.748C235.208 120.956 234.724 121.06 234.188 121.06ZM240.808 121.06C240.2 121.06 239.652 120.924 239.164 120.652C238.676 120.372 238.292 119.988 238.012 119.5C237.732 119.012 237.592 118.46 237.592 117.844C237.592 117.228 237.732 116.676 238.012 116.188C238.292 115.7 238.676 115.32 239.164 115.048C239.652 114.776 240.2 114.64 240.808 114.64C241.416 114.64 241.964 114.776 242.452 115.048C242.94 115.32 243.32 115.7 243.592 116.188C243.872 116.676 244.012 117.228 244.012 117.844C244.012 118.46 243.872 119.012 243.592 119.5C243.32 119.988 242.94 120.372 242.452 120.652C241.964 120.924 241.416 121.06 240.808 121.06ZM240.808 120.304C241.256 120.304 241.656 120.204 242.008 120.004C242.368 119.796 242.648 119.504 242.848 119.128C243.048 118.752 243.148 118.324 243.148 117.844C243.148 117.364 243.048 116.936 242.848 116.56C242.648 116.184 242.368 115.896 242.008 115.696C241.656 115.488 241.256 115.384 240.808 115.384C240.36 115.384 239.956 115.488 239.596 115.696C239.244 115.896 238.964 116.184 238.756 116.56C238.556 116.936 238.456 117.364 238.456 117.844C238.456 118.324 238.556 118.752 238.756 119.128C238.964 119.504 239.244 119.796 239.596 120.004C239.956 120.204 240.36 120.304 240.808 120.304ZM248.858 117.712C249.306 117.816 249.65 117.996 249.89 118.252C250.138 118.508 250.262 118.82 250.262 119.188C250.262 119.556 250.134 119.884 249.878 120.172C249.63 120.46 249.29 120.684 248.858 120.844C248.426 120.996 247.95 121.072 247.43 121.072C246.974 121.072 246.526 121.008 246.086 120.88C245.646 120.744 245.262 120.548 244.934 120.292L245.222 119.656C245.51 119.872 245.846 120.04 246.23 120.16C246.614 120.28 247.002 120.34 247.394 120.34C247.978 120.34 248.454 120.232 248.822 120.016C249.198 119.792 249.386 119.492 249.386 119.116C249.386 118.78 249.234 118.52 248.93 118.336C248.626 118.144 248.21 118.048 247.682 118.048H246.602V117.424H247.634C248.106 117.424 248.486 117.336 248.774 117.16C249.062 116.976 249.206 116.732 249.206 116.428C249.206 116.092 249.042 115.828 248.714 115.636C248.394 115.444 247.974 115.348 247.454 115.348C246.774 115.348 246.102 115.52 245.438 115.864L245.198 115.204C245.95 114.812 246.73 114.616 247.538 114.616C248.018 114.616 248.45 114.688 248.834 114.832C249.226 114.968 249.53 115.164 249.746 115.42C249.97 115.676 250.082 115.972 250.082 116.308C250.082 116.628 249.97 116.912 249.746 117.16C249.53 117.408 249.234 117.592 248.858 117.712ZM258.352 120.256V122.524H257.548V121H251.896V122.524H251.092V120.256H251.452C251.876 120.232 252.164 119.92 252.316 119.32C252.468 118.72 252.572 117.88 252.628 116.8L252.712 114.688H257.368V120.256H258.352ZM253.408 116.848C253.368 117.744 253.292 118.484 253.18 119.068C253.068 119.644 252.868 120.04 252.58 120.256H256.516V115.444H253.48L253.408 116.848ZM262.185 114.64C263.009 114.64 263.641 114.848 264.081 115.264C264.521 115.672 264.741 116.28 264.741 117.088V121H263.925V120.016C263.733 120.344 263.449 120.6 263.073 120.784C262.705 120.968 262.265 121.06 261.753 121.06C261.049 121.06 260.489 120.892 260.073 120.556C259.657 120.22 259.449 119.776 259.449 119.224C259.449 118.688 259.641 118.256 260.025 117.928C260.417 117.6 261.037 117.436 261.885 117.436H263.889V117.052C263.889 116.508 263.737 116.096 263.433 115.816C263.129 115.528 262.685 115.384 262.101 115.384C261.701 115.384 261.317 115.452 260.949 115.588C260.581 115.716 260.265 115.896 260.001 116.128L259.617 115.492C259.937 115.22 260.321 115.012 260.769 114.868C261.217 114.716 261.689 114.64 262.185 114.64ZM261.885 120.388C262.365 120.388 262.777 120.28 263.121 120.064C263.465 119.84 263.721 119.52 263.889 119.104V118.072H261.909C260.829 118.072 260.289 118.448 260.289 119.2C260.289 119.568 260.429 119.86 260.709 120.076C260.989 120.284 261.381 120.388 261.885 120.388ZM267.009 114.688H267.861V119.704L272.073 114.688H272.829V121H271.977V115.984L267.777 121H267.009V114.688ZM269.877 113.776C269.333 113.776 268.901 113.64 268.581 113.368C268.261 113.096 268.097 112.712 268.089 112.216H268.701C268.709 112.528 268.821 112.78 269.037 112.972C269.253 113.156 269.533 113.248 269.877 113.248C270.221 113.248 270.501 113.156 270.717 112.972C270.941 112.78 271.057 112.528 271.065 112.216H271.677C271.669 112.712 271.501 113.096 271.173 113.368C270.853 113.64 270.421 113.776 269.877 113.776ZM279.711 115.444H277.323V121H276.471V115.444H274.083V114.688H279.711V115.444ZM286.17 118.108H280.89C280.938 118.764 281.19 119.296 281.646 119.704C282.102 120.104 282.678 120.304 283.374 120.304C283.766 120.304 284.126 120.236 284.454 120.1C284.782 119.956 285.066 119.748 285.306 119.476L285.786 120.028C285.506 120.364 285.154 120.62 284.73 120.796C284.314 120.972 283.854 121.06 283.35 121.06C282.702 121.06 282.126 120.924 281.622 120.652C281.126 120.372 280.738 119.988 280.458 119.5C280.178 119.012 280.038 118.46 280.038 117.844C280.038 117.228 280.17 116.676 280.434 116.188C280.706 115.7 281.074 115.32 281.538 115.048C282.01 114.776 282.538 114.64 283.122 114.64C283.706 114.64 284.23 114.776 284.694 115.048C285.158 115.32 285.522 115.7 285.786 116.188C286.05 116.668 286.182 117.22 286.182 117.844L286.17 118.108ZM283.122 115.372C282.514 115.372 282.002 115.568 281.586 115.96C281.178 116.344 280.946 116.848 280.89 117.472H285.366C285.31 116.848 285.074 116.344 284.658 115.96C284.25 115.568 283.738 115.372 283.122 115.372ZM293.848 121.06C293.224 121.06 292.664 120.924 292.168 120.652C291.68 120.38 291.296 120 291.016 119.512C290.736 119.016 290.596 118.46 290.596 117.844C290.596 117.228 290.736 116.676 291.016 116.188C291.296 115.7 291.68 115.32 292.168 115.048C292.664 114.776 293.224 114.64 293.848 114.64C294.392 114.64 294.876 114.748 295.3 114.964C295.732 115.172 296.072 115.48 296.32 115.888L295.684 116.32C295.476 116.008 295.212 115.776 294.892 115.624C294.572 115.464 294.224 115.384 293.848 115.384C293.392 115.384 292.98 115.488 292.612 115.696C292.252 115.896 291.968 116.184 291.76 116.56C291.56 116.936 291.46 117.364 291.46 117.844C291.46 118.332 291.56 118.764 291.76 119.14C291.968 119.508 292.252 119.796 292.612 120.004C292.98 120.204 293.392 120.304 293.848 120.304C294.224 120.304 294.572 120.228 294.892 120.076C295.212 119.924 295.476 119.692 295.684 119.38L296.32 119.812C296.072 120.22 295.732 120.532 295.3 120.748C294.868 120.956 294.384 121.06 293.848 121.06ZM303.384 118.108H298.104C298.152 118.764 298.404 119.296 298.86 119.704C299.316 120.104 299.892 120.304 300.588 120.304C300.98 120.304 301.34 120.236 301.668 120.1C301.996 119.956 302.28 119.748 302.52 119.476L303 120.028C302.72 120.364 302.368 120.62 301.944 120.796C301.528 120.972 301.068 121.06 300.564 121.06C299.916 121.06 299.34 120.924 298.836 120.652C298.34 120.372 297.952 119.988 297.672 119.5C297.392 119.012 297.252 118.46 297.252 117.844C297.252 117.228 297.384 116.676 297.648 116.188C297.92 115.7 298.288 115.32 298.752 115.048C299.224 114.776 299.752 114.64 300.336 114.64C300.92 114.64 301.444 114.776 301.908 115.048C302.372 115.32 302.736 115.7 303 116.188C303.264 116.668 303.396 117.22 303.396 117.844L303.384 118.108ZM300.336 115.372C299.728 115.372 299.216 115.568 298.8 115.96C298.392 116.344 298.16 116.848 298.104 117.472H302.58C302.524 116.848 302.288 116.344 301.872 115.96C301.464 115.568 300.952 115.372 300.336 115.372ZM308.534 114.64C309.126 114.64 309.662 114.776 310.142 115.048C310.622 115.312 310.998 115.688 311.27 116.176C311.542 116.664 311.678 117.22 311.678 117.844C311.678 118.476 311.542 119.036 311.27 119.524C310.998 120.012 310.622 120.392 310.142 120.664C309.67 120.928 309.134 121.06 308.534 121.06C308.022 121.06 307.558 120.956 307.142 120.748C306.734 120.532 306.398 120.22 306.134 119.812V123.328H305.282V114.688H306.098V115.936C306.354 115.52 306.69 115.2 307.106 114.976C307.53 114.752 308.006 114.64 308.534 114.64ZM308.474 120.304C308.914 120.304 309.314 120.204 309.674 120.004C310.034 119.796 310.314 119.504 310.514 119.128C310.722 118.752 310.826 118.324 310.826 117.844C310.826 117.364 310.722 116.94 310.514 116.572C310.314 116.196 310.034 115.904 309.674 115.696C309.314 115.488 308.914 115.384 308.474 115.384C308.026 115.384 307.622 115.488 307.262 115.696C306.91 115.904 306.63 116.196 306.422 116.572C306.222 116.94 306.122 117.364 306.122 117.844C306.122 118.324 306.222 118.752 306.422 119.128C306.63 119.504 306.91 119.796 307.262 120.004C307.622 120.204 308.026 120.304 308.474 120.304ZM313.509 114.688H314.361V119.704L318.573 114.688H319.329V121H318.477V115.984L314.277 121H313.509V114.688ZM327.195 114.64C327.787 114.64 328.319 114.776 328.791 115.048C329.271 115.32 329.647 115.7 329.919 116.188C330.191 116.676 330.327 117.228 330.327 117.844C330.327 118.46 330.191 119.012 329.919 119.5C329.647 119.988 329.271 120.372 328.791 120.652C328.319 120.924 327.787 121.06 327.195 121.06C326.635 121.06 326.127 120.94 325.671 120.7C325.215 120.452 324.843 120.112 324.555 119.68C324.275 119.248 324.111 118.752 324.063 118.192H322.623V121H321.771V114.688H322.623V117.412H324.075C324.139 116.868 324.311 116.388 324.591 115.972C324.879 115.548 325.247 115.22 325.695 114.988C326.143 114.756 326.643 114.64 327.195 114.64ZM327.195 120.316C327.627 120.316 328.015 120.212 328.359 120.004C328.711 119.796 328.987 119.504 329.187 119.128C329.387 118.752 329.487 118.324 329.487 117.844C329.487 117.364 329.387 116.936 329.187 116.56C328.987 116.184 328.711 115.896 328.359 115.696C328.015 115.488 327.627 115.384 327.195 115.384C326.763 115.384 326.371 115.488 326.019 115.696C325.675 115.896 325.403 116.184 325.203 116.56C325.003 116.936 324.903 117.364 324.903 117.844C324.903 118.324 325.003 118.752 325.203 119.128C325.403 119.504 325.675 119.796 326.019 120.004C326.371 120.212 326.763 120.316 327.195 120.316ZM139.852 134.06C139.228 134.06 138.668 133.924 138.172 133.652C137.684 133.38 137.3 133 137.02 132.512C136.74 132.016 136.6 131.46 136.6 130.844C136.6 130.228 136.74 129.676 137.02 129.188C137.3 128.7 137.684 128.32 138.172 128.048C138.668 127.776 139.228 127.64 139.852 127.64C140.396 127.64 140.88 127.748 141.304 127.964C141.736 128.172 142.076 128.48 142.324 128.888L141.688 129.32C141.48 129.008 141.216 128.776 140.896 128.624C140.576 128.464 140.228 128.384 139.852 128.384C139.396 128.384 138.984 128.488 138.616 128.696C138.256 128.896 137.972 129.184 137.764 129.56C137.564 129.936 137.464 130.364 137.464 130.844C137.464 131.332 137.564 131.764 137.764 132.14C137.972 132.508 138.256 132.796 138.616 133.004C138.984 133.204 139.396 133.304 139.852 133.304C140.228 133.304 140.576 133.228 140.896 133.076C141.216 132.924 141.48 132.692 141.688 132.38L142.324 132.812C142.076 133.22 141.736 133.532 141.304 133.748C140.872 133.956 140.388 134.06 139.852 134.06ZM146.472 134.06C145.864 134.06 145.316 133.924 144.828 133.652C144.34 133.372 143.956 132.988 143.676 132.5C143.396 132.012 143.256 131.46 143.256 130.844C143.256 130.228 143.396 129.676 143.676 129.188C143.956 128.7 144.34 128.32 144.828 128.048C145.316 127.776 145.864 127.64 146.472 127.64C147.08 127.64 147.628 127.776 148.116 128.048C148.604 128.32 148.984 128.7 149.256 129.188C149.536 129.676 149.676 130.228 149.676 130.844C149.676 131.46 149.536 132.012 149.256 132.5C148.984 132.988 148.604 133.372 148.116 133.652C147.628 133.924 147.08 134.06 146.472 134.06ZM146.472 133.304C146.92 133.304 147.32 133.204 147.672 133.004C148.032 132.796 148.312 132.504 148.512 132.128C148.712 131.752 148.812 131.324 148.812 130.844C148.812 130.364 148.712 129.936 148.512 129.56C148.312 129.184 148.032 128.896 147.672 128.696C147.32 128.488 146.92 128.384 146.472 128.384C146.024 128.384 145.62 128.488 145.26 128.696C144.908 128.896 144.628 129.184 144.42 129.56C144.22 129.936 144.12 130.364 144.12 130.844C144.12 131.324 144.22 131.752 144.42 132.128C144.628 132.504 144.908 132.796 145.26 133.004C145.62 133.204 146.024 133.304 146.472 133.304ZM154.557 127.844C155.141 127.844 155.661 127.976 156.117 128.24C156.581 128.496 156.941 128.86 157.197 129.332C157.453 129.796 157.581 130.328 157.581 130.928C157.581 131.544 157.445 132.092 157.173 132.572C156.909 133.044 156.537 133.412 156.057 133.676C155.577 133.94 155.025 134.072 154.401 134.072C153.353 134.072 152.541 133.704 151.965 132.968C151.389 132.232 151.101 131.216 151.101 129.92C151.101 128.568 151.357 127.532 151.869 126.812C152.389 126.092 153.197 125.604 154.293 125.348L157.125 124.7L157.269 125.48L154.605 126.092C153.701 126.292 153.037 126.648 152.613 127.16C152.189 127.664 151.957 128.412 151.917 129.404C152.173 128.916 152.529 128.536 152.985 128.264C153.441 127.984 153.965 127.844 154.557 127.844ZM154.425 133.364C154.865 133.364 155.257 133.264 155.601 133.064C155.953 132.856 156.225 132.568 156.417 132.2C156.617 131.832 156.717 131.416 156.717 130.952C156.717 130.488 156.621 130.08 156.429 129.728C156.237 129.376 155.965 129.104 155.613 128.912C155.269 128.712 154.873 128.612 154.425 128.612C153.977 128.612 153.577 128.712 153.225 128.912C152.881 129.104 152.609 129.376 152.409 129.728C152.217 130.08 152.121 130.488 152.121 130.952C152.121 131.416 152.217 131.832 152.409 132.2C152.609 132.568 152.885 132.856 153.237 133.064C153.589 133.264 153.985 133.364 154.425 133.364ZM162.047 134.06C161.423 134.06 160.863 133.924 160.367 133.652C159.879 133.38 159.495 133 159.215 132.512C158.935 132.016 158.795 131.46 158.795 130.844C158.795 130.228 158.935 129.676 159.215 129.188C159.495 128.7 159.879 128.32 160.367 128.048C160.863 127.776 161.423 127.64 162.047 127.64C162.591 127.64 163.075 127.748 163.499 127.964C163.931 128.172 164.271 128.48 164.519 128.888L163.883 129.32C163.675 129.008 163.411 128.776 163.091 128.624C162.771 128.464 162.423 128.384 162.047 128.384C161.591 128.384 161.179 128.488 160.811 128.696C160.451 128.896 160.167 129.184 159.959 129.56C159.759 129.936 159.659 130.364 159.659 130.844C159.659 131.332 159.759 131.764 159.959 132.14C160.167 132.508 160.451 132.796 160.811 133.004C161.179 133.204 161.591 133.304 162.047 133.304C162.423 133.304 162.771 133.228 163.091 133.076C163.411 132.924 163.675 132.692 163.883 132.38L164.519 132.812C164.271 133.22 163.931 133.532 163.499 133.748C163.067 133.956 162.583 134.06 162.047 134.06ZM170.492 128.444H168.104V134H167.252V128.444H164.864V127.688H170.492V128.444ZM175.744 130.736C176.6 130.936 177.028 131.452 177.028 132.284C177.028 132.836 176.824 133.26 176.416 133.556C176.008 133.852 175.4 134 174.592 134H171.724V127.688H174.508C175.228 127.688 175.792 127.828 176.2 128.108C176.608 128.388 176.812 128.788 176.812 129.308C176.812 129.652 176.716 129.948 176.524 130.196C176.34 130.436 176.08 130.616 175.744 130.736ZM172.552 130.496H174.448C174.936 130.496 175.308 130.404 175.564 130.22C175.828 130.036 175.96 129.768 175.96 129.416C175.96 129.064 175.828 128.8 175.564 128.624C175.308 128.448 174.936 128.36 174.448 128.36H172.552V130.496ZM174.556 133.328C175.1 133.328 175.508 133.24 175.78 133.064C176.052 132.888 176.188 132.612 176.188 132.236C176.188 131.86 176.064 131.584 175.816 131.408C175.568 131.224 175.176 131.132 174.64 131.132H172.552V133.328H174.556ZM184.545 131.108H179.265C179.313 131.764 179.565 132.296 180.021 132.704C180.477 133.104 181.053 133.304 181.749 133.304C182.141 133.304 182.501 133.236 182.829 133.1C183.157 132.956 183.441 132.748 183.681 132.476L184.161 133.028C183.881 133.364 183.529 133.62 183.105 133.796C182.689 133.972 182.229 134.06 181.725 134.06C181.077 134.06 180.501 133.924 179.997 133.652C179.501 133.372 179.113 132.988 178.833 132.5C178.553 132.012 178.413 131.46 178.413 130.844C178.413 130.228 178.545 129.676 178.809 129.188C179.081 128.7 179.449 128.32 179.913 128.048C180.385 127.776 180.913 127.64 181.497 127.64C182.081 127.64 182.605 127.776 183.069 128.048C183.533 128.32 183.897 128.7 184.161 129.188C184.425 129.668 184.557 130.22 184.557 130.844L184.545 131.108ZM181.497 128.372C180.889 128.372 180.377 128.568 179.961 128.96C179.553 129.344 179.321 129.848 179.265 130.472H183.741C183.685 129.848 183.449 129.344 183.033 128.96C182.625 128.568 182.113 128.372 181.497 128.372ZM186.442 127.688H187.294V130.484H191.266V127.688H192.118V134H191.266V131.216H187.294V134H186.442V127.688ZM194.54 127.688H195.392V130.484H199.364V127.688H200.216V134H199.364V131.216H195.392V134H194.54V127.688ZM205.29 129.92C206.082 129.928 206.686 130.104 207.102 130.448C207.518 130.792 207.726 131.288 207.726 131.936C207.726 132.608 207.502 133.124 207.054 133.484C206.606 133.844 205.966 134.02 205.134 134.012L202.638 134V127.688H203.49V129.896L205.29 129.92ZM208.782 127.688H209.634V134H208.782V127.688ZM205.086 133.364C205.67 133.372 206.11 133.256 206.406 133.016C206.71 132.768 206.862 132.408 206.862 131.936C206.862 131.472 206.714 131.128 206.418 130.904C206.122 130.68 205.678 130.564 205.086 130.556L203.49 130.532V133.34L205.086 133.364ZM216.008 134L214.004 131.36L211.988 134H211.028L213.524 130.76L211.148 127.688H212.108L214.004 130.16L215.9 127.688H216.836L214.46 130.76L216.98 134H216.008ZM221.517 127.688H222.369V132.704L226.581 127.688H227.337V134H226.485V128.984L222.285 134H221.517V127.688ZM234.242 128.444H230.63V134H229.778V127.688H234.242V128.444ZM238.726 127.64C239.318 127.64 239.854 127.776 240.334 128.048C240.814 128.312 241.19 128.688 241.462 129.176C241.734 129.664 241.87 130.22 241.87 130.844C241.87 131.476 241.734 132.036 241.462 132.524C241.19 133.012 240.814 133.392 240.334 133.664C239.862 133.928 239.326 134.06 238.726 134.06C238.214 134.06 237.75 133.956 237.334 133.748C236.926 133.532 236.59 133.22 236.326 132.812V136.328H235.474V127.688H236.29V128.936C236.546 128.52 236.882 128.2 237.298 127.976C237.722 127.752 238.198 127.64 238.726 127.64ZM238.666 133.304C239.106 133.304 239.506 133.204 239.866 133.004C240.226 132.796 240.506 132.504 240.706 132.128C240.914 131.752 241.018 131.324 241.018 130.844C241.018 130.364 240.914 129.94 240.706 129.572C240.506 129.196 240.226 128.904 239.866 128.696C239.506 128.488 239.106 128.384 238.666 128.384C238.218 128.384 237.814 128.488 237.454 128.696C237.102 128.904 236.822 129.196 236.614 129.572C236.414 129.94 236.314 130.364 236.314 130.844C236.314 131.324 236.414 131.752 236.614 132.128C236.822 132.504 237.102 132.796 237.454 133.004C237.814 133.204 238.218 133.304 238.666 133.304ZM250.093 127.64C250.685 127.64 251.221 127.776 251.701 128.048C252.181 128.312 252.557 128.688 252.829 129.176C253.101 129.664 253.237 130.22 253.237 130.844C253.237 131.476 253.101 132.036 252.829 132.524C252.557 133.012 252.181 133.392 251.701 133.664C251.229 133.928 250.693 134.06 250.093 134.06C249.581 134.06 249.117 133.956 248.701 133.748C248.293 133.532 247.957 133.22 247.693 132.812V136.328H246.841V127.688H247.657V128.936C247.913 128.52 248.249 128.2 248.665 127.976C249.089 127.752 249.565 127.64 250.093 127.64ZM250.033 133.304C250.473 133.304 250.873 133.204 251.233 133.004C251.593 132.796 251.873 132.504 252.073 132.128C252.281 131.752 252.385 131.324 252.385 130.844C252.385 130.364 252.281 129.94 252.073 129.572C251.873 129.196 251.593 128.904 251.233 128.696C250.873 128.488 250.473 128.384 250.033 128.384C249.585 128.384 249.181 128.488 248.821 128.696C248.469 128.904 248.189 129.196 247.981 129.572C247.781 129.94 247.681 130.364 247.681 130.844C247.681 131.324 247.781 131.752 247.981 132.128C248.189 132.504 248.469 132.796 248.821 133.004C249.181 133.204 249.585 133.304 250.033 133.304ZM257.204 127.64C258.028 127.64 258.66 127.848 259.1 128.264C259.54 128.672 259.76 129.28 259.76 130.088V134H258.944V133.016C258.752 133.344 258.468 133.6 258.092 133.784C257.724 133.968 257.284 134.06 256.772 134.06C256.068 134.06 255.508 133.892 255.092 133.556C254.676 133.22 254.468 132.776 254.468 132.224C254.468 131.688 254.66 131.256 255.044 130.928C255.436 130.6 256.056 130.436 256.904 130.436H258.908V130.052C258.908 129.508 258.756 129.096 258.452 128.816C258.148 128.528 257.704 128.384 257.12 128.384C256.72 128.384 256.336 128.452 255.968 128.588C255.6 128.716 255.284 128.896 255.02 129.128L254.636 128.492C254.956 128.22 255.34 128.012 255.788 127.868C256.236 127.716 256.708 127.64 257.204 127.64ZM256.904 133.388C257.384 133.388 257.796 133.28 258.14 133.064C258.484 132.84 258.74 132.52 258.908 132.104V131.072H256.928C255.848 131.072 255.308 131.448 255.308 132.2C255.308 132.568 255.448 132.86 255.728 133.076C256.008 133.284 256.4 133.388 256.904 133.388ZM264.972 130.712C265.42 130.816 265.764 130.996 266.004 131.252C266.252 131.508 266.376 131.82 266.376 132.188C266.376 132.556 266.248 132.884 265.992 133.172C265.744 133.46 265.404 133.684 264.972 133.844C264.54 133.996 264.064 134.072 263.544 134.072C263.088 134.072 262.64 134.008 262.2 133.88C261.76 133.744 261.376 133.548 261.048 133.292L261.336 132.656C261.624 132.872 261.96 133.04 262.344 133.16C262.728 133.28 263.116 133.34 263.508 133.34C264.092 133.34 264.568 133.232 264.936 133.016C265.312 132.792 265.5 132.492 265.5 132.116C265.5 131.78 265.348 131.52 265.044 131.336C264.74 131.144 264.324 131.048 263.796 131.048H262.716V130.424H263.748C264.22 130.424 264.6 130.336 264.888 130.16C265.176 129.976 265.32 129.732 265.32 129.428C265.32 129.092 265.156 128.828 264.828 128.636C264.508 128.444 264.088 128.348 263.568 128.348C262.888 128.348 262.216 128.52 261.552 128.864L261.312 128.204C262.064 127.812 262.844 127.616 263.652 127.616C264.132 127.616 264.564 127.688 264.948 127.832C265.34 127.968 265.644 128.164 265.86 128.42C266.084 128.676 266.196 128.972 266.196 129.308C266.196 129.628 266.084 129.912 265.86 130.16C265.644 130.408 265.348 130.592 264.972 130.712ZM268.31 127.688H269.162V130.484H273.134V127.688H273.986V134H273.134V131.216H269.162V134H268.31V127.688ZM279.011 134.06C278.403 134.06 277.855 133.924 277.367 133.652C276.879 133.372 276.495 132.988 276.215 132.5C275.935 132.012 275.795 131.46 275.795 130.844C275.795 130.228 275.935 129.676 276.215 129.188C276.495 128.7 276.879 128.32 277.367 128.048C277.855 127.776 278.403 127.64 279.011 127.64C279.619 127.64 280.167 127.776 280.655 128.048C281.143 128.32 281.523 128.7 281.795 129.188C282.075 129.676 282.215 130.228 282.215 130.844C282.215 131.46 282.075 132.012 281.795 132.5C281.523 132.988 281.143 133.372 280.655 133.652C280.167 133.924 279.619 134.06 279.011 134.06ZM279.011 133.304C279.459 133.304 279.859 133.204 280.211 133.004C280.571 132.796 280.851 132.504 281.051 132.128C281.251 131.752 281.351 131.324 281.351 130.844C281.351 130.364 281.251 129.936 281.051 129.56C280.851 129.184 280.571 128.896 280.211 128.696C279.859 128.488 279.459 128.384 279.011 128.384C278.563 128.384 278.159 128.488 277.799 128.696C277.447 128.896 277.167 129.184 276.959 129.56C276.759 129.936 276.659 130.364 276.659 130.844C276.659 131.324 276.759 131.752 276.959 132.128C277.167 132.504 277.447 132.796 277.799 133.004C278.159 133.204 278.563 133.304 279.011 133.304ZM288.5 128.444H284.888V134H284.036V127.688H288.5V128.444ZM292.043 134.06C291.435 134.06 290.887 133.924 290.399 133.652C289.911 133.372 289.527 132.988 289.247 132.5C288.967 132.012 288.827 131.46 288.827 130.844C288.827 130.228 288.967 129.676 289.247 129.188C289.527 128.7 289.911 128.32 290.399 128.048C290.887 127.776 291.435 127.64 292.043 127.64C292.651 127.64 293.199 127.776 293.687 128.048C294.175 128.32 294.555 128.7 294.827 129.188C295.107 129.676 295.247 130.228 295.247 130.844C295.247 131.46 295.107 132.012 294.827 132.5C294.555 132.988 294.175 133.372 293.687 133.652C293.199 133.924 292.651 134.06 292.043 134.06ZM292.043 133.304C292.491 133.304 292.891 133.204 293.243 133.004C293.603 132.796 293.883 132.504 294.083 132.128C294.283 131.752 294.383 131.324 294.383 130.844C294.383 130.364 294.283 129.936 294.083 129.56C293.883 129.184 293.603 128.896 293.243 128.696C292.891 128.488 292.491 128.384 292.043 128.384C291.595 128.384 291.191 128.488 290.831 128.696C290.479 128.896 290.199 129.184 289.991 129.56C289.791 129.936 289.691 130.364 289.691 130.844C289.691 131.324 289.791 131.752 289.991 132.128C290.199 132.504 290.479 132.796 290.831 133.004C291.191 133.204 291.595 133.304 292.043 133.304ZM305.74 131.192H304.372V134H303.52V131.192H302.152L300.22 134H299.2L301.468 130.748L299.38 127.688H300.304L302.152 130.46H303.52V127.688H304.372V130.46H305.74L307.6 127.688H308.524L306.436 130.76L308.704 134H307.684L305.74 131.192ZM312.177 127.64C313.001 127.64 313.633 127.848 314.073 128.264C314.513 128.672 314.733 129.28 314.733 130.088V134H313.917V133.016C313.725 133.344 313.441 133.6 313.065 133.784C312.697 133.968 312.257 134.06 311.745 134.06C311.041 134.06 310.481 133.892 310.065 133.556C309.649 133.22 309.441 132.776 309.441 132.224C309.441 131.688 309.633 131.256 310.017 130.928C310.409 130.6 311.029 130.436 311.877 130.436H313.881V130.052C313.881 129.508 313.729 129.096 313.425 128.816C313.121 128.528 312.677 128.384 312.093 128.384C311.693 128.384 311.309 128.452 310.941 128.588C310.573 128.716 310.257 128.896 309.993 129.128L309.609 128.492C309.929 128.22 310.313 128.012 310.761 127.868C311.209 127.716 311.681 127.64 312.177 127.64ZM311.877 133.388C312.357 133.388 312.769 133.28 313.113 133.064C313.457 132.84 313.713 132.52 313.881 132.104V131.072H311.901C310.821 131.072 310.281 131.448 310.281 132.2C310.281 132.568 310.421 132.86 310.701 133.076C310.981 133.284 311.373 133.388 311.877 133.388ZM317.001 127.688H317.853V130.484H321.825V127.688H322.677V134H321.825V131.216H317.853V134H317.001V127.688ZM328.351 127.64C328.943 127.64 329.479 127.776 329.959 128.048C330.439 128.312 330.815 128.688 331.087 129.176C331.359 129.664 331.495 130.22 331.495 130.844C331.495 131.476 331.359 132.036 331.087 132.524C330.815 133.012 330.439 133.392 329.959 133.664C329.487 133.928 328.951 134.06 328.351 134.06C327.839 134.06 327.375 133.956 326.959 133.748C326.551 133.532 326.215 133.22 325.951 132.812V136.328H325.099V127.688H325.915V128.936C326.171 128.52 326.507 128.2 326.923 127.976C327.347 127.752 327.823 127.64 328.351 127.64ZM328.291 133.304C328.731 133.304 329.131 133.204 329.491 133.004C329.851 132.796 330.131 132.504 330.331 132.128C330.539 131.752 330.643 131.324 330.643 130.844C330.643 130.364 330.539 129.94 330.331 129.572C330.131 129.196 329.851 128.904 329.491 128.696C329.131 128.488 328.731 128.384 328.291 128.384C327.843 128.384 327.439 128.488 327.079 128.696C326.727 128.904 326.447 129.196 326.239 129.572C326.039 129.94 325.939 130.364 325.939 130.844C325.939 131.324 326.039 131.752 326.239 132.128C326.447 132.504 326.727 132.796 327.079 133.004C327.439 133.204 327.843 133.304 328.291 133.304ZM335.462 127.64C336.286 127.64 336.918 127.848 337.358 128.264C337.798 128.672 338.018 129.28 338.018 130.088V134H337.202V133.016C337.01 133.344 336.726 133.6 336.35 133.784C335.982 133.968 335.542 134.06 335.03 134.06C334.326 134.06 333.766 133.892 333.35 133.556C332.934 133.22 332.726 132.776 332.726 132.224C332.726 131.688 332.918 131.256 333.302 130.928C333.694 130.6 334.314 130.436 335.162 130.436H337.166V130.052C337.166 129.508 337.014 129.096 336.71 128.816C336.406 128.528 335.962 128.384 335.378 128.384C334.978 128.384 334.594 128.452 334.226 128.588C333.858 128.716 333.542 128.896 333.278 129.128L332.894 128.492C333.214 128.22 333.598 128.012 334.046 127.868C334.494 127.716 334.966 127.64 335.462 127.64ZM335.162 133.388C335.642 133.388 336.054 133.28 336.398 133.064C336.742 132.84 336.998 132.52 337.166 132.104V131.072H335.186C334.106 131.072 333.566 131.448 333.566 132.2C333.566 132.568 333.706 132.86 333.986 133.076C334.266 133.284 334.658 133.388 335.162 133.388ZM340.346 128.948C340.17 128.948 340.018 128.884 339.89 128.756C339.77 128.628 339.71 128.472 339.71 128.288C339.71 128.104 339.77 127.952 339.89 127.832C340.018 127.704 340.17 127.64 340.346 127.64C340.522 127.64 340.674 127.704 340.802 127.832C340.93 127.952 340.994 128.104 340.994 128.288C340.994 128.472 340.93 128.628 340.802 128.756C340.674 128.884 340.522 128.948 340.346 128.948ZM340.346 134.06C340.17 134.06 340.018 133.996 339.89 133.868C339.77 133.74 339.71 133.584 339.71 133.4C339.71 133.216 339.77 133.064 339.89 132.944C340.018 132.816 340.17 132.752 340.346 132.752C340.522 132.752 340.674 132.816 340.802 132.944C340.93 133.064 340.994 133.216 340.994 133.4C340.994 133.584 340.93 133.74 340.802 133.868C340.674 133.996 340.522 134.06 340.346 134.06ZM139.816 147.06C139.208 147.06 138.66 146.924 138.172 146.652C137.684 146.372 137.3 145.988 137.02 145.5C136.74 145.012 136.6 144.46 136.6 143.844C136.6 143.228 136.74 142.676 137.02 142.188C137.3 141.7 137.684 141.32 138.172 141.048C138.66 140.776 139.208 140.64 139.816 140.64C140.424 140.64 140.972 140.776 141.46 141.048C141.948 141.32 142.328 141.7 142.6 142.188C142.88 142.676 143.02 143.228 143.02 143.844C143.02 144.46 142.88 145.012 142.6 145.5C142.328 145.988 141.948 146.372 141.46 146.652C140.972 146.924 140.424 147.06 139.816 147.06ZM139.816 146.304C140.264 146.304 140.664 146.204 141.016 146.004C141.376 145.796 141.656 145.504 141.856 145.128C142.056 144.752 142.156 144.324 142.156 143.844C142.156 143.364 142.056 142.936 141.856 142.56C141.656 142.184 141.376 141.896 141.016 141.696C140.664 141.488 140.264 141.384 139.816 141.384C139.368 141.384 138.964 141.488 138.604 141.696C138.252 141.896 137.972 142.184 137.764 142.56C137.564 142.936 137.464 143.364 137.464 143.844C137.464 144.324 137.564 144.752 137.764 145.128C137.972 145.504 138.252 145.796 138.604 146.004C138.964 146.204 139.368 146.304 139.816 146.304ZM149.047 141.444H146.659V147H145.807V141.444H143.419V140.688H149.047V141.444ZM155.891 147.072C155.267 147.072 154.667 146.972 154.091 146.772C153.523 146.572 153.083 146.308 152.771 145.98L153.119 145.296C153.423 145.6 153.827 145.848 154.331 146.04C154.835 146.224 155.355 146.316 155.891 146.316C156.643 146.316 157.207 146.18 157.583 145.908C157.959 145.628 158.147 145.268 158.147 144.828C158.147 144.492 158.043 144.224 157.835 144.024C157.635 143.824 157.387 143.672 157.091 143.568C156.795 143.456 156.383 143.336 155.855 143.208C155.223 143.048 154.719 142.896 154.343 142.752C153.967 142.6 153.643 142.372 153.371 142.068C153.107 141.764 152.975 141.352 152.975 140.832C152.975 140.408 153.087 140.024 153.311 139.68C153.535 139.328 153.879 139.048 154.343 138.84C154.807 138.632 155.383 138.528 156.071 138.528C156.551 138.528 157.019 138.596 157.475 138.732C157.939 138.86 158.339 139.04 158.675 139.272L158.375 139.98C158.023 139.748 157.647 139.576 157.247 139.464C156.847 139.344 156.455 139.284 156.071 139.284C155.335 139.284 154.779 139.428 154.403 139.716C154.035 139.996 153.851 140.36 153.851 140.808C153.851 141.144 153.951 141.416 154.151 141.624C154.359 141.824 154.615 141.98 154.919 142.092C155.231 142.196 155.647 142.312 156.167 142.44C156.783 142.592 157.279 142.744 157.655 142.896C158.039 143.04 158.363 143.264 158.627 143.568C158.891 143.864 159.023 144.268 159.023 144.78C159.023 145.204 158.907 145.592 158.675 145.944C158.451 146.288 158.103 146.564 157.631 146.772C157.159 146.972 156.579 147.072 155.891 147.072ZM166.466 140.688V147H165.65V145.848C165.426 146.232 165.118 146.532 164.726 146.748C164.334 146.956 163.886 147.06 163.382 147.06C162.558 147.06 161.906 146.832 161.426 146.376C160.954 145.912 160.718 145.236 160.718 144.348V140.688H161.57V144.264C161.57 144.928 161.734 145.432 162.062 145.776C162.39 146.12 162.858 146.292 163.466 146.292C164.13 146.292 164.654 146.092 165.038 145.692C165.422 145.284 165.614 144.72 165.614 144V140.688H166.466ZM169.668 141.924C169.868 141.5 170.164 141.18 170.556 140.964C170.956 140.748 171.448 140.64 172.032 140.64V141.468L171.828 141.456C171.164 141.456 170.644 141.66 170.268 142.068C169.892 142.476 169.704 143.048 169.704 143.784V147H168.852V140.688H169.668V141.924ZM179.148 140.688L176.34 147H175.464L172.668 140.688H173.556L175.92 146.064L178.308 140.688H179.148ZM180.348 140.688H181.2V147H180.348V140.688ZM180.78 139.308C180.604 139.308 180.456 139.248 180.336 139.128C180.216 139.008 180.156 138.864 180.156 138.696C180.156 138.536 180.216 138.396 180.336 138.276C180.456 138.156 180.604 138.096 180.78 138.096C180.956 138.096 181.104 138.156 181.224 138.276C181.344 138.388 181.404 138.524 181.404 138.684C181.404 138.86 181.344 139.008 181.224 139.128C181.104 139.248 180.956 139.308 180.78 139.308ZM188.875 140.688L186.067 147H185.191L182.395 140.688H183.283L185.647 146.064L188.035 140.688H188.875ZM192.095 140.64C192.919 140.64 193.551 140.848 193.991 141.264C194.431 141.672 194.651 142.28 194.651 143.088V147H193.835V146.016C193.643 146.344 193.359 146.6 192.983 146.784C192.615 146.968 192.175 147.06 191.663 147.06C190.959 147.06 190.399 146.892 189.983 146.556C189.567 146.22 189.359 145.776 189.359 145.224C189.359 144.688 189.551 144.256 189.935 143.928C190.327 143.6 190.947 143.436 191.795 143.436H193.799V143.052C193.799 142.508 193.647 142.096 193.343 141.816C193.039 141.528 192.595 141.384 192.011 141.384C191.611 141.384 191.227 141.452 190.859 141.588C190.491 141.716 190.175 141.896 189.911 142.128L189.527 141.492C189.847 141.22 190.231 141.012 190.679 140.868C191.127 140.716 191.599 140.64 192.095 140.64ZM191.795 146.388C192.275 146.388 192.687 146.28 193.031 146.064C193.375 145.84 193.631 145.52 193.799 145.104V144.072H191.819C190.739 144.072 190.199 144.448 190.199 145.2C190.199 145.568 190.339 145.86 190.619 146.076C190.899 146.284 191.291 146.388 191.795 146.388ZM196.965 138.096H197.817V147H196.965V138.096ZM208.777 144.756H204.097L203.089 147H202.165L206.005 138.6H206.881L210.721 147H209.785L208.777 144.756ZM208.453 144.036L206.437 139.524L204.421 144.036H208.453ZM214.488 147.06C213.864 147.06 213.304 146.924 212.808 146.652C212.32 146.38 211.936 146 211.656 145.512C211.376 145.016 211.236 144.46 211.236 143.844C211.236 143.228 211.376 142.676 211.656 142.188C211.936 141.7 212.32 141.32 212.808 141.048C213.304 140.776 213.864 140.64 214.488 140.64C215.032 140.64 215.516 140.748 215.94 140.964C216.372 141.172 216.712 141.48 216.96 141.888L216.324 142.32C216.116 142.008 215.852 141.776 215.532 141.624C215.212 141.464 214.864 141.384 214.488 141.384C214.032 141.384 213.62 141.488 213.252 141.696C212.892 141.896 212.608 142.184 212.4 142.56C212.2 142.936 212.1 143.364 212.1 143.844C212.1 144.332 212.2 144.764 212.4 145.14C212.608 145.508 212.892 145.796 213.252 146.004C213.62 146.204 214.032 146.304 214.488 146.304C214.864 146.304 215.212 146.228 215.532 146.076C215.852 145.924 216.116 145.692 216.324 145.38L216.96 145.812C216.712 146.22 216.372 146.532 215.94 146.748C215.508 146.956 215.024 147.06 214.488 147.06ZM222.028 146.616C221.868 146.76 221.668 146.872 221.428 146.952C221.196 147.024 220.952 147.06 220.696 147.06C220.104 147.06 219.648 146.9 219.328 146.58C219.008 146.26 218.848 145.808 218.848 145.224V141.408H217.72V140.688H218.848V139.308H219.7V140.688H221.62V141.408H219.7V145.176C219.7 145.552 219.792 145.84 219.976 146.04C220.168 146.232 220.44 146.328 220.792 146.328C220.968 146.328 221.136 146.3 221.296 146.244C221.464 146.188 221.608 146.108 221.728 146.004L222.028 146.616ZM223.579 140.688H224.431V147H223.579V140.688ZM224.011 139.308C223.835 139.308 223.687 139.248 223.567 139.128C223.447 139.008 223.387 138.864 223.387 138.696C223.387 138.536 223.447 138.396 223.567 138.276C223.687 138.156 223.835 138.096 224.011 138.096C224.187 138.096 224.335 138.156 224.455 138.276C224.575 138.388 224.635 138.524 224.635 138.684C224.635 138.86 224.575 139.008 224.455 139.128C224.335 139.248 224.187 139.308 224.011 139.308ZM229.381 147.06C228.773 147.06 228.225 146.924 227.737 146.652C227.249 146.372 226.865 145.988 226.585 145.5C226.305 145.012 226.165 144.46 226.165 143.844C226.165 143.228 226.305 142.676 226.585 142.188C226.865 141.7 227.249 141.32 227.737 141.048C228.225 140.776 228.773 140.64 229.381 140.64C229.989 140.64 230.537 140.776 231.025 141.048C231.513 141.32 231.893 141.7 232.165 142.188C232.445 142.676 232.585 143.228 232.585 143.844C232.585 144.46 232.445 145.012 232.165 145.5C231.893 145.988 231.513 146.372 231.025 146.652C230.537 146.924 229.989 147.06 229.381 147.06ZM229.381 146.304C229.829 146.304 230.229 146.204 230.581 146.004C230.941 145.796 231.221 145.504 231.421 145.128C231.621 144.752 231.721 144.324 231.721 143.844C231.721 143.364 231.621 142.936 231.421 142.56C231.221 142.184 230.941 141.896 230.581 141.696C230.229 141.488 229.829 141.384 229.381 141.384C228.933 141.384 228.529 141.488 228.169 141.696C227.817 141.896 227.537 142.184 227.329 142.56C227.129 142.936 227.029 143.364 227.029 143.844C227.029 144.324 227.129 144.752 227.329 145.128C227.537 145.504 227.817 145.796 228.169 146.004C228.529 146.204 228.933 146.304 229.381 146.304ZM237.541 140.64C238.333 140.64 238.961 140.872 239.425 141.336C239.897 141.792 240.133 142.46 240.133 143.34V147H239.281V143.424C239.281 142.768 239.117 142.268 238.789 141.924C238.461 141.58 237.993 141.408 237.385 141.408C236.705 141.408 236.165 141.612 235.765 142.02C235.373 142.42 235.177 142.976 235.177 143.688V147H234.325V140.688H235.141V141.852C235.373 141.468 235.693 141.172 236.101 140.964C236.517 140.748 236.997 140.64 237.541 140.64ZM251.766 146.256V148.524H250.962V147H245.31V148.524H244.506V146.256H244.866C245.29 146.232 245.578 145.92 245.73 145.32C245.882 144.72 245.986 143.88 246.042 142.8L246.126 140.688H250.782V146.256H251.766ZM246.822 142.848C246.782 143.744 246.706 144.484 246.594 145.068C246.482 145.644 246.282 146.04 245.994 146.256H249.93V141.444H246.894L246.822 142.848ZM256.031 147.06C255.423 147.06 254.875 146.924 254.387 146.652C253.899 146.372 253.515 145.988 253.235 145.5C252.955 145.012 252.815 144.46 252.815 143.844C252.815 143.228 252.955 142.676 253.235 142.188C253.515 141.7 253.899 141.32 254.387 141.048C254.875 140.776 255.423 140.64 256.031 140.64C256.639 140.64 257.187 140.776 257.675 141.048C258.163 141.32 258.543 141.7 258.815 142.188C259.095 142.676 259.235 143.228 259.235 143.844C259.235 144.46 259.095 145.012 258.815 145.5C258.543 145.988 258.163 146.372 257.675 146.652C257.187 146.924 256.639 147.06 256.031 147.06ZM256.031 146.304C256.479 146.304 256.879 146.204 257.231 146.004C257.591 145.796 257.871 145.504 258.071 145.128C258.271 144.752 258.371 144.324 258.371 143.844C258.371 143.364 258.271 142.936 258.071 142.56C257.871 142.184 257.591 141.896 257.231 141.696C256.879 141.488 256.479 141.384 256.031 141.384C255.583 141.384 255.179 141.488 254.819 141.696C254.467 141.896 254.187 142.184 253.979 142.56C253.779 142.936 253.679 143.364 253.679 143.844C253.679 144.324 253.779 144.752 253.979 145.128C254.187 145.504 254.467 145.796 254.819 146.004C255.179 146.204 255.583 146.304 256.031 146.304ZM266.668 147.072C266.044 147.072 265.444 146.972 264.868 146.772C264.3 146.572 263.86 146.308 263.548 145.98L263.896 145.296C264.2 145.6 264.604 145.848 265.108 146.04C265.612 146.224 266.132 146.316 266.668 146.316C267.42 146.316 267.984 146.18 268.36 145.908C268.736 145.628 268.924 145.268 268.924 144.828C268.924 144.492 268.82 144.224 268.612 144.024C268.412 143.824 268.164 143.672 267.868 143.568C267.572 143.456 267.16 143.336 266.632 143.208C266 143.048 265.496 142.896 265.12 142.752C264.744 142.6 264.42 142.372 264.148 142.068C263.884 141.764 263.752 141.352 263.752 140.832C263.752 140.408 263.864 140.024 264.088 139.68C264.312 139.328 264.656 139.048 265.12 138.84C265.584 138.632 266.16 138.528 266.848 138.528C267.328 138.528 267.796 138.596 268.252 138.732C268.716 138.86 269.116 139.04 269.452 139.272L269.152 139.98C268.8 139.748 268.424 139.576 268.024 139.464C267.624 139.344 267.232 139.284 266.848 139.284C266.112 139.284 265.556 139.428 265.18 139.716C264.812 139.996 264.628 140.36 264.628 140.808C264.628 141.144 264.728 141.416 264.928 141.624C265.136 141.824 265.392 141.98 265.696 142.092C266.008 142.196 266.424 142.312 266.944 142.44C267.56 142.592 268.056 142.744 268.432 142.896C268.816 143.04 269.14 143.264 269.404 143.568C269.668 143.864 269.8 144.268 269.8 144.78C269.8 145.204 269.684 145.592 269.452 145.944C269.228 146.288 268.88 146.564 268.408 146.772C267.936 146.972 267.356 147.072 266.668 147.072ZM274.879 146.616C274.719 146.76 274.519 146.872 274.279 146.952C274.047 147.024 273.803 147.06 273.547 147.06C272.955 147.06 272.499 146.9 272.179 146.58C271.859 146.26 271.699 145.808 271.699 145.224V141.408H270.571V140.688H271.699V139.308H272.551V140.688H274.471V141.408H272.551V145.176C272.551 145.552 272.643 145.84 272.827 146.04C273.019 146.232 273.291 146.328 273.643 146.328C273.819 146.328 273.987 146.3 274.147 146.244C274.315 146.188 274.459 146.108 274.579 146.004L274.879 146.616ZM277.246 141.924C277.446 141.5 277.742 141.18 278.134 140.964C278.534 140.748 279.026 140.64 279.61 140.64V141.468L279.406 141.456C278.742 141.456 278.222 141.66 277.846 142.068C277.47 142.476 277.282 143.048 277.282 143.784V147H276.43V140.688H277.246V141.924ZM283.349 140.64C284.173 140.64 284.805 140.848 285.245 141.264C285.685 141.672 285.905 142.28 285.905 143.088V147H285.089V146.016C284.897 146.344 284.613 146.6 284.237 146.784C283.869 146.968 283.429 147.06 282.917 147.06C282.213 147.06 281.653 146.892 281.237 146.556C280.821 146.22 280.613 145.776 280.613 145.224C280.613 144.688 280.805 144.256 281.189 143.928C281.581 143.6 282.201 143.436 283.049 143.436H285.053V143.052C285.053 142.508 284.901 142.096 284.597 141.816C284.293 141.528 283.849 141.384 283.265 141.384C282.865 141.384 282.481 141.452 282.113 141.588C281.745 141.716 281.429 141.896 281.165 142.128L280.781 141.492C281.101 141.22 281.485 141.012 281.933 140.868C282.381 140.716 282.853 140.64 283.349 140.64ZM283.049 146.388C283.529 146.388 283.941 146.28 284.285 146.064C284.629 145.84 284.885 145.52 285.053 145.104V144.072H283.073C281.993 144.072 281.453 144.448 281.453 145.2C281.453 145.568 281.593 145.86 281.873 146.076C282.153 146.284 282.545 146.388 283.049 146.388ZM291.543 146.616C291.383 146.76 291.183 146.872 290.943 146.952C290.711 147.024 290.467 147.06 290.211 147.06C289.619 147.06 289.163 146.9 288.843 146.58C288.523 146.26 288.363 145.808 288.363 145.224V141.408H287.235V140.688H288.363V139.308H289.215V140.688H291.135V141.408H289.215V145.176C289.215 145.552 289.307 145.84 289.491 146.04C289.683 146.232 289.955 146.328 290.307 146.328C290.483 146.328 290.651 146.3 290.811 146.244C290.979 146.188 291.123 146.108 291.243 146.004L291.543 146.616ZM298.368 144.108H293.088C293.136 144.764 293.388 145.296 293.844 145.704C294.3 146.104 294.876 146.304 295.572 146.304C295.964 146.304 296.324 146.236 296.652 146.1C296.98 145.956 297.264 145.748 297.504 145.476L297.984 146.028C297.704 146.364 297.352 146.62 296.928 146.796C296.512 146.972 296.052 147.06 295.548 147.06C294.9 147.06 294.324 146.924 293.82 146.652C293.324 146.372 292.936 145.988 292.656 145.5C292.376 145.012 292.236 144.46 292.236 143.844C292.236 143.228 292.368 142.676 292.632 142.188C292.904 141.7 293.272 141.32 293.736 141.048C294.208 140.776 294.736 140.64 295.32 140.64C295.904 140.64 296.428 140.776 296.892 141.048C297.356 141.32 297.72 141.7 297.984 142.188C298.248 142.668 298.38 143.22 298.38 143.844L298.368 144.108ZM295.32 141.372C294.712 141.372 294.2 141.568 293.784 141.96C293.376 142.344 293.144 142.848 293.088 143.472H297.564C297.508 142.848 297.272 142.344 296.856 141.96C296.448 141.568 295.936 141.372 295.32 141.372ZM305.958 140.688V146.232C305.958 147.304 305.694 148.096 305.166 148.608C304.646 149.128 303.858 149.388 302.802 149.388C302.218 149.388 301.662 149.3 301.134 149.124C300.614 148.956 300.19 148.72 299.862 148.416L300.294 147.768C300.598 148.04 300.966 148.252 301.398 148.404C301.838 148.556 302.298 148.632 302.778 148.632C303.578 148.632 304.166 148.444 304.542 148.068C304.918 147.7 305.106 147.124 305.106 146.34V145.536C304.842 145.936 304.494 146.24 304.062 146.448C303.638 146.656 303.166 146.76 302.646 146.76C302.054 146.76 301.514 146.632 301.026 146.376C300.546 146.112 300.166 145.748 299.886 145.284C299.614 144.812 299.478 144.28 299.478 143.688C299.478 143.096 299.614 142.568 299.886 142.104C300.166 141.64 300.546 141.28 301.026 141.024C301.506 140.768 302.046 140.64 302.646 140.64C303.182 140.64 303.666 140.748 304.098 140.964C304.53 141.18 304.878 141.492 305.142 141.9V140.688H305.958ZM302.73 146.004C303.186 146.004 303.598 145.908 303.966 145.716C304.334 145.516 304.618 145.24 304.818 144.888C305.026 144.536 305.13 144.136 305.13 143.688C305.13 143.24 305.026 142.844 304.818 142.5C304.618 142.148 304.334 141.876 303.966 141.684C303.606 141.484 303.194 141.384 302.73 141.384C302.274 141.384 301.862 141.48 301.494 141.672C301.134 141.864 300.85 142.136 300.642 142.488C300.442 142.84 300.342 143.24 300.342 143.688C300.342 144.136 300.442 144.536 300.642 144.888C300.85 145.24 301.134 145.516 301.494 145.716C301.862 145.908 302.274 146.004 302.73 146.004ZM313.644 140.688L310.488 147.756C310.232 148.348 309.936 148.768 309.6 149.016C309.264 149.264 308.86 149.388 308.388 149.388C308.084 149.388 307.8 149.34 307.536 149.244C307.272 149.148 307.044 149.004 306.852 148.812L307.248 148.176C307.568 148.496 307.952 148.656 308.4 148.656C308.688 148.656 308.932 148.576 309.132 148.416C309.34 148.256 309.532 147.984 309.708 147.6L309.984 146.988L307.164 140.688H308.052L310.428 146.052L312.804 140.688H313.644ZM318.009 140.688H318.861V143.484H322.833V140.688H323.685V147H322.833V144.216H318.861V147H318.009V140.688ZM328.279 140.64C329.103 140.64 329.735 140.848 330.175 141.264C330.615 141.672 330.835 142.28 330.835 143.088V147H330.019V146.016C329.827 146.344 329.543 146.6 329.167 146.784C328.799 146.968 328.359 147.06 327.847 147.06C327.143 147.06 326.583 146.892 326.167 146.556C325.751 146.22 325.543 145.776 325.543 145.224C325.543 144.688 325.735 144.256 326.119 143.928C326.511 143.6 327.131 143.436 327.979 143.436H329.983V143.052C329.983 142.508 329.831 142.096 329.527 141.816C329.223 141.528 328.779 141.384 328.195 141.384C327.795 141.384 327.411 141.452 327.043 141.588C326.675 141.716 326.359 141.896 326.095 142.128L325.711 141.492C326.031 141.22 326.415 141.012 326.863 140.868C327.311 140.716 327.783 140.64 328.279 140.64ZM327.979 146.388C328.459 146.388 328.871 146.28 329.215 146.064C329.559 145.84 329.815 145.52 329.983 145.104V144.072H328.003C326.923 144.072 326.383 144.448 326.383 145.2C326.383 145.568 326.523 145.86 326.803 146.076C327.083 146.284 327.475 146.388 327.979 146.388ZM140.464 153.64C141.056 153.64 141.592 153.776 142.072 154.048C142.552 154.312 142.928 154.688 143.2 155.176C143.472 155.664 143.608 156.22 143.608 156.844C143.608 157.476 143.472 158.036 143.2 158.524C142.928 159.012 142.552 159.392 142.072 159.664C141.6 159.928 141.064 160.06 140.464 160.06C139.952 160.06 139.488 159.956 139.072 159.748C138.664 159.532 138.328 159.22 138.064 158.812V162.328H137.212V153.688H138.028V154.936C138.284 154.52 138.62 154.2 139.036 153.976C139.46 153.752 139.936 153.64 140.464 153.64ZM140.404 159.304C140.844 159.304 141.244 159.204 141.604 159.004C141.964 158.796 142.244 158.504 142.444 158.128C142.652 157.752 142.756 157.324 142.756 156.844C142.756 156.364 142.652 155.94 142.444 155.572C142.244 155.196 141.964 154.904 141.604 154.696C141.244 154.488 140.844 154.384 140.404 154.384C139.956 154.384 139.552 154.488 139.192 154.696C138.84 154.904 138.56 155.196 138.352 155.572C138.152 155.94 138.052 156.364 138.052 156.844C138.052 157.324 138.152 157.752 138.352 158.128C138.56 158.504 138.84 158.796 139.192 159.004C139.552 159.204 139.956 159.304 140.404 159.304ZM147.575 153.64C148.399 153.64 149.031 153.848 149.471 154.264C149.911 154.672 150.131 155.28 150.131 156.088V160H149.315V159.016C149.123 159.344 148.839 159.6 148.463 159.784C148.095 159.968 147.655 160.06 147.143 160.06C146.439 160.06 145.879 159.892 145.463 159.556C145.047 159.22 144.839 158.776 144.839 158.224C144.839 157.688 145.031 157.256 145.415 156.928C145.807 156.6 146.427 156.436 147.275 156.436H149.279V156.052C149.279 155.508 149.127 155.096 148.823 154.816C148.519 154.528 148.075 154.384 147.491 154.384C147.091 154.384 146.707 154.452 146.339 154.588C145.971 154.716 145.655 154.896 145.391 155.128L145.007 154.492C145.327 154.22 145.711 154.012 146.159 153.868C146.607 153.716 147.079 153.64 147.575 153.64ZM147.275 159.388C147.755 159.388 148.167 159.28 148.511 159.064C148.855 158.84 149.111 158.52 149.279 158.104V157.072H147.299C146.219 157.072 145.679 157.448 145.679 158.2C145.679 158.568 145.819 158.86 146.099 159.076C146.379 159.284 146.771 159.388 147.275 159.388ZM155.343 156.712C155.791 156.816 156.135 156.996 156.375 157.252C156.623 157.508 156.747 157.82 156.747 158.188C156.747 158.556 156.619 158.884 156.363 159.172C156.115 159.46 155.775 159.684 155.343 159.844C154.911 159.996 154.435 160.072 153.915 160.072C153.459 160.072 153.011 160.008 152.571 159.88C152.131 159.744 151.747 159.548 151.419 159.292L151.707 158.656C151.995 158.872 152.331 159.04 152.715 159.16C153.099 159.28 153.487 159.34 153.879 159.34C154.463 159.34 154.939 159.232 155.307 159.016C155.683 158.792 155.871 158.492 155.871 158.116C155.871 157.78 155.719 157.52 155.415 157.336C155.111 157.144 154.695 157.048 154.167 157.048H153.087V156.424H154.119C154.591 156.424 154.971 156.336 155.259 156.16C155.547 155.976 155.691 155.732 155.691 155.428C155.691 155.092 155.527 154.828 155.199 154.636C154.879 154.444 154.459 154.348 153.939 154.348C153.259 154.348 152.587 154.52 151.923 154.864L151.683 154.204C152.435 153.812 153.215 153.616 154.023 153.616C154.503 153.616 154.935 153.688 155.319 153.832C155.711 153.968 156.015 154.164 156.231 154.42C156.455 154.676 156.567 154.972 156.567 155.308C156.567 155.628 156.455 155.912 156.231 156.16C156.015 156.408 155.719 156.592 155.343 156.712ZM158.681 153.688H159.533V156.484H163.505V153.688H164.357V160H163.505V157.216H159.533V160H158.681V153.688ZM169.43 155.92C170.222 155.928 170.826 156.104 171.242 156.448C171.658 156.792 171.866 157.288 171.866 157.936C171.866 158.608 171.642 159.124 171.194 159.484C170.746 159.844 170.106 160.02 169.274 160.012L166.778 160V153.688H167.63V155.896L169.43 155.92ZM172.922 153.688H173.774V160H172.922V153.688ZM169.226 159.364C169.81 159.372 170.25 159.256 170.546 159.016C170.85 158.768 171.002 158.408 171.002 157.936C171.002 157.472 170.854 157.128 170.558 156.904C170.262 156.68 169.818 156.564 169.226 156.556L167.63 156.532V159.34L169.226 159.364ZM180.148 160L178.144 157.36L176.128 160H175.168L177.664 156.76L175.288 153.688H176.248L178.144 156.16L180.04 153.688H180.976L178.6 156.76L181.12 160H180.148ZM191.813 159.256V161.524H191.009V160H185.357V161.524H184.553V159.256H184.913C185.337 159.232 185.625 158.92 185.777 158.32C185.929 157.72 186.033 156.88 186.089 155.8L186.173 153.688H190.829V159.256H191.813ZM186.869 155.848C186.829 156.744 186.753 157.484 186.641 158.068C186.529 158.644 186.329 159.04 186.041 159.256H189.977V154.444H186.941L186.869 155.848ZM197.494 156.736C198.35 156.936 198.778 157.452 198.778 158.284C198.778 158.836 198.574 159.26 198.166 159.556C197.758 159.852 197.15 160 196.342 160H193.474V153.688H196.258C196.978 153.688 197.542 153.828 197.95 154.108C198.358 154.388 198.562 154.788 198.562 155.308C198.562 155.652 198.466 155.948 198.274 156.196C198.09 156.436 197.83 156.616 197.494 156.736ZM194.302 156.496H196.198C196.686 156.496 197.058 156.404 197.314 156.22C197.578 156.036 197.71 155.768 197.71 155.416C197.71 155.064 197.578 154.8 197.314 154.624C197.058 154.448 196.686 154.36 196.198 154.36H194.302V156.496ZM196.306 159.328C196.85 159.328 197.258 159.24 197.53 159.064C197.802 158.888 197.938 158.612 197.938 158.236C197.938 157.86 197.814 157.584 197.566 157.408C197.318 157.224 196.926 157.132 196.39 157.132H194.302V159.328H196.306ZM200.775 153.688H201.627V158.704L205.839 153.688H206.595V160H205.743V154.984L201.543 160H200.775V153.688ZM214.568 157.192H213.2V160H212.348V157.192H210.98L209.048 160H208.028L210.296 156.748L208.208 153.688H209.132L210.98 156.46H212.348V153.688H213.2V156.46H214.568L216.428 153.688H217.352L215.264 156.76L217.532 160H216.512L214.568 157.192ZM221.242 157.192H219.802V160H218.95V153.688H219.802V156.46H221.254L223.474 153.688H224.398L221.914 156.748L224.578 160H223.57L221.242 157.192ZM227.978 153.64C228.802 153.64 229.434 153.848 229.874 154.264C230.314 154.672 230.534 155.28 230.534 156.088V160H229.718V159.016C229.526 159.344 229.242 159.6 228.866 159.784C228.498 159.968 228.058 160.06 227.546 160.06C226.842 160.06 226.282 159.892 225.866 159.556C225.45 159.22 225.242 158.776 225.242 158.224C225.242 157.688 225.434 157.256 225.818 156.928C226.21 156.6 226.83 156.436 227.678 156.436H229.682V156.052C229.682 155.508 229.53 155.096 229.226 154.816C228.922 154.528 228.478 154.384 227.894 154.384C227.494 154.384 227.11 154.452 226.742 154.588C226.374 154.716 226.058 154.896 225.794 155.128L225.41 154.492C225.73 154.22 226.114 154.012 226.562 153.868C227.01 153.716 227.482 153.64 227.978 153.64ZM227.678 159.388C228.158 159.388 228.57 159.28 228.914 159.064C229.258 158.84 229.514 158.52 229.682 158.104V157.072H227.702C226.622 157.072 226.082 157.448 226.082 158.2C226.082 158.568 226.222 158.86 226.502 159.076C226.782 159.284 227.174 159.388 227.678 159.388ZM236.75 160L234.746 157.36L232.73 160H231.77L234.266 156.76L231.89 153.688H232.85L234.746 156.16L236.642 153.688H237.578L235.202 156.76L237.722 160H236.75ZM239.178 160.06C239.002 160.06 238.85 159.996 238.722 159.868C238.602 159.74 238.542 159.584 238.542 159.4C238.542 159.216 238.602 159.064 238.722 158.944C238.85 158.816 239.002 158.752 239.178 158.752C239.354 158.752 239.506 158.816 239.634 158.944C239.762 159.064 239.826 159.216 239.826 159.4C239.826 159.584 239.762 159.74 239.634 159.868C239.506 159.996 239.354 160.06 239.178 160.06Z" fill="white"/>
<defs>
<filter id="filter0_bd" x="0" y="-12" width="537" height="308" filterUnits="userSpaceOnUse" color-interpolation-filters="sRGB">
<feFlood flood-opacity="0" result="BackgroundImageFix"/>
<feGaussianBlur in="BackgroundImage" stdDeviation="25"/>
<feComposite in2="SourceAlpha" operator="in" result="effect1_backgroundBlur"/>
<feColorMatrix in="SourceAlpha" type="matrix" values="0 0 0 0 0 0 0 0 0 0 0 0 0 0 0 0 0 0 127 0" result="hardAlpha"/>
<feOffset dy="32"/>
<feGaussianBlur stdDeviation="35"/>
<feColorMatrix type="matrix" values="0 0 0 0 0.235294 0 0 0 0 0.235294 0 0 0 0 0.235294 0 0 0 0.5 0"/>
<feBlend mode="normal" in2="effect1_backgroundBlur" result="effect2_dropShadow"/>
<feBlend mode="normal" in="SourceGraphic" in2="effect2_dropShadow" result="shape"/>
</filter>
</defs>
</svg>
