<svg width="267" height="29" viewBox="0 0 267 29" fill="none" xmlns="http://www.w3.org/2000/svg">
<path d="M0 1V25.6301H24.5995V1H0ZM21.4828 22.5095H3.11668V4.12055H21.5941V22.5095H21.4828ZM15.2495 21.5065L7.12384 13.3708L15.2495 5.23503V9.58152L11.4649 13.3708L15.2495 17.16V21.5065Z" fill="white"/>
<path d="M37.1634 4.67865L39.0557 1.22375C39.3896 1.22375 39.7235 1.1123 40.1688 1.1123C40.614 1.1123 40.9479 1.1123 41.2819 1.22375L36.6068 9.58237C36.2729 9.58237 35.939 9.69382 35.4937 9.69382C35.0485 9.69382 34.7146 9.69382 34.3806 9.58237L36.0503 6.57327L33.0449 1.22375C33.3789 1.22375 33.7128 1.1123 34.158 1.1123C34.6033 1.1123 34.9372 1.1123 35.2711 1.22375L37.1634 4.67865Z" fill="white"/>
<path d="M49.296 4.45475V1.22275C49.9638 1.1113 50.6317 1.1113 51.2996 1.22275V9.58137C50.6317 9.69282 49.9638 9.69282 49.296 9.58137V6.23792H45.8454V9.58137C45.1775 9.69282 44.5097 9.69282 43.8418 9.58137V1.22275C44.5097 1.1113 45.1775 1.1113 45.8454 1.22275V4.45475H49.296Z" fill="white"/>
<path d="M61.8738 9.46992C61.2059 9.58137 60.5381 9.58137 59.8702 9.46992V4.67764L55.9744 9.58137C55.4178 9.69282 54.8613 9.69282 54.416 9.58137V1.22275C55.0839 1.1113 55.7517 1.1113 56.4196 1.22275V6.12647L60.3154 1.22275C60.872 1.1113 61.4285 1.1113 61.8738 1.22275V9.46992Z" fill="white"/>
<path d="M64.9902 1.22217H68.5522C69.3313 1.22217 69.9992 1.44506 70.5557 1.89086C71.001 2.33665 71.3349 2.78244 71.3349 3.45113C71.3349 4.34272 71.001 4.89996 70.2218 5.34575C71.001 5.6801 71.5575 6.34879 71.5575 7.35182C71.5575 8.80065 70.4444 9.69224 68.6635 9.69224H65.1015V1.22217H64.9902ZM66.9938 2.89389V4.56562H68.3295C68.8861 4.56562 69.22 4.23127 69.22 3.67403C69.22 3.11679 68.8861 2.78244 68.3295 2.78244H66.9938V2.89389ZM66.9938 6.01444V7.79762H68.4408C68.9974 7.79762 69.3313 7.46327 69.3313 6.90603C69.3313 6.34879 68.9974 6.01444 68.3295 6.01444H66.9938Z" fill="white"/>
<path d="M76.1227 7.79761H79.9073C80.0186 8.35486 80.0186 8.9121 79.9073 9.46934H74.1191V1.22217H79.9073C80.0186 1.77941 80.0186 2.33665 79.9073 2.89389H76.1227V4.45417H79.462C79.5733 5.01141 79.5733 5.56865 79.462 6.12589H76.1227V7.79761Z" fill="white"/>
<path d="M82.5762 1.22217H85.8042C86.6946 1.22217 87.4738 1.44506 88.0304 2.00231C88.5869 2.55955 88.9208 3.22824 88.9208 4.00837C88.9208 4.78851 88.5869 5.56865 88.0304 6.01444C87.4738 6.57168 86.6946 6.79458 85.8042 6.79458H84.5798V9.58079C83.9119 9.69223 83.244 9.69223 82.5762 9.58079V1.22217ZM84.5798 5.01141H85.8042C86.3607 5.01141 86.806 4.67706 86.806 3.89693C86.806 3.22824 86.3607 2.78244 85.8042 2.78244H84.5798V5.01141Z" fill="white"/>
<path d="M98.6043 7.2411C98.7156 7.35255 98.7156 7.6869 98.7156 8.13269C98.7156 8.68993 98.7156 8.91283 98.6043 9.13572C97.9364 9.58152 97.0459 9.80441 96.0442 9.80441C94.5971 9.80441 93.484 9.35862 92.5935 8.57848C91.8144 7.57545 91.3691 6.57241 91.3691 5.34648C91.3691 4.12055 91.8144 3.11752 92.7049 2.22593C93.5953 1.44579 94.7084 1 96.1555 1C97.1573 1 98.0477 1.2229 98.7156 1.66869C98.7156 1.78014 98.8269 2.11448 98.8269 2.67172C98.8269 3.11752 98.8269 3.45186 98.7156 3.56331C97.8251 3.00607 97.0459 2.78317 96.2668 2.78317C95.4876 2.78317 94.8197 3.00607 94.2632 3.56331C93.7066 4.0091 93.484 4.67779 93.484 5.45793C93.484 6.23807 93.7066 6.90676 94.2632 7.35255C94.8197 7.79835 95.3763 8.02124 96.2668 8.02124C97.0459 8.02124 97.8251 7.6869 98.6043 7.2411Z" fill="white"/>
<path d="M109.296 9.46992C108.628 9.58137 107.96 9.58137 107.292 9.46992V4.67764L103.396 9.58137C102.84 9.69282 102.283 9.69282 101.838 9.58137V1.22275C102.506 1.1113 103.174 1.1113 103.841 1.22275V6.12647L107.737 1.22275C108.294 1.1113 108.85 1.1113 109.296 1.22275V9.46992Z" fill="white"/>
<path d="M118.53 1.22217C118.641 1.77941 118.641 2.33665 118.53 2.89389H116.304V9.58079C115.636 9.69223 114.968 9.69223 114.3 9.58079V2.89389H112.074C111.962 2.33665 111.962 1.77941 112.074 1.22217H118.53Z" fill="white"/>
<path d="M123.205 7.79761H126.989C127.101 8.35486 127.101 8.9121 126.989 9.46934H121.201V1.22217H126.989C127.101 1.77941 127.101 2.33665 126.989 2.89389H123.205V4.45417H126.544C126.655 5.01141 126.655 5.56865 126.544 6.12589H123.205V7.79761Z" fill="white"/>
<path d="M135.784 1.22217C135.895 1.77941 135.895 2.33665 135.784 2.89389H133.557V9.58079C132.89 9.69223 132.222 9.69223 131.554 9.58079V2.89389H129.328C129.216 2.33665 129.216 1.77941 129.328 1.22217H135.784Z" fill="white"/>
<path d="M43.9532 22.0648C44.0645 22.1762 44.0645 22.7335 44.0645 23.5136C44.0645 24.2937 43.9532 24.851 43.9532 25.0739C42.8401 25.7426 41.5044 26.0769 39.9461 26.0769C37.7199 26.0769 35.9389 25.4082 34.6032 24.0708C33.2675 22.7335 32.5996 21.1732 32.5996 19.1671C32.5996 17.2725 33.2675 15.6008 34.6032 14.2634C35.9389 12.926 37.7199 12.2573 39.9461 12.2573C41.5044 12.2573 42.8401 12.5917 43.9532 13.2604C44.0645 13.4833 44.0645 13.929 44.0645 14.8206C44.0645 15.6008 44.0645 16.0466 43.9532 16.2695C42.6175 15.4893 41.3931 15.0435 40.1687 15.0435C38.9443 15.0435 37.9425 15.3779 37.1633 16.158C36.3841 16.9382 35.9389 17.9412 35.9389 19.1671C35.9389 20.393 36.3841 21.3961 37.1633 22.1762C37.9425 22.9564 38.9443 23.2907 40.1687 23.2907C41.3931 23.2907 42.6175 22.8449 43.9532 22.0648Z" fill="white"/>
<path d="M58.6445 25.6314C57.5314 25.8543 56.5296 25.8543 55.4165 25.6314V17.9415L49.2945 25.6314C48.5153 25.7429 47.6249 25.7429 46.7344 25.6314V12.592C47.8475 12.3691 48.8493 12.3691 49.9624 12.592V20.2819L56.0844 12.592C56.8636 12.4805 57.7541 12.4805 58.6445 12.592V25.6314Z" fill="white"/>
<path d="M70.0006 17.7186V12.592C71.1137 12.3691 72.1154 12.3691 73.2285 12.592V25.6314C72.1154 25.8543 71.1137 25.8543 70.0006 25.6314V20.3934H64.6577V25.6314C63.5446 25.8543 62.5428 25.8543 61.4297 25.6314V12.592C62.5428 12.3691 63.5446 12.3691 64.6577 12.592V17.7186H70.0006Z" fill="white"/>
<path d="M79.2378 22.9565H85.1372C85.2485 23.8481 85.2485 24.7397 85.1372 25.6312H76.0098V12.5918H85.1372C85.2485 13.4834 85.2485 14.375 85.1372 15.2666H79.2378V17.7184H84.4693C84.5806 18.61 84.5806 19.5016 84.4693 20.3932H79.2378V22.9565Z" fill="white"/>
<path d="M87.3672 12.5918H92.4874C93.9345 12.5918 95.1589 13.0376 96.0494 13.8177C96.9398 14.5979 97.3851 15.7123 97.3851 17.0497C97.3851 18.3871 96.9398 19.3901 96.0494 20.2817C95.1589 21.0619 93.9345 21.5077 92.4874 21.5077H90.5952V25.8541C89.4821 26.077 88.4803 26.077 87.3672 25.8541V12.5918ZM90.5952 18.7215H92.4874C93.3779 18.7215 94.1571 18.1642 94.1571 17.0497C94.1571 15.9352 93.4892 15.378 92.4874 15.378H90.5952V18.7215Z" fill="white"/>
<path d="M99.7188 12.5918H108.29C108.401 13.4834 108.401 14.375 108.29 15.2666H102.947V25.6312C101.834 25.8541 100.832 25.8541 99.7188 25.6312V12.5918Z" fill="white"/>
<path d="M122.203 25.6314C121.09 25.8543 120.088 25.8543 118.975 25.6314V17.9415L112.853 25.6314C112.074 25.7429 111.183 25.7429 110.293 25.6314V12.592C111.406 12.3691 112.408 12.3691 113.521 12.592V20.2819L119.643 12.592C120.422 12.4805 121.313 12.4805 122.203 12.592V25.6314Z" fill="white"/>
<path d="M135.117 12.5918V25.6312C134.004 25.8541 133.002 25.8541 131.889 25.6312V21.1733H130.665L127.771 25.6312C127.326 25.7427 126.658 25.7427 125.99 25.7427C125.322 25.7427 124.766 25.7427 124.209 25.6312L127.437 20.7275C125.879 20.0588 124.988 18.61 124.988 16.9383C124.988 15.6009 125.433 14.5979 126.324 13.8177C127.214 13.0376 128.439 12.5918 129.886 12.5918H135.117ZM131.889 15.2666H129.886C128.995 15.2666 128.216 15.8238 128.216 16.9383C128.216 18.0528 128.884 18.61 129.886 18.61H131.889V15.2666Z" fill="white"/>
<path d="M144.758 1H143.867V26.7459H144.758V1Z" fill="white"/>
<path d="M0 1V25.6301H24.5995V1H0ZM21.4828 22.5095H3.11668V4.12055H21.5941V22.5095H21.4828ZM15.2495 21.5065L7.12384 13.3708L15.2495 5.23503V9.58152L11.4649 13.3708L15.2495 17.16V21.5065Z" fill="white"/>
<path d="M37.1634 4.67865L39.0557 1.22375C39.3896 1.22375 39.7235 1.1123 40.1688 1.1123C40.614 1.1123 40.9479 1.1123 41.2819 1.22375L36.6068 9.58237C36.2729 9.58237 35.939 9.69382 35.4937 9.69382C35.0485 9.69382 34.7146 9.69382 34.3806 9.58237L36.0503 6.57327L33.0449 1.22375C33.3789 1.22375 33.7128 1.1123 34.158 1.1123C34.6033 1.1123 34.9372 1.1123 35.2711 1.22375L37.1634 4.67865Z" fill="white"/>
<path d="M49.296 4.45475V1.22275C49.9638 1.1113 50.6317 1.1113 51.2996 1.22275V9.58137C50.6317 9.69282 49.9638 9.69282 49.296 9.58137V6.23792H45.8454V9.58137C45.1775 9.69282 44.5097 9.69282 43.8418 9.58137V1.22275C44.5097 1.1113 45.1775 1.1113 45.8454 1.22275V4.45475H49.296Z" fill="white"/>
<path d="M61.8738 9.46992C61.2059 9.58137 60.5381 9.58137 59.8702 9.46992V4.67764L55.9744 9.58137C55.4178 9.69282 54.8613 9.69282 54.416 9.58137V1.22275C55.0839 1.1113 55.7517 1.1113 56.4196 1.22275V6.12647L60.3154 1.22275C60.872 1.1113 61.4285 1.1113 61.8738 1.22275V9.46992Z" fill="white"/>
<path d="M64.9902 1.22217H68.5522C69.3313 1.22217 69.9992 1.44506 70.5557 1.89086C71.001 2.33665 71.3349 2.78244 71.3349 3.45113C71.3349 4.34272 71.001 4.89996 70.2218 5.34575C71.001 5.6801 71.5575 6.34879 71.5575 7.35182C71.5575 8.80065 70.4444 9.69224 68.6635 9.69224H65.1015V1.22217H64.9902ZM66.9938 2.89389V4.56562H68.3295C68.8861 4.56562 69.22 4.23127 69.22 3.67403C69.22 3.11679 68.8861 2.78244 68.3295 2.78244H66.9938V2.89389ZM66.9938 6.01444V7.79762H68.4408C68.9974 7.79762 69.3313 7.46327 69.3313 6.90603C69.3313 6.34879 68.9974 6.01444 68.3295 6.01444H66.9938Z" fill="white"/>
<path d="M76.1227 7.79761H79.9073C80.0186 8.35486 80.0186 8.9121 79.9073 9.46934H74.1191V1.22217H79.9073C80.0186 1.77941 80.0186 2.33665 79.9073 2.89389H76.1227V4.45417H79.462C79.5733 5.01141 79.5733 5.56865 79.462 6.12589H76.1227V7.79761Z" fill="white"/>
<path d="M82.5762 1.22217H85.8042C86.6946 1.22217 87.4738 1.44506 88.0304 2.00231C88.5869 2.55955 88.9208 3.22824 88.9208 4.00837C88.9208 4.78851 88.5869 5.56865 88.0304 6.01444C87.4738 6.57168 86.6946 6.79458 85.8042 6.79458H84.5798V9.58079C83.9119 9.69223 83.244 9.69223 82.5762 9.58079V1.22217ZM84.5798 5.01141H85.8042C86.3607 5.01141 86.806 4.67706 86.806 3.89693C86.806 3.22824 86.3607 2.78244 85.8042 2.78244H84.5798V5.01141Z" fill="white"/>
<path d="M98.6043 7.2411C98.7156 7.35255 98.7156 7.6869 98.7156 8.13269C98.7156 8.68993 98.7156 8.91283 98.6043 9.13572C97.9364 9.58152 97.0459 9.80441 96.0442 9.80441C94.5971 9.80441 93.484 9.35862 92.5935 8.57848C91.8144 7.57545 91.3691 6.57241 91.3691 5.34648C91.3691 4.12055 91.8144 3.11752 92.7049 2.22593C93.5953 1.44579 94.7084 1 96.1555 1C97.1573 1 98.0477 1.2229 98.7156 1.66869C98.7156 1.78014 98.8269 2.11448 98.8269 2.67172C98.8269 3.11752 98.8269 3.45186 98.7156 3.56331C97.8251 3.00607 97.0459 2.78317 96.2668 2.78317C95.4876 2.78317 94.8197 3.00607 94.2632 3.56331C93.7066 4.0091 93.484 4.67779 93.484 5.45793C93.484 6.23807 93.7066 6.90676 94.2632 7.35255C94.8197 7.79835 95.3763 8.02124 96.2668 8.02124C97.0459 8.02124 97.8251 7.6869 98.6043 7.2411Z" fill="white"/>
<path d="M109.296 9.46992C108.628 9.58137 107.96 9.58137 107.292 9.46992V4.67764L103.396 9.58137C102.84 9.69282 102.283 9.69282 101.838 9.58137V1.22275C102.506 1.1113 103.174 1.1113 103.841 1.22275V6.12647L107.737 1.22275C108.294 1.1113 108.85 1.1113 109.296 1.22275V9.46992Z" fill="white"/>
<path d="M118.53 1.22217C118.641 1.77941 118.641 2.33665 118.53 2.89389H116.304V9.58079C115.636 9.69223 114.968 9.69223 114.3 9.58079V2.89389H112.074C111.962 2.33665 111.962 1.77941 112.074 1.22217H118.53Z" fill="white"/>
<path d="M123.205 7.79761H126.989C127.101 8.35486 127.101 8.9121 126.989 9.46934H121.201V1.22217H126.989C127.101 1.77941 127.101 2.33665 126.989 2.89389H123.205V4.45417H126.544C126.655 5.01141 126.655 5.56865 126.544 6.12589H123.205V7.79761Z" fill="white"/>
<path d="M135.784 1.22217C135.895 1.77941 135.895 2.33665 135.784 2.89389H133.557V9.58079C132.89 9.69223 132.222 9.69223 131.554 9.58079V2.89389H129.328C129.216 2.33665 129.216 1.77941 129.328 1.22217H135.784Z" fill="white"/>
<path d="M43.9532 22.0648C44.0645 22.1762 44.0645 22.7335 44.0645 23.5136C44.0645 24.2937 43.9532 24.851 43.9532 25.0739C42.8401 25.7426 41.5044 26.0769 39.9461 26.0769C37.7199 26.0769 35.9389 25.4082 34.6032 24.0708C33.2675 22.7335 32.5996 21.1732 32.5996 19.1671C32.5996 17.2725 33.2675 15.6008 34.6032 14.2634C35.9389 12.926 37.7199 12.2573 39.9461 12.2573C41.5044 12.2573 42.8401 12.5917 43.9532 13.2604C44.0645 13.4833 44.0645 13.929 44.0645 14.8206C44.0645 15.6008 44.0645 16.0466 43.9532 16.2695C42.6175 15.4893 41.3931 15.0435 40.1687 15.0435C38.9443 15.0435 37.9425 15.3779 37.1633 16.158C36.3841 16.9382 35.9389 17.9412 35.9389 19.1671C35.9389 20.393 36.3841 21.3961 37.1633 22.1762C37.9425 22.9564 38.9443 23.2907 40.1687 23.2907C41.3931 23.2907 42.6175 22.8449 43.9532 22.0648Z" fill="white"/>
<path d="M58.6445 25.6314C57.5314 25.8543 56.5296 25.8543 55.4165 25.6314V17.9415L49.2945 25.6314C48.5153 25.7429 47.6249 25.7429 46.7344 25.6314V12.592C47.8475 12.3691 48.8493 12.3691 49.9624 12.592V20.2819L56.0844 12.592C56.8636 12.4805 57.7541 12.4805 58.6445 12.592V25.6314Z" fill="white"/>
<path d="M70.0006 17.7186V12.592C71.1137 12.3691 72.1154 12.3691 73.2285 12.592V25.6314C72.1154 25.8543 71.1137 25.8543 70.0006 25.6314V20.3934H64.6577V25.6314C63.5446 25.8543 62.5428 25.8543 61.4297 25.6314V12.592C62.5428 12.3691 63.5446 12.3691 64.6577 12.592V17.7186H70.0006Z" fill="white"/>
<path d="M79.2378 22.9565H85.1372C85.2485 23.8481 85.2485 24.7397 85.1372 25.6312H76.0098V12.5918H85.1372C85.2485 13.4834 85.2485 14.375 85.1372 15.2666H79.2378V17.7184H84.4693C84.5806 18.61 84.5806 19.5016 84.4693 20.3932H79.2378V22.9565Z" fill="white"/>
<path d="M87.3672 12.5918H92.4874C93.9345 12.5918 95.1589 13.0376 96.0494 13.8177C96.9398 14.5979 97.3851 15.7123 97.3851 17.0497C97.3851 18.3871 96.9398 19.3901 96.0494 20.2817C95.1589 21.0619 93.9345 21.5077 92.4874 21.5077H90.5952V25.8541C89.4821 26.077 88.4803 26.077 87.3672 25.8541V12.5918ZM90.5952 18.7215H92.4874C93.3779 18.7215 94.1571 18.1642 94.1571 17.0497C94.1571 15.9352 93.4892 15.378 92.4874 15.378H90.5952V18.7215Z" fill="white"/>
<path d="M99.7188 12.5918H108.29C108.401 13.4834 108.401 14.375 108.29 15.2666H102.947V25.6312C101.834 25.8541 100.832 25.8541 99.7188 25.6312V12.5918Z" fill="white"/>
<path d="M122.203 25.6314C121.09 25.8543 120.088 25.8543 118.975 25.6314V17.9415L112.853 25.6314C112.074 25.7429 111.183 25.7429 110.293 25.6314V12.592C111.406 12.3691 112.408 12.3691 113.521 12.592V20.2819L119.643 12.592C120.422 12.4805 121.313 12.4805 122.203 12.592V25.6314Z" fill="white"/>
<path d="M135.117 12.5918V25.6312C134.004 25.8541 133.002 25.8541 131.889 25.6312V21.1733H130.665L127.771 25.6312C127.326 25.7427 126.658 25.7427 125.99 25.7427C125.322 25.7427 124.766 25.7427 124.209 25.6312L127.437 20.7275C125.879 20.0588 124.988 18.61 124.988 16.9383C124.988 15.6009 125.433 14.5979 126.324 13.8177C127.214 13.0376 128.439 12.5918 129.886 12.5918H135.117ZM131.889 15.2666H129.886C128.995 15.2666 128.216 15.8238 128.216 16.9383C128.216 18.0528 128.884 18.61 129.886 18.61H131.889V15.2666Z" fill="white"/>
<path d="M159.002 1.51068H159.233C160.053 1.51557 160.801 1.70379 161.477 2.07535C162.153 2.44691 162.678 2.96025 163.05 3.61537C163.428 4.2656 163.617 4.99405 163.617 5.80072C163.617 6.61229 163.428 7.34807 163.05 8.00808C162.673 8.66808 162.151 9.18386 161.485 9.55542C160.819 9.92209 160.078 10.1103 159.263 10.1201H159.002V11.5574H157.615V10.1201H157.406C156.576 10.1201 155.821 9.93432 155.14 9.56276C154.464 9.1912 153.937 8.67786 153.559 8.02274C153.186 7.36763 153 6.63184 153 5.81539C153 4.99894 153.186 4.26315 153.559 3.60803C153.937 2.95292 154.464 2.43958 155.14 2.06802C155.821 1.69646 156.576 1.51068 157.406 1.51068H157.615V0H159.002V1.51068ZM157.406 2.61802C156.472 2.61802 155.731 2.90158 155.185 3.4687C154.643 4.03093 154.372 4.81316 154.372 5.81539C154.372 6.82251 154.643 7.60718 155.185 8.16941C155.726 8.72675 156.472 9.00542 157.421 9.00542H157.615V2.61802H157.406ZM159.002 2.61802V9.00542H159.211C160.16 9.00542 160.901 8.71942 161.433 8.14741C161.969 7.57052 162.238 6.78829 162.238 5.80072C162.238 4.82293 161.969 4.04804 161.433 3.47603C160.901 2.90403 160.15 2.61802 159.181 2.61802H159.002Z" fill="white"/>
<path d="M171.416 8.33075H166.868L165.846 11.1174H164.37L168.516 0.440004H169.768L173.921 11.1174H172.452L171.416 8.33075ZM167.3 7.17207H170.991L169.142 2.17802L167.3 7.17207Z" fill="white"/>
<path d="M178.201 6.32139H176.881V11.1174H175.45V0.440004H176.881V5.14805H177.999L181.795 0.440004H183.576L179.431 5.61739L183.882 11.1174H182.13L178.201 6.32139Z" fill="white"/>
<path d="M188.922 6.63673L191.42 0.440004H193.083L189.243 9.33542C188.984 9.90254 188.743 10.3059 188.52 10.5454C188.296 10.7801 188.033 10.961 187.729 11.0881C187.431 11.2103 187.056 11.2714 186.604 11.2714C186.211 11.2714 185.96 11.2494 185.85 11.2054L185.895 10.0908L186.574 10.1201C187.096 10.1201 187.483 9.87321 187.737 9.37942L187.923 8.99809L188.207 8.34541L184.508 0.440004H186.111L188.922 6.63673Z" fill="white"/>
<path d="M202.604 0.440004V11.1174H201.172V1.59868H197.28L197.086 5.83006C197.012 7.24785 196.863 8.31363 196.639 9.02742C196.42 9.7412 196.097 10.2668 195.67 10.6041C195.242 10.9365 194.671 11.1077 193.955 11.1174H193.485V9.96609L193.784 9.95143C194.246 9.9172 194.601 9.77054 194.85 9.51142C195.098 9.24742 195.287 8.82942 195.416 8.25741C195.546 7.68541 195.638 6.8054 195.692 5.61739L195.916 0.440004H202.604Z" fill="white"/>
<path d="M206.593 4.79605H209.292C210.425 4.81071 211.31 5.09671 211.946 5.65405C212.582 6.21139 212.9 6.96918 212.9 7.92741C212.9 8.89053 212.58 9.65809 211.939 10.2301C211.297 10.8021 210.422 11.0979 209.314 11.1174H205.161V0.440004H206.593V4.79605ZM206.593 5.95472V9.96609H209.21C209.92 9.96609 210.472 9.78032 210.865 9.40876C211.263 9.0372 211.461 8.53853 211.461 7.91274C211.461 7.3114 211.27 6.83718 210.887 6.49006C210.509 6.14295 209.97 5.9645 209.269 5.95472H206.593Z" fill="white"/>
<path d="M220.297 1.59868H216.807V11.1174H215.383V1.59868H211.901V0.440004H220.297V1.59868Z" fill="white"/>
<path d="M228.043 6.18206H223.339V9.96609H228.804V11.1174H221.907V0.440004H228.729V1.59868H223.339V5.03071H228.043V6.18206Z" fill="white"/>
<path d="M238.235 1.59868H234.746V11.1174H233.322V1.59868H229.84V0.440004H238.235V1.59868Z" fill="white"/>
<path d="M160.374 16.8559H155.14V26.3746H153.701V15.6972H160.374V16.8559Z" fill="white"/>
<path d="M168.277 21.4393H163.572V25.2233H169.038V26.3746H162.141V15.6972H168.963V16.8559H163.572V20.2879H168.277V21.4393Z" fill="white"/>
<path d="M177.664 15.6972H179.095V26.3746H177.664V18.1466L172.318 26.3746H170.879V15.6972H172.318V23.9253L177.664 15.6972ZM177.261 13.0425C177.261 13.6341 177.055 14.1107 176.643 14.4725C176.235 14.8294 175.698 15.0079 175.032 15.0079C174.366 15.0079 173.827 14.827 173.414 14.4652C173.002 14.1034 172.795 13.6292 172.795 13.0425H173.921C173.921 13.3847 174.016 13.6536 174.204 13.8492C174.393 14.0399 174.669 14.1352 175.032 14.1352C175.38 14.1352 175.651 14.0399 175.845 13.8492C176.044 13.6585 176.143 13.3896 176.143 13.0425H177.261Z" fill="white"/>
<path d="M183.554 15.6972L187.103 24.4093L190.652 15.6972H192.509V26.3746H191.077V22.2166L191.211 17.7286L187.647 26.3746H186.551L182.995 17.7506L183.137 22.2166V26.3746H181.705V15.6972H183.554Z" fill="white"/>
<path d="M204.967 28.9927H203.543V26.3746H195.752V29H194.32L194.313 25.2233H195.2C195.667 24.7051 196.038 24.0108 196.311 23.1406C196.589 22.2655 196.763 21.3073 196.833 20.2659L197.072 15.6972H203.566V25.2233H204.982L204.967 28.9927ZM196.833 25.2233H202.127V16.8559H198.451L198.294 19.9946C198.23 21.2217 198.063 22.2679 197.795 23.1333C197.531 23.9986 197.211 24.6953 196.833 25.2233Z" fill="white"/>
<path d="M213.527 15.6972H214.958V26.3746H213.527V18.1466L208.181 26.3746H206.742V15.6972H208.181V23.9253L213.527 15.6972Z" fill="white"/>
<path d="M223.137 18.5646C223.137 17.9975 222.926 17.5477 222.503 17.2152C222.086 16.8779 221.497 16.7092 220.736 16.7092C220.1 16.7092 219.566 16.8828 219.133 17.2299C218.706 17.5721 218.492 17.9975 218.492 18.5059H217.061C217.061 17.9388 217.217 17.4303 217.53 16.9806C217.849 16.5308 218.291 16.1812 218.858 15.9319C219.424 15.6777 220.05 15.5505 220.736 15.5505C221.949 15.5505 222.891 15.8194 223.562 16.3572C224.233 16.8901 224.569 17.6332 224.569 18.5866C224.569 19.0804 224.415 19.5301 224.106 19.9359C223.798 20.3417 223.368 20.6619 222.817 20.8966C224.094 21.317 224.733 22.1506 224.733 23.3973C224.733 24.3555 224.37 25.1157 223.644 25.678C222.919 26.2402 221.949 26.5213 220.736 26.5213C220.016 26.5213 219.36 26.3966 218.768 26.1473C218.182 25.8931 217.724 25.5337 217.396 25.0693C217.068 24.6048 216.904 24.0524 216.904 23.4119H218.336C218.336 23.9742 218.562 24.4435 219.014 24.82C219.466 25.1915 220.041 25.3773 220.736 25.3773C221.517 25.3773 222.138 25.1989 222.6 24.842C223.068 24.4851 223.301 24.0133 223.301 23.4266C223.301 22.175 222.513 21.537 220.938 21.5126H219.596V20.3539H220.93C221.656 20.3393 222.205 20.1779 222.578 19.8699C222.951 19.5619 223.137 19.1268 223.137 18.5646Z" fill="white"/>
<path d="M232.629 23.5879H228.08L227.059 26.3746H225.583L229.728 15.6972H230.981L235.134 26.3746H233.665L232.629 23.5879ZM228.513 22.4293H232.204L230.354 17.4352L228.513 22.4293Z" fill="white"/>
<path d="M243.439 15.6972H244.871V26.3746H243.439V18.1466L238.094 26.3746H236.655V15.6972H238.094V23.9253L243.439 15.6972ZM243.037 13.0425C243.037 13.6341 242.831 14.1107 242.418 14.4725C242.01 14.8294 241.474 15.0079 240.808 15.0079C240.142 15.0079 239.602 14.827 239.19 14.4652C238.777 14.1034 238.571 13.6292 238.571 13.0425H239.697C239.697 13.3847 239.791 13.6536 239.98 13.8492C240.169 14.0399 240.445 14.1352 240.808 14.1352C241.156 14.1352 241.426 14.0399 241.62 13.8492C241.819 13.6585 241.919 13.3896 241.919 13.0425H243.037Z" fill="white"/>
<path d="M255.824 26.3746H254.385V21.4393H248.912V26.3746H247.481V15.6972H248.912V20.2879H254.385V15.6972H255.824V26.3746Z" fill="white"/>
<path d="M264.495 23.5879H259.947L258.925 26.3746H257.449L261.595 15.6972H262.847L267 26.3746H265.531L264.495 23.5879ZM260.379 22.4293H264.07L262.221 17.4352L260.379 22.4293Z" fill="white"/>
<path d="M144.059 0H143.191V25.7459H144.059V0Z" fill="white"/>
</svg>
