<svg width="16" height="29" viewBox="0 0 16 29" fill="none" xmlns="http://www.w3.org/2000/svg">
<path d="M15.3733 0.00603393L11.7091 0C7.59253 0 4.93221 2.80125 4.93221 7.13694V10.4275H1.24803C0.929675 10.4275 0.671875 10.6925 0.671875 11.0192V15.7869C0.671875 16.1136 0.929973 16.3782 1.24803 16.3782H4.93221V28.4086C4.93221 28.7354 5.19001 29 5.50836 29H10.3152C10.6336 29 10.8913 28.7351 10.8913 28.4086V16.3782H15.199C15.5173 16.3782 15.7752 16.1136 15.7752 15.7869L15.7769 11.0192C15.7769 10.8623 15.716 10.712 15.6082 10.601C15.5003 10.49 15.3533 10.4275 15.2005 10.4275H10.8913V7.63806C10.8913 6.29732 11.2026 5.61669 12.9043 5.61669L15.3727 5.61579C15.6908 5.61579 15.9486 5.35089 15.9486 5.02446V0.59736C15.9486 0.271226 15.6911 0.00663733 15.3733 0.00603393Z" fill="#CFCFCF"/>
</svg>
