<svg width="23" height="23" viewBox="0 0 23 23" fill="none" xmlns="http://www.w3.org/2000/svg">
<path d="M13.4635 11.5003C13.4635 12.6774 12.5094 13.6315 11.3323 13.6315C10.1553 13.6315 9.20117 12.6774 9.20117 11.5003C9.20117 10.3233 10.1553 9.36914 11.3323 9.36914C12.5094 9.36914 13.4635 10.3233 13.4635 11.5003Z" fill="#CFCFCF"/>
<path d="M16.3156 7.72859C16.2131 7.45099 16.0497 7.19971 15.8373 6.99348C15.6311 6.78111 15.38 6.61769 15.1022 6.51521C14.8769 6.42768 14.5385 6.32357 13.9151 6.29519C13.2408 6.26444 13.0386 6.25781 11.3315 6.25781C9.6242 6.25781 9.42206 6.26427 8.7479 6.29502C8.12454 6.32357 7.78593 6.42768 7.56078 6.51521C7.28306 6.61769 7.03172 6.78111 6.82568 6.99348C6.61331 7.19971 6.44988 7.45086 6.34724 7.72859C6.25974 7.95392 6.15559 8.29247 6.12722 8.91583C6.09647 9.58999 6.08984 9.7922 6.08984 11.4995C6.08984 13.2066 6.09647 13.4088 6.12722 14.0831C6.15559 14.7065 6.25974 15.0449 6.34724 15.2702C6.44988 15.5479 6.61312 15.799 6.82549 16.0053C7.03172 16.2177 7.28287 16.3811 7.56066 16.4835C7.78593 16.5713 8.12454 16.6754 8.7479 16.7038C9.42206 16.7345 9.62401 16.7409 11.3313 16.7409C13.0388 16.7409 13.241 16.7345 13.915 16.7038C14.5383 16.6754 14.8769 16.5713 15.1022 16.4835C15.6598 16.2685 16.1005 15.8278 16.3156 15.2702C16.4031 15.0449 16.5072 14.7065 16.5358 14.0831C16.5666 13.4088 16.573 13.2066 16.573 11.4995C16.573 9.7922 16.5666 9.58999 16.5358 8.91583C16.5074 8.29247 16.4033 7.95392 16.3156 7.72859ZM11.3315 14.7824C9.51821 14.7824 8.04826 13.3126 8.04826 11.4993C8.04826 9.68601 9.51821 8.21619 11.3315 8.21619C13.1446 8.21619 14.6146 9.68601 14.6146 11.4993C14.6146 13.3126 13.1446 14.7824 11.3315 14.7824ZM14.7444 8.85367C14.3207 8.85367 13.9771 8.51014 13.9771 8.08643C13.9771 7.66272 14.3207 7.31919 14.7444 7.31919C15.1681 7.31919 15.5116 7.66272 15.5116 8.08643C15.5115 8.51014 15.1681 8.85367 14.7444 8.85367Z" fill="#CFCFCF"/>
<path d="M11.3316 0.365234C5.18323 0.365234 0.197266 5.3512 0.197266 11.4996C0.197266 17.648 5.18323 22.634 11.3316 22.634C17.48 22.634 22.466 17.648 22.466 11.4996C22.466 5.3512 17.48 0.365234 11.3316 0.365234ZM17.6866 14.1355C17.6557 14.8162 17.5475 15.2808 17.3894 15.6875C17.0573 16.5464 16.3784 17.2253 15.5196 17.5574C15.113 17.7154 14.6482 17.8235 13.9677 17.8546C13.2859 17.8857 13.0681 17.8932 11.3318 17.8932C9.59525 17.8932 9.37764 17.8857 8.69569 17.8546C8.01521 17.8235 7.55042 17.7154 7.14383 17.5574C6.71705 17.3969 6.33071 17.1453 6.01131 16.8199C5.68612 16.5007 5.4345 16.1142 5.27395 15.6875C5.11595 15.281 5.00773 14.8162 4.9768 14.1357C4.94537 13.4537 4.93807 13.2359 4.93807 11.4996C4.93807 9.76325 4.94537 9.54545 4.97663 8.86363C5.00755 8.18302 5.11561 7.71836 5.27361 7.31164C5.43417 6.88505 5.68595 6.49853 6.01131 6.17927C6.33054 5.85392 6.71705 5.6023 7.14364 5.44175C7.55042 5.28375 8.01508 5.17569 8.69569 5.1446C9.37745 5.11351 9.59525 5.10604 11.3316 5.10604C13.068 5.10604 13.2858 5.11351 13.9675 5.14477C14.6482 5.17569 15.1128 5.28375 15.5196 5.44158C15.9462 5.60213 16.3327 5.85392 16.6521 6.17927C16.9773 6.49865 17.2291 6.88505 17.3894 7.31164C17.5476 7.71836 17.6557 8.18302 17.6868 8.86363C17.7179 9.54545 17.7252 9.76325 17.7252 11.4996C17.7252 13.2359 17.7179 13.4537 17.6866 14.1355Z" fill="#CFCFCF"/>
</svg>
