<svg width="23" height="18" viewBox="0 0 23 18" fill="none" xmlns="http://www.w3.org/2000/svg">
<path fill-rule="evenodd" clip-rule="evenodd" d="M22.634 2.32823C21.8661 2.65143 20.9885 2.86688 20.0012 2.97461C20.8788 2.43594 21.6467 1.57405 21.9757 0.60444C21.0982 1.14311 20.1109 1.46632 19.1236 1.68178C18.3557 0.819909 17.1491 0.28125 15.8327 0.28125C13.3096 0.28125 11.3351 2.22047 11.3351 4.59063C11.3351 4.91383 11.3351 5.23707 11.4448 5.56027C7.71499 5.3448 4.42406 3.62103 2.1204 1.03541C1.68161 1.68181 1.46222 2.43595 1.46222 3.19009C1.46222 4.69838 2.2301 5.99117 3.43678 6.85302C2.66889 6.85302 2.0107 6.63753 1.35251 6.31435C1.35251 6.31435 1.35251 6.31441 1.35251 6.42216C1.35251 8.57684 2.88829 10.3005 4.97255 10.7315C4.64346 10.8392 4.20467 10.8392 3.76587 10.8392C3.43678 10.8392 3.21738 10.8392 2.88829 10.7315C3.43678 12.4552 5.08225 13.7481 7.05683 13.7481C5.52104 14.9332 3.54648 15.5796 1.46222 15.5796C1.13312 15.5796 0.69433 15.5795 0.365234 15.4718C2.3398 16.7646 4.75315 17.4111 7.27622 17.4111C15.5036 17.4111 20.1109 10.7315 20.1109 5.0216C20.1109 4.80613 20.1109 4.59065 20.1109 4.48292C21.3176 3.94425 22.0854 3.19011 22.634 2.32823Z" fill="#CFCFCF"/>
</svg>
