<svg width="311" height="188" viewBox="0 0 311 188" fill="none" xmlns="http://www.w3.org/2000/svg">
<g filter="url(#filter0_b)">
<path d="M0 23.9738C0 21.8852 1.29816 20.0167 3.25546 19.288L54.2183 0.314216C54.7765 0.106411 55.3673 0 55.9629 0H306C308.761 0 311 2.23858 311 5V155.855C311 158.027 309.597 159.951 307.529 160.615L223.034 187.76C222.54 187.919 222.024 188 221.505 188H5C2.23858 188 0 185.761 0 183V23.9738Z" fill="url(#paint0_linear)"/>
</g>
<path d="M215.088 175.5H20C17.5147 175.5 15.5 173.485 15.5 171V33.3989C15.5 31.5005 16.6913 29.8063 18.4778 29.1642L64.1 12.7653C64.5883 12.5897 65.1033 12.5 65.6222 12.5H291C293.485 12.5 295.5 14.5147 295.5 17V147.454C295.5 149.426 294.216 151.168 292.333 151.752L216.421 175.298C215.99 175.432 215.54 175.5 215.088 175.5Z" stroke="#4A4A4A"/>
<defs>
<filter id="filter0_b" x="-50" y="-50" width="411" height="288" filterUnits="userSpaceOnUse" color-interpolation-filters="sRGB">
<feFlood flood-opacity="0" result="BackgroundImageFix"/>
<feGaussianBlur in="BackgroundImage" stdDeviation="25"/>
<feComposite in2="SourceAlpha" operator="in" result="effect1_backgroundBlur"/>
<feBlend mode="normal" in="SourceGraphic" in2="effect1_backgroundBlur" result="shape"/>
</filter>
<linearGradient id="paint0_linear" x1="0" y1="0" x2="307.635" y2="193.354" gradientUnits="userSpaceOnUse">
<stop stop-color="white" stop-opacity="0.3"/>
<stop offset="1" stop-color="white" stop-opacity="0"/>
</linearGradient>
</defs>
</svg>
