<svg width="873" height="855" viewBox="0 0 873 855" fill="none" xmlns="http://www.w3.org/2000/svg">
<path d="M52.4304 2.11041L0.919534 74.8499C0.321291 75.6948 0 76.7044 0 77.7396V146.125V850C0 852.761 2.23859 855 5.00001 855H278.678H813.408H868C870.761 855 873 852.761 873 850V277.347V180.228V83.1086V5C873 2.23859 870.761 0 868 0H278.678H56.5109C54.8889 0 53.3677 0.786743 52.4304 2.11041Z" fill="black"/>
<path d="M65.6073 16.8937L15.8402 87.1039C15.3609 87.78 15.1035 88.5883 15.1035 89.417V155.476V835.793C15.1035 838.002 16.8944 839.793 19.1035 839.793H283.778H801.23H853.897C856.106 839.793 857.897 838.002 857.897 835.793V282.337V188.445V94.5535V19.2068C857.897 16.9977 856.106 15.2068 853.897 15.2068H283.778H68.8706C67.5737 15.2068 66.3573 15.8356 65.6073 16.8937Z" stroke="#B10E04" stroke-width="2"/>
</svg>
